<?xml version="1.0" encoding="utf-8"?>
<!-- Generator: Adobe Illustrator 24.0.3, SVG Export Plug-In . SVG Version: 6.00 Build 0)  -->
<svg version="1.1" id="Layer_1" xmlns="http://www.w3.org/2000/svg" xmlns:xlink="http://www.w3.org/1999/xlink" x="0px" y="0px"
	 viewBox="0 0 50 50" style="enable-background:new 0 0 50 50;" xml:space="preserve">
<style type="text/css">
	.st0{fill:#ee8967;}
</style>
<path d="M48.94,17.81c-1.96,4.51-6.45,7.67-11.68,7.67c-7.04,0-12.74-5.7-12.74-12.74c0-5.23,3.16-9.72,7.67-11.68
	C29.91,0.38,27.5,0,25,0C11.19,0,0,11.19,0,25s11.19,25,25,25s25-11.19,25-25C50,22.5,49.62,20.09,48.94,17.81z M25,42
	c-9.37,0-17-7.63-17-17c0-6.35,3.5-11.91,8.68-14.82c-0.1,0.84-0.16,1.7-0.16,2.56c0,11.44,9.3,20.74,20.74,20.74
	c0.86,0,1.72-0.05,2.56-0.16C36.91,38.5,31.35,42,25,42z"/>
</svg>