<?xml version="1.0" encoding="utf-8"?>
<!-- Generator: Adobe Illustrator 24.0.3, SVG Export Plug-In . SVG Version: 6.00 Build 0)  -->
<svg version="1.1" xmlns="http://www.w3.org/2000/svg" xmlns:xlink="http://www.w3.org/1999/xlink" x="0px" y="0px"
	 viewBox="0 0 2000 2000" style="enable-background:new 0 0 2000 2000;" xml:space="preserve">

<g id="fill">
	<path class="st0" d="M1683.2,1689.9c5.22-73.38-16.03-141.71-58.32-187.46c-21.9-23.69-48.63-40.97-74.49-57.68
		c-17.24-11.15-33.53-21.68-48.52-33.97c-23.05-18.9-42.51-42.16-57.58-67.96l62.74-28.96l-100.83-74.41
		c61.61-58.66,293.44-302.99,224.03-598.55c-64.66-275.34-329.44-433.2-546.18-364.99s-348.09,351.18-238.71,612
		c115.32,275.01,441.4,347.52,525.92,361.93l-9.02,130.84l51.56-23.79c17.27,30.34,39.95,57.65,66.88,79.73
		c16.45,13.49,34.3,25.03,51.57,36.19c25.23,16.3,49.05,31.7,68.09,52.3c36.04,38.99,54.1,98.18,49.53,162.4L1683.2,1689.9z"/>
</g>
<g id="stroke">
	<g>
		<g>
			<path class="st1" d="M1531.97,1062.57c4.31-4.19,4.41-11.08,0.22-15.39c-4.19-4.31-11.08-4.41-15.39-0.22
				c-4.31,4.19-4.41,11.08-0.22,15.39S1527.66,1066.75,1531.97,1062.57z"/>
			<path class="st1" d="M1584.32,892.84c-4.31,4.19-4.41,11.08-0.22,15.39c4.19,4.31,11.08,4.41,15.39,0.22
				c4.31-4.19,4.41-11.08,0.22-15.39C1595.52,888.75,1588.63,888.65,1584.32,892.84z"/>
			<path class="st1" d="M1554.79,951.9c4.31-4.19,4.41-11.08,0.22-15.39c-4.19-4.31-11.08-4.41-15.39-0.22
				c-4.31,4.19-4.41,11.08-0.22,15.39C1543.59,955.99,1550.48,956.09,1554.79,951.9z"/>
			
				<ellipse transform="matrix(0.8859 -0.464 0.464 0.8859 -286.6786 809.8298)" class="st1" cx="1502.51" cy="987.54" rx="10.88" ry="10.88"/>
			<path class="st1" d="M1465.4,1038.79c4.31-4.19,4.41-11.08,0.22-15.39c-4.19-4.31-11.08-4.41-15.39-0.22
				c-4.31,4.19-4.41,11.08-0.22,15.39C1454.2,1042.89,1461.09,1042.98,1465.4,1038.79z"/>
			<path class="st1" d="M1623.09,798.58c4.31-4.19,4.41-11.08,0.22-15.39c-4.19-4.31-11.08-4.41-15.39-0.22
				c-4.31,4.19-4.41,11.08-0.22,15.39C1611.89,802.67,1618.78,802.77,1623.09,798.58z"/>
			<path class="st1" d="M1563,841.81c4.19,4.31,11.08,4.41,15.39,0.22c4.31-4.19,4.41-11.08,0.22-15.39
				c-4.19-4.31-11.08-4.41-15.39-0.22C1558.91,830.61,1558.81,837.5,1563,841.81z"/>
			<path class="st1" d="M1533.91,870.09c-4.19-4.31-11.08-4.41-15.39-0.22c-4.31,4.19-4.41,11.08-0.22,15.39
				c4.19,4.31,11.08,4.41,15.39,0.22C1538,881.29,1538.1,874.4,1533.91,870.09z"/>
			<path class="st1" d="M1488.99,928.92c4.31-4.19,4.41-11.08,0.22-15.39c-4.19-4.31-11.08-4.41-15.39-0.22
				c-4.31,4.19-4.41,11.08-0.22,15.39C1477.79,933.02,1484.68,933.11,1488.99,928.92z"/>
			<path class="st1" d="M1444.3,972.37c4.31-4.19,4.41-11.08,0.22-15.39c-4.19-4.31-11.08-4.41-15.39-0.22s-4.41,11.08-0.22,15.39
				C1433.1,976.46,1439.99,976.56,1444.3,972.37z"/>
			<path class="st1" d="M1601.43,715.97c-4.19-4.31-11.08-4.41-15.39-0.22c-4.31,4.19-4.41,11.08-0.22,15.39
				c4.19,4.31,11.08,4.41,15.39,0.22C1605.52,727.17,1605.62,720.28,1601.43,715.97z"/>
			
				<ellipse transform="matrix(0.9172 -0.3984 0.3984 0.9172 -177.3371 680.5059)" class="st1" cx="1548.93" cy="767" rx="10.88" ry="10.88"/>
			<path class="st1" d="M1512.03,802.87c-4.19-4.31-11.08-4.41-15.39-0.22c-4.31,4.19-4.41,11.08-0.22,15.39
				c4.19,4.31,11.08,4.41,15.39,0.22C1516.13,814.07,1516.22,807.18,1512.03,802.87z"/>
			
				<ellipse transform="matrix(0.8743 -0.4855 0.4855 0.8743 -231.0111 815.9097)" class="st1" cx="1459.53" cy="853.9" rx="10.88" ry="10.88"/>
			<path class="st1" d="M1564.94,649.33c-4.31,4.19-4.41,11.08-0.22,15.39c4.19,4.31,11.08,4.41,15.39,0.22
				c4.31-4.19,4.41-11.08,0.22-15.39C1576.14,645.24,1569.25,645.14,1564.94,649.33z"/>
			
				<ellipse transform="matrix(0.9172 -0.3984 0.3984 0.9172 -152.624 666.6032)" class="st1" cx="1527.83" cy="700.58" rx="10.88" ry="10.88"/>
			<path class="st1" d="M1475.33,751.62c4.19,4.31,11.08,4.41,15.39,0.22c4.31-4.19,4.41-11.08,0.22-15.39
				c-4.19-4.31-11.08-4.41-15.39-0.22C1471.24,740.42,1471.14,747.31,1475.33,751.62z"/>
			<path class="st1" d="M1446.02,795.28c4.31-4.19,4.41-11.08,0.22-15.39c-4.19-4.31-11.08-4.41-15.39-0.22
				c-4.31,4.19-4.41,11.08-0.22,15.39C1434.82,799.37,1441.71,799.47,1446.02,795.28z"/>
			
				<ellipse transform="matrix(0.8788 -0.4772 0.4772 0.8788 -227.5871 765.7271)" class="st1" cx="1393.74" cy="830.93" rx="10.88" ry="10.88"/>
			<path class="st1" d="M1543.07,582.11c-4.31,4.19-4.41,11.08-0.22,15.39c4.19,4.31,11.08,4.41,15.39,0.22
				c4.31-4.19,4.41-11.08,0.22-15.39C1554.27,578.02,1547.38,577.92,1543.07,582.11z"/>
			<path class="st1" d="M1498.15,640.95c4.19,4.31,11.08,4.41,15.39,0.22c4.31-4.19,4.41-11.08,0.22-15.39
				c-4.19-4.31-11.08-4.41-15.39-0.22C1494.06,629.75,1493.96,636.64,1498.15,640.95z"/>
			
				<ellipse transform="matrix(0.9935 -0.1138 0.1138 0.9935 -67.5087 170.6287)" class="st1" cx="1461.26" cy="676.81" rx="10.88" ry="10.88"/>
			<path class="st1" d="M1408.97,712.46c-4.31,4.19-4.41,11.08-0.22,15.39c4.19,4.31,11.08,4.41,15.39,0.22
				c4.31-4.19,4.41-11.08,0.22-15.39C1420.17,708.36,1413.28,708.27,1408.97,712.46z"/>
			<path class="st1" d="M1521.97,515.69c-4.31,4.19-4.41,11.08-0.22,15.39c4.19,4.31,11.08,4.41,15.39,0.22
				c4.31-4.19,4.41-11.08,0.22-15.39C1533.17,511.6,1526.28,511.5,1521.97,515.69z"/>
			<path class="st1" d="M1477.27,559.14c-4.31,4.19-4.41,11.08-0.22,15.39c4.19,4.31,11.08,4.41,15.39,0.22
				c4.31-4.19,4.41-11.08,0.22-15.39C1488.47,555.05,1481.58,554.95,1477.27,559.14z"/>
			
				<ellipse transform="matrix(0.9172 -0.3984 0.3984 0.9172 -123.9515 624.2134)" class="st1" cx="1440.16" cy="610.39" rx="10.88" ry="10.88"/>
			<path class="st1" d="M1387.66,661.42c4.19,4.31,11.08,4.41,15.39,0.22c4.31-4.19,4.41-11.08,0.22-15.39
				c-4.19-4.31-11.08-4.41-15.39-0.22C1383.57,650.22,1383.47,657.11,1387.66,661.42z"/>
			<path class="st1" d="M1500.09,448.47c-4.31,4.19-4.41,11.08-0.22,15.39c4.19,4.31,11.08,4.41,15.39,0.22
				c4.31-4.19,4.41-11.08,0.22-15.39C1511.29,444.38,1504.4,444.28,1500.09,448.47z"/>
			<path class="st1" d="M1455.4,491.92c-4.31,4.19-4.41,11.08-0.22,15.39c4.19,4.31,11.08,4.41,15.39,0.22
				c4.31-4.19,4.41-11.08,0.22-15.39C1466.59,487.83,1459.7,487.73,1455.4,491.92z"/>
			<path class="st1" d="M1410.48,550.75c4.19,4.31,11.08,4.41,15.39,0.22c4.31-4.19,4.41-11.08,0.22-15.39
				c-4.19-4.31-11.08-4.41-15.39-0.22C1406.39,539.55,1406.29,546.44,1410.48,550.75z"/>
			<path class="st1" d="M1381.39,579.03c-4.19-4.31-11.08-4.41-15.39-0.22s-4.41,11.08-0.22,15.39c4.19,4.31,11.08,4.41,15.39,0.22
				C1385.48,590.23,1385.58,583.34,1381.39,579.03z"/>
			<path class="st1" d="M1321.3,622.26c-4.31,4.19-4.41,11.08-0.22,15.39c4.19,4.31,11.08,4.41,15.39,0.22
				c4.31-4.19,4.41-11.08,0.22-15.39C1332.5,618.17,1325.61,618.07,1321.3,622.26z"/>
			
				<ellipse transform="matrix(0.6818 -0.7316 0.7316 0.6818 141.853 1192.7035)" class="st1" cx="1441.88" cy="433.3" rx="10.88" ry="10.88"/>
			<path class="st1" d="M1389.6,468.94c-4.31,4.19-4.41,11.08-0.22,15.39c4.19,4.31,11.08,4.41,15.39,0.22s4.41-11.08,0.22-15.39
				C1400.8,464.85,1393.91,464.76,1389.6,468.94z"/>
			<path class="st1" d="M1360.29,512.61c-4.19-4.31-11.08-4.41-15.39-0.22c-4.31,4.19-4.41,11.08-0.22,15.39
				c4.19,4.31,11.08,4.41,15.39,0.22C1364.38,523.81,1364.48,516.92,1360.29,512.61z"/>
			<path class="st1" d="M1315.59,556.06c-4.19-4.31-11.08-4.41-15.39-0.22c-4.31,4.19-4.41,11.08-0.22,15.39
				c4.19,4.31,11.08,4.41,15.39,0.22C1319.68,567.26,1319.78,560.37,1315.59,556.06z"/>
			<path class="st1" d="M1255.5,599.29c-4.31,4.19-4.41,11.08-0.22,15.39c4.19,4.31,11.08,4.41,15.39,0.22
				c4.31-4.19,4.41-11.08,0.22-15.39C1266.7,595.2,1259.81,595.1,1255.5,599.29z"/>
			<path class="st1" d="M1412.42,358.28c-4.31,4.19-4.41,11.08-0.22,15.39c4.19,4.31,11.08,4.41,15.39,0.22
				c4.31-4.19,4.41-11.08,0.22-15.39C1423.62,354.18,1416.73,354.09,1412.42,358.28z"/>
			<path class="st1" d="M1367.72,401.72c-4.31,4.19-4.41,11.08-0.22,15.39c4.19,4.31,11.08,4.41,15.39,0.22
				c4.31-4.19,4.41-11.08,0.22-15.39C1378.92,397.63,1372.03,397.53,1367.72,401.72z"/>
			
				<ellipse transform="matrix(0.7071 -0.7071 0.7071 0.7071 69.4247 1073.5565)" class="st1" cx="1330.61" cy="452.98" rx="10.88" ry="10.88"/>
			<path class="st1" d="M1278.33,488.62c-4.31,4.19-4.41,11.08-0.22,15.39c4.19,4.31,11.08,4.41,15.39,0.22
				c4.31-4.19,4.41-11.08,0.22-15.39C1289.53,484.53,1282.64,484.43,1278.33,488.62z"/>
			<path class="st1" d="M1233.63,532.07c-4.31,4.19-4.41,11.08-0.22,15.39c4.19,4.31,11.08,4.41,15.39,0.22
				c4.31-4.19,4.41-11.08,0.22-15.39C1244.83,527.98,1237.94,527.88,1233.63,532.07z"/>
			
				<ellipse transform="matrix(0.6818 -0.7316 0.7316 0.6818 179.9357 1099.8646)" class="st1" cx="1354.21" cy="343.11" rx="10.88" ry="10.88"/>
			<path class="st1" d="M1317.1,394.36c4.31-4.19,4.41-11.08,0.22-15.39c-4.19-4.31-11.08-4.41-15.39-0.22
				c-4.31,4.19-4.41,11.08-0.22,15.39C1305.9,398.45,1312.79,398.55,1317.1,394.36z"/>
			<path class="st1" d="M1272.4,437.8c4.31-4.19,4.41-11.08,0.22-15.39c-4.19-4.31-11.08-4.41-15.39-0.22
				c-4.31,4.19-4.41,11.08-0.22,15.39C1261.2,441.9,1268.09,441.99,1272.4,437.8z"/>
			<path class="st1" d="M1227.92,465.86c-4.19-4.31-11.08-4.41-15.39-0.22c-4.31,4.19-4.41,11.08-0.22,15.39
				c4.19,4.31,11.08,4.41,15.39,0.22C1232.01,477.06,1232.11,470.17,1227.92,465.86z"/>
			<path class="st1" d="M1167.83,509.1c-4.31,4.19-4.41,11.08-0.22,15.39c4.19,4.31,11.08,4.41,15.39,0.22
				c4.31-4.19,4.41-11.08,0.22-15.39C1179.03,505,1172.14,504.91,1167.83,509.1z"/>
			<path class="st1" d="M1123.13,552.54c-4.31,4.19-4.41,11.08-0.22,15.39c4.19,4.31,11.08,4.41,15.39,0.22
				c4.31-4.19,4.41-11.08,0.22-15.39C1134.33,548.45,1127.44,548.35,1123.13,552.54z"/>
			<path class="st1" d="M1295.22,327.14c4.31-4.19,4.41-11.08,0.22-15.39c-4.19-4.31-11.08-4.41-15.39-0.22
				c-4.31,4.19-4.41,11.08-0.22,15.39C1284.02,331.23,1290.91,331.33,1295.22,327.14z"/>
			
				<ellipse transform="matrix(0.0168 -0.9999 0.9999 0.0168 859.3849 1599.4673)" class="st1" cx="1242.94" cy="362.78" rx="10.88" ry="10.88"/>
			<path class="st1" d="M1190.65,398.43c-4.31,4.19-4.41,11.08-0.22,15.39c4.19,4.31,11.08,4.41,15.39,0.22
				c4.31-4.19,4.41-11.08,0.22-15.39C1201.85,394.34,1194.96,394.24,1190.65,398.43z"/>
			
				<ellipse transform="matrix(0.8658 -0.5005 0.5005 0.8658 -70.1914 637.6839)" class="st1" cx="1153.54" cy="449.68" rx="10.88" ry="10.88"/>
			
				<ellipse transform="matrix(0.0168 -0.9999 0.9999 0.0168 905.0515 1513.0616)" class="st1" cx="1221.84" cy="296.36" rx="10.88" ry="10.88"/>
			<path class="st1" d="M1184.73,347.61c4.31-4.19,4.41-11.08,0.22-15.39c-4.19-4.31-11.08-4.41-15.39-0.22
				c-4.31,4.19-4.41,11.08-0.22,15.39C1173.53,351.7,1180.42,351.8,1184.73,347.61z"/>
			<path class="st1" d="M1140.03,391.06c4.31-4.19,4.41-11.08,0.22-15.39c-4.19-4.31-11.08-4.41-15.39-0.22
				c-4.31,4.19-4.41,11.08-0.22,15.39C1128.83,395.15,1135.72,395.25,1140.03,391.06z"/>
			<path class="st1" d="M1080.16,418.9c-4.31,4.19-4.41,11.08-0.22,15.39c4.19,4.31,11.08,4.41,15.39,0.22
				c4.31-4.19,4.41-11.08,0.22-15.39C1091.36,414.81,1084.47,414.71,1080.16,418.9z"/>
			<path class="st1" d="M1118.37,308.45c-4.19-4.31-11.08-4.41-15.39-0.22c-4.31,4.19-4.41,11.08-0.22,15.39
				c4.19,4.31,11.08,4.41,15.39,0.22C1122.46,319.65,1122.56,312.76,1118.37,308.45z"/>
			<path class="st1" d="M1631.01,1496.77c-22.64-24.49-49.81-42.05-76.12-59.04c-17.03-11.01-33.12-21.41-47.73-33.39
				c-19.73-16.17-36.81-35.6-50.87-57.84l54.24-25.04c2.68-1.24,4.51-3.8,4.81-6.74c0.3-2.94-0.97-5.82-3.35-7.57l-92.88-68.54
				c33.3-32.67,101.87-106.28,155.59-205.61c32.39-59.9,54.83-120.62,66.67-180.5c14.3-72.28,13.29-144.11-3-213.49
				c-33.11-140.99-121.31-261.26-241.99-329.98c-49.68-28.29-102.01-46.35-155.54-53.69c-55.11-7.55-108.7-3.31-159.29,12.62
				c-4.4,1.38-6.85,6.07-5.46,10.48c1.38,4.4,6.07,6.85,10.48,5.46c18.88-5.94,38.22-10.17,57.91-12.69
				c-0.4,3.17,0.58,6.49,2.98,8.96c4.19,4.31,11.08,4.41,15.39,0.22c3.09-3,4-7.39,2.73-11.22c23.9-1.56,48.28-0.65,72.99,2.73
				c51.41,7.04,101.72,24.42,149.55,51.65c116.65,66.42,201.94,182.8,233.99,319.28c15.75,67.05,16.71,136.5,2.88,206.43
				c-9.94,50.24-27.58,101.16-52.53,151.71c-3.72-1.21-7.96-0.38-10.96,2.54c-4.31,4.19-4.41,11.08-0.22,15.39
				c0.43,0.45,0.9,0.84,1.39,1.19c-0.88,1.66-1.76,3.31-2.66,4.97c-56.79,105.01-130.5,180.7-159.56,208.37
				c-1.79,1.7-2.73,4.11-2.58,6.57c0.15,2.46,1.39,4.73,3.38,6.2l89.46,66.02l-49.92,23.04c-2.14,0.99-3.76,2.83-4.47,5.08
				c-0.71,2.25-0.43,4.69,0.75,6.72c15.92,27.27,35.93,50.89,59.49,70.21c15.35,12.58,31.82,23.23,49.28,34.52
				c25.41,16.42,51.68,33.39,72.89,56.33c40.72,44.06,61.18,110.1,56.12,181.19c-0.33,4.6,3.14,8.6,7.74,8.92
				c0.2,0.01,0.4,0.02,0.6,0.02c4.34,0,8.01-3.36,8.32-7.76C1696.92,1614.81,1674.86,1544.2,1631.01,1496.77z"/>
		</g>
	</g>
</g>
</svg>
