<?xml version="1.0" encoding="utf-8"?>
<!-- Generator: Adobe Illustrator 24.0.3, SVG Export Plug-In . SVG Version: 6.00 Build 0)  -->
<svg version="1.1" xmlns="http://www.w3.org/2000/svg" xmlns:xlink="http://www.w3.org/1999/xlink" x="0px" y="0px"
	 viewBox="0 0 2000 2000" style="enable-background:new 0 0 2000 2000;" xml:space="preserve">

<style type="text/css">
	<!--fill colour--> .st0{fill:#bf8776;}
	<!--stroke colour--> .st1{fill:#f1ede3;}
</style>

<g id="fill">
	<path class="st0" d="M1630.14,833.25c-22.45-70.43-79.55-96.32-118.45-105.83V460.14c0-18.38-15.04-33.41-33.41-33.41H865.72
		c-18.38,0-33.41,15.04-33.41,33.41v267.27c-38.89,9.52-96,35.4-118.45,105.83h-54.18v66.83h44.55
		c0,112.88,61.02,179.99,128.08,211.65v540.13c0,18.38,15.04,33.41,33.41,33.41h612.56c18.38,0,33.41-15.04,33.41-33.41v-540.13
		c67.06-31.66,128.08-98.77,128.08-211.65h44.55v-66.83H1630.14z M704.34,900.08h0.21C704.48,901.87,704.4,900.99,704.34,900.08z
		 M1639.45,900.08h0.21C1639.6,900.99,1639.52,901.87,1639.45,900.08z"/>
</g>
<g id="stroke">
	<g>
		<g>
			<path class="st1" d="M1503.34,1651.86c0,13.82-11.24,25.06-25.06,25.06H960.39c-4.61,0-8.35,3.74-8.35,8.35s3.74,8.35,8.35,8.35
				h517.89c23.03,0,41.77-18.74,41.77-41.77v-534.92c-5.48,2.74-11.06,5.26-16.71,7.58V1651.86z"/>
			<path class="st1" d="M1520.05,460.14c0-23.03-18.74-41.77-41.77-41.77h-239.46c-4.61,0-8.35,3.74-8.35,8.35s3.74,8.35,8.35,8.35
				h239.46c13.82,0,25.06,11.24,25.06,25.06v256.88c5.15,1,10.77,2.29,16.71,3.94V460.14z"/>
			<path class="st1" d="M1397.53,1534.91c0,13.82-11.24,25.06-25.06,25.06h-14.62c-0.86,0.22-1.76,0.35-2.69,0.35
				s-1.83-0.13-2.69-0.35h-120.4c-0.86,0.22-1.76,0.35-2.69,0.35s-1.83-0.13-2.69-0.35H1172c-4.61,0-8.35,3.74-8.35,8.35
				s3.74,8.35,8.35,8.35h200.48c23.03,0,41.77-18.74,41.77-41.77v-392.62c-5.54-0.08-11.11-0.41-16.71-0.99V1534.91z"/>
			<path class="st1" d="M1414.24,577.09c0-23.03-18.74-41.77-41.77-41.77H1172c-4.61,0-8.35,3.74-8.35,8.35s3.74,8.35,8.35,8.35
				h46.66c0.88-5.12,5.34-9.02,10.71-9.02s9.83,3.9,10.71,9.02h104.36c0.88-5.12,5.34-9.02,10.71-9.02s9.83,3.9,10.71,9.02h6.6
				c13.82,0,25.06,11.24,25.06,25.06v136.43h16.71V577.09z"/>
			<path class="st1" d="M1138.59,496.34h55.69c4.61,0,8.35-3.74,8.35-8.35s-3.74-8.35-8.35-8.35h-55.69c-4.61,0-8.35,3.74-8.35,8.35
				S1133.97,496.34,1138.59,496.34z"/>
			<path class="st1" d="M1344.28,553.89c0,6.01,4.87,10.88,10.88,10.88s10.88-4.87,10.88-10.88c0-0.63-0.07-1.25-0.17-1.86h-21.42
				C1344.34,552.63,1344.28,553.25,1344.28,553.89z"/>
			<path class="st1" d="M1355.16,543c-5.38,0-9.83,3.9-10.71,9.02h21.42C1364.99,546.91,1360.53,543,1355.16,543z"/>
			<path class="st1" d="M1355.16,627.1c6.01,0,10.88-4.87,10.88-10.88c0-6.01-4.87-10.88-10.88-10.88s-10.88,4.87-10.88,10.88
				C1344.28,622.23,1349.15,627.1,1355.16,627.1z"/>
			<path class="st1" d="M1355.16,689.44c6.01,0,10.88-4.87,10.88-10.88s-4.87-10.88-10.88-10.88s-10.88,4.87-10.88,10.88
				S1349.15,689.44,1355.16,689.44z"/>
			<path class="st1" d="M1292.82,595.94c6.01,0,10.88-4.87,10.88-10.88c0-6.01-4.87-10.88-10.88-10.88s-10.88,4.87-10.88,10.88
				C1281.94,591.06,1286.81,595.94,1292.82,595.94z"/>
			<path class="st1" d="M1292.82,658.27c6.01,0,10.88-4.87,10.88-10.88c0-6.01-4.87-10.88-10.88-10.88s-10.88,4.87-10.88,10.88
				C1281.94,653.4,1286.81,658.27,1292.82,658.27z"/>
			<path class="st1" d="M1303.71,709.72c0-6.01-4.87-10.88-10.88-10.88s-10.88,4.87-10.88,10.88c0,1.34,0.25,2.61,0.69,3.8h20.37
				C1303.45,712.34,1303.71,711.06,1303.71,709.72z"/>
			<path class="st1" d="M1218.49,553.89c0,6.01,4.87,10.88,10.88,10.88c6.01,0,10.88-4.87,10.88-10.88c0-0.63-0.07-1.25-0.17-1.86
				h-21.42C1218.56,552.63,1218.49,553.25,1218.49,553.89z"/>
			<path class="st1" d="M1229.38,543c-5.38,0-9.83,3.9-10.71,9.02h21.42C1239.2,546.91,1234.75,543,1229.38,543z"/>
			<path class="st1" d="M1229.38,627.1c6.01,0,10.88-4.87,10.88-10.88c0-6.01-4.87-10.88-10.88-10.88
				c-6.01,0-10.88,4.87-10.88,10.88C1218.49,622.23,1223.37,627.1,1229.38,627.1z"/>
			<path class="st1" d="M1229.38,689.44c6.01,0,10.88-4.87,10.88-10.88s-4.87-10.88-10.88-10.88c-6.01,0-10.88,4.87-10.88,10.88
				S1223.37,689.44,1229.38,689.44z"/>
			<path class="st1" d="M1167.04,595.94c6.01,0,10.88-4.87,10.88-10.88c0-6.01-4.87-10.88-10.88-10.88
				c-6.01,0-10.88,4.87-10.88,10.88C1156.16,591.06,1161.03,595.94,1167.04,595.94z"/>
			<path class="st1" d="M1355.16,1186.31c6.01,0,10.88-4.87,10.88-10.88s-4.87-10.88-10.88-10.88s-10.88,4.87-10.88,10.88
				S1349.15,1186.31,1355.16,1186.31z"/>
			<path class="st1" d="M1355.16,1248.65c6.01,0,10.88-4.87,10.88-10.88s-4.87-10.88-10.88-10.88s-10.88,4.87-10.88,10.88
				S1349.15,1248.65,1355.16,1248.65z"/>
			<path class="st1" d="M1355.16,1310.98c6.01,0,10.88-4.87,10.88-10.88c0-6.01-4.87-10.88-10.88-10.88s-10.88,4.87-10.88,10.88
				C1344.28,1306.11,1349.15,1310.98,1355.16,1310.98z"/>
			<path class="st1" d="M1355.16,1373.32c6.01,0,10.88-4.87,10.88-10.88c0-6.01-4.87-10.88-10.88-10.88s-10.88,4.87-10.88,10.88
				C1344.28,1368.44,1349.15,1373.32,1355.16,1373.32z"/>
			<path class="st1" d="M1355.16,1435.65c6.01,0,10.88-4.87,10.88-10.88c0-6.01-4.87-10.88-10.88-10.88s-10.88,4.87-10.88,10.88
				C1344.28,1430.78,1349.15,1435.65,1355.16,1435.65z"/>
			<path class="st1" d="M1355.16,1497.99c6.01,0,10.88-4.87,10.88-10.88c0-6.01-4.87-10.88-10.88-10.88s-10.88,4.87-10.88,10.88
				C1344.28,1493.11,1349.15,1497.99,1355.16,1497.99z"/>
			<path class="st1" d="M1366.04,1549.44c0-6.01-4.87-10.88-10.88-10.88s-10.88,4.87-10.88,10.88c0,5.08,3.48,9.33,8.19,10.53h5.38
				C1362.56,1558.77,1366.04,1554.52,1366.04,1549.44z"/>
			<path class="st1" d="M1357.85,1559.97h-5.38c0.86,0.22,1.76,0.35,2.69,0.35S1356.99,1560.19,1357.85,1559.97z"/>
			<circle class="st1" cx="1292.82" cy="1144.26" r="10.88"/>
			<circle class="st1" cx="1292.82" cy="1206.6" r="10.88"/>
			<path class="st1" d="M1292.82,1279.81c6.01,0,10.88-4.87,10.88-10.88c0-6.01-4.87-10.88-10.88-10.88s-10.88,4.87-10.88,10.88
				C1281.94,1274.94,1286.81,1279.81,1292.82,1279.81z"/>
			<path class="st1" d="M1292.82,1342.15c6.01,0,10.88-4.87,10.88-10.88c0-6.01-4.87-10.88-10.88-10.88s-10.88,4.87-10.88,10.88
				C1281.94,1337.28,1286.81,1342.15,1292.82,1342.15z"/>
			<path class="st1" d="M1292.82,1404.48c6.01,0,10.88-4.87,10.88-10.88c0-6.01-4.87-10.88-10.88-10.88s-10.88,4.87-10.88,10.88
				C1281.94,1399.61,1286.81,1404.48,1292.82,1404.48z"/>
			<circle class="st1" cx="1292.82" cy="1455.94" r="10.88"/>
			<circle class="st1" cx="1292.82" cy="1518.27" r="10.88"/>
			<path class="st1" d="M1229.38,1123.98c6.01,0,10.88-4.87,10.88-10.88c0-6.01-4.87-10.88-10.88-10.88
				c-6.01,0-10.88,4.87-10.88,10.88C1218.49,1119.1,1223.37,1123.98,1229.38,1123.98z"/>
			<path class="st1" d="M1229.38,1186.31c6.01,0,10.88-4.87,10.88-10.88s-4.87-10.88-10.88-10.88c-6.01,0-10.88,4.87-10.88,10.88
				S1223.37,1186.31,1229.38,1186.31z"/>
			<path class="st1" d="M1229.38,1248.65c6.01,0,10.88-4.87,10.88-10.88s-4.87-10.88-10.88-10.88c-6.01,0-10.88,4.87-10.88,10.88
				S1223.37,1248.65,1229.38,1248.65z"/>
			<path class="st1" d="M1229.38,1310.98c6.01,0,10.88-4.87,10.88-10.88c0-6.01-4.87-10.88-10.88-10.88
				c-6.01,0-10.88,4.87-10.88,10.88C1218.49,1306.11,1223.37,1310.98,1229.38,1310.98z"/>
			<path class="st1" d="M1229.38,1373.32c6.01,0,10.88-4.87,10.88-10.88c0-6.01-4.87-10.88-10.88-10.88
				c-6.01,0-10.88,4.87-10.88,10.88C1218.49,1368.44,1223.37,1373.32,1229.38,1373.32z"/>
			<path class="st1" d="M1229.38,1435.65c6.01,0,10.88-4.87,10.88-10.88c0-6.01-4.87-10.88-10.88-10.88
				c-6.01,0-10.88,4.87-10.88,10.88C1218.49,1430.78,1223.37,1435.65,1229.38,1435.65z"/>
			<path class="st1" d="M1229.38,1497.99c6.01,0,10.88-4.87,10.88-10.88c0-6.01-4.87-10.88-10.88-10.88
				c-6.01,0-10.88,4.87-10.88,10.88C1218.49,1493.11,1223.37,1497.99,1229.38,1497.99z"/>
			<path class="st1" d="M1240.26,1549.44c0-6.01-4.87-10.88-10.88-10.88c-6.01,0-10.88,4.87-10.88,10.88
				c0,5.08,3.48,9.33,8.19,10.53h5.38C1236.77,1558.77,1240.26,1554.52,1240.26,1549.44z"/>
			<path class="st1" d="M1232.07,1559.97h-5.38c0.86,0.22,1.76,0.35,2.69,0.35S1231.21,1560.19,1232.07,1559.97z"/>
			<path class="st1" d="M1167.04,1092.81c6.01,0,10.88-4.87,10.88-10.88c0-6.01-4.87-10.88-10.88-10.88
				c-6.01,0-10.88,4.87-10.88,10.88C1156.16,1087.94,1161.03,1092.81,1167.04,1092.81z"/>
			<path class="st1" d="M1167.04,1155.14c6.01,0,10.88-4.87,10.88-10.88c0-6.01-4.87-10.88-10.88-10.88
				c-6.01,0-10.88,4.87-10.88,10.88C1156.16,1150.27,1161.03,1155.14,1167.04,1155.14z"/>
			<path class="st1" d="M1167.04,1217.48c6.01,0,10.88-4.87,10.88-10.88s-4.87-10.88-10.88-10.88c-6.01,0-10.88,4.87-10.88,10.88
				S1161.03,1217.48,1167.04,1217.48z"/>
			<path class="st1" d="M1167.04,1342.15c6.01,0,10.88-4.87,10.88-10.88c0-6.01-4.87-10.88-10.88-10.88
				c-6.01,0-10.88,4.87-10.88,10.88C1156.16,1337.28,1161.03,1342.15,1167.04,1342.15z"/>
			<path class="st1" d="M1167.04,1466.82c6.01,0,10.88-4.87,10.88-10.88c0-6.01-4.87-10.88-10.88-10.88
				c-6.01,0-10.88,4.87-10.88,10.88C1156.16,1461.95,1161.03,1466.82,1167.04,1466.82z"/>
			<path class="st1" d="M1167.04,1529.15c6.01,0,10.88-4.87,10.88-10.88s-4.87-10.88-10.88-10.88c-6.01,0-10.88,4.87-10.88,10.88
				S1161.03,1529.15,1167.04,1529.15z"/>
			<path class="st1" d="M1103.59,1123.98c6.01,0,10.88-4.87,10.88-10.88c0-6.01-4.87-10.88-10.88-10.88
				c-6.01,0-10.88,4.87-10.88,10.88C1092.71,1119.1,1097.58,1123.98,1103.59,1123.98z"/>
			<path class="st1" d="M1103.59,1248.65c6.01,0,10.88-4.87,10.88-10.88s-4.87-10.88-10.88-10.88c-6.01,0-10.88,4.87-10.88,10.88
				S1097.58,1248.65,1103.59,1248.65z"/>
			<path class="st1" d="M1103.59,1435.65c6.01,0,10.88-4.87,10.88-10.88c0-6.01-4.87-10.88-10.88-10.88
				c-6.01,0-10.88,4.87-10.88,10.88C1092.71,1430.78,1097.58,1435.65,1103.59,1435.65z"/>
			<path class="st1" d="M1052.14,1331.27c0-6.01-4.87-10.88-10.88-10.88s-10.88,4.87-10.88,10.88c0,6.01,4.87,10.88,10.88,10.88
				S1052.14,1337.28,1052.14,1331.27z"/>
			<path class="st1" d="M1684.33,824.9h-48.19c-16.08-45.01-48.78-78.41-94.91-96.82c-7.33-2.93-14.46-5.25-21.18-7.12V730
				l-16.71-9.39v-3.58c-17.64-3.42-29.82-3.5-30.63-3.5h-58.47V721h-16.71v-7.48h-94.52c-1.54,4.13-5.52,7.08-10.19,7.08
				s-8.64-2.95-10.19-7.08h-43.81c-4.61,0-8.35,3.74-8.35,8.35s3.74,8.35,8.35,8.35h233.87c0.29,0,29.77,0.25,62.87,13.58
				c43.62,17.57,72.77,48.51,86.62,91.98c1.1,3.46,4.32,5.82,7.96,5.82h45.83v50.12h-32.03c-1.78-0.99-3.53-1.11-3.91-1.12
				c-2.48-0.08-7.02,1.23-8.34,6.39c-0.43,1.07-0.63,2.23-0.58,3.41c0.03,0.88,0.14,1.67,0.3,2.39
				c-0.8,89.21-41.11,141.92-74.98,170.49c-38.83,32.77-90.95,52.33-139.4,52.33c-38.04,0-78-12.97-118.75-38.55
				c-40.7-25.55-71.41-57.13-86.09-73.69c-11.28-12.72-24.08-19.29-38.04-19.54c-23.37-0.44-40.81,17.6-41.54,18.36
				c-0.03,0.03-0.05,0.06-0.08,0.08c-39.2,42.33-118.04,113.34-205.55,113.34c-4.61,0-8.35,3.74-8.35,8.35s3.74,8.35,8.35,8.35
				c41.16,0,84.17-14.13,127.82-42c38.26-24.42,70-55.13,89.91-76.62c0.7-0.71,13.28-13.17,28.64-13.17c0.2,0,0.4,0,0.6,0.01
				c9.06,0.19,17.71,4.88,25.73,13.92c15.27,17.22,47.24,50.1,89.71,76.75c36.66,23.01,72.94,36.45,108.14,40.09v-7.3l16.71,8v0.29
				c0.93,0.01,1.86,0.03,2.78,0.03c28.61,0,58.38-6.31,86.32-17.8v-0.54l16.71-10.88v3.84c16.91-8.45,32.87-18.84,47.15-30.89
				c35.85-30.25,78.38-85.4,80.82-177.62h36.31c4.61,0,8.35-3.74,8.35-8.35v-66.83C1692.68,828.64,1688.94,824.9,1684.33,824.9z"/>
			<path class="st1" d="M1503.34,1123.98v0.54c5.65-2.32,11.23-4.85,16.71-7.58v-3.84L1503.34,1123.98z"/>
			<path class="st1" d="M1520.05,730v-9.04c-5.94-1.65-11.56-2.94-16.71-3.94v3.58L1520.05,730z"/>
			<path class="st1" d="M1397.53,1134v7.3c5.6,0.58,11.17,0.9,16.71,0.99V1142L1397.53,1134z"/>
			<rect x="1397.53" y="713.52" class="st1" width="16.71" height="7.48"/>
			<path class="st1" d="M1292.82,720.61c4.67,0,8.64-2.95,10.19-7.08h-20.37C1284.18,717.66,1288.15,720.61,1292.82,720.61z"/>
		</g>
	</g>
</g>
</svg>
