<?xml version="1.0" encoding="utf-8"?>
<!-- Generator: Adobe Illustrator 24.0.3, SVG Export Plug-In . SVG Version: 6.00 Build 0)  -->
<svg version="1.1" xmlns="http://www.w3.org/2000/svg" xmlns:xlink="http://www.w3.org/1999/xlink" x="0px" y="0px"
	 viewBox="0 0 2000 2000" style="enable-background:new 0 0 2000 2000;" xml:space="preserve">

<g id="fill">
	<g>
		<path class="st0" d="M643.75,1372.13c131.52-142.59,175.77-218.8,175.77-317.14c0-181.92-124.15-290.1-342.95-290.1
			c-103.25,0-174.55,24.59-243.38,59v269.2c70.07-40.57,133.99-70.07,213.89-70.07c67.6,0,100.79,35.64,100.79,84.81
			c0,38.1-6.15,68.84-104.48,208.96l-253.22,361.39h657.63v-260.59H601.95L643.75,1372.13z"/>
		<path class="st0" d="M1596.74,1143.61c-5.03,0-9.96,0.42-14.77,1.23c-0.42-4.04-0.87-8.05-1.35-12.02l4.98,10.8
			c0-378.68-77.96-523.46-133.65-579.15c-50.43-50.43-111.38-89.1-200.47-89.1c-135.32,0-258.73,109.7-258.73,245.03
			c0,43.98,11.59,85.25,31.87,120.93c-87.01,76.4-140.22,208.56-140.22,389.46c0,299.93,146.27,465.87,350.32,465.87
			c183.79,0,320.28-133.02,346.84-376.13c4.93,0.85,10,1.29,15.18,1.29c49.21,0,89.1-39.89,89.1-89.1
			C1685.84,1183.5,1645.94,1143.61,1596.74,1143.61z M1444.25,839.98c-0.14-0.12-0.28-0.24-0.42-0.36c0.14,0.12,0.27,0.23,0.41,0.35
			L1444.25,839.98z M1439.12,835.64c-0.3-0.25-0.6-0.49-0.89-0.73C1438.53,835.16,1438.83,835.4,1439.12,835.64z M1433.92,831.44
			c-0.27-0.22-0.55-0.44-0.82-0.65C1433.37,831,1433.64,831.22,1433.92,831.44z M1428.24,827.05c-0.36-0.27-0.73-0.55-1.1-0.82
			C1427.51,826.5,1427.88,826.77,1428.24,827.05z M1422.38,822.74c-0.11-0.08-0.21-0.15-0.32-0.23
			C1422.17,822.58,1422.27,822.66,1422.38,822.74z M1416.99,818.97c-0.39-0.26-0.77-0.53-1.16-0.79
			C1416.22,818.44,1416.61,818.7,1416.99,818.97z M1410.73,814.78c-0.19-0.12-0.38-0.24-0.57-0.36
			C1410.35,814.54,1410.54,814.66,1410.73,814.78z M1405.37,811.4c-0.37-0.23-0.74-0.46-1.11-0.69
			C1404.63,810.94,1405,811.17,1405.37,811.4z M1399.07,807.59c-0.33-0.19-0.66-0.38-1-0.58
			C1398.4,807.21,1398.74,807.4,1399.07,807.59z M1393.29,804.3c-0.29-0.16-0.58-0.32-0.87-0.48
			C1392.72,803.98,1393.01,804.14,1393.29,804.3z M1387.09,800.94c-0.4-0.21-0.81-0.42-1.21-0.63
			C1386.28,800.52,1386.68,800.73,1387.09,800.94z M1380.59,797.62c-0.09-0.05-0.18-0.09-0.27-0.14
			C1380.41,797.53,1380.5,797.58,1380.59,797.62z M1374.77,794.82c-0.42-0.2-0.84-0.4-1.27-0.59
			C1373.92,794.43,1374.34,794.62,1374.77,794.82z M1367.93,791.72c-0.22-0.1-0.44-0.19-0.67-0.29
			C1367.49,791.52,1367.71,791.62,1367.93,791.72z M1362.08,789.23c-0.4-0.16-0.79-0.33-1.19-0.49
			C1361.29,788.9,1361.69,789.06,1362.08,789.23z M1355.25,786.49c-0.37-0.14-0.74-0.28-1.11-0.42
			C1354.51,786.21,1354.88,786.35,1355.25,786.49z M1348.96,784.15c-0.31-0.11-0.61-0.22-0.92-0.33
			C1348.35,783.92,1348.66,784.04,1348.96,784.15z M1342.26,781.82c-0.44-0.15-0.87-0.29-1.31-0.43
			C1341.39,781.53,1341.83,781.67,1342.26,781.82z M1335.16,779.53c-0.07-0.02-0.13-0.04-0.2-0.06
			C1335.03,779.48,1335.09,779.51,1335.16,779.53z M1328.96,777.69c-0.46-0.13-0.91-0.26-1.37-0.39
			C1328.05,777.43,1328.51,777.56,1328.96,777.69z M1321.61,775.68c-0.25-0.07-0.51-0.13-0.76-0.19
			C1321.1,775.55,1321.36,775.61,1321.61,775.68z M1315.31,774.11c-0.42-0.1-0.83-0.2-1.25-0.3
			C1314.47,773.91,1314.89,774.01,1315.31,774.11z M1308,772.46c-0.4-0.09-0.8-0.17-1.2-0.25
			C1307.19,772.29,1307.59,772.37,1308,772.46z M1301.22,771.08c-0.31-0.06-0.62-0.12-0.94-0.18
			C1300.6,770.96,1300.91,771.02,1301.22,771.08z M1294.1,769.79c-0.47-0.08-0.94-0.16-1.41-0.23
			C1293.16,769.64,1293.63,769.71,1294.1,769.79z M1286.43,768.58c-0.04-0.01-0.07-0.01-0.11-0.02
			C1286.35,768.57,1286.39,768.57,1286.43,768.58z M1279.91,767.7c-0.48-0.06-0.97-0.12-1.45-0.18
			C1278.95,767.58,1279.43,767.64,1279.91,767.7z M1272.11,766.8c-0.29-0.03-0.58-0.06-0.87-0.08
			C1271.53,766.74,1271.82,766.77,1272.11,766.8z M1265.39,766.18c-0.44-0.04-0.88-0.08-1.32-0.11
			C1264.51,766.1,1264.95,766.14,1265.39,766.18z M1257.65,765.61c-0.43-0.03-0.87-0.05-1.3-0.08
			C1256.78,765.56,1257.21,765.58,1257.65,765.61z M1250.43,765.23c-0.31-0.01-0.62-0.03-0.94-0.04
			C1249.8,765.2,1250.11,765.22,1250.43,765.23z M1242.94,765c-0.5-0.01-1-0.02-1.5-0.03C1241.94,764.98,1242.44,764.98,1242.94,765
			z M1228.06,764.97c-0.5,0.01-1,0.02-1.49,0.03C1227.06,764.98,1227.56,764.98,1228.06,764.97z M1220.07,765.19
			c-0.3,0.01-0.61,0.03-0.91,0.04C1219.46,765.22,1219.76,765.2,1220.07,765.19z M1213.29,765.53c-0.44,0.03-0.89,0.05-1.33,0.08
			C1212.41,765.58,1212.85,765.55,1213.29,765.53z M1205.6,766.06c-0.43,0.03-0.86,0.07-1.28,0.11
			C1204.75,766.13,1205.17,766.09,1205.6,766.06z M1198.58,766.7c-0.32,0.03-0.65,0.06-0.97,0.09
			C1197.94,766.76,1198.26,766.73,1198.58,766.7z M1191.32,767.51c-0.48,0.06-0.95,0.12-1.43,0.18
			C1190.37,767.62,1190.85,767.56,1191.32,767.51z M1183.7,768.52c-0.06,0.01-0.13,0.02-0.19,0.03
			C1183.57,768.54,1183.64,768.53,1183.7,768.52z M1177.22,769.53c-0.48,0.08-0.95,0.16-1.43,0.24
			C1176.27,769.69,1176.75,769.61,1177.22,769.53z M1169.64,770.88c-0.26,0.05-0.51,0.1-0.76,0.15
			C1169.13,770.98,1169.38,770.92,1169.64,770.88z M1163.27,772.15c-0.43,0.09-0.86,0.18-1.28,0.27
			C1162.42,772.33,1162.84,772.24,1163.27,772.15z M1155.98,773.77c-0.39,0.09-0.78,0.19-1.17,0.28
			C1155.2,773.96,1155.59,773.87,1155.98,773.77z M1149.43,775.39c-0.33,0.08-0.66,0.17-0.98,0.25
			C1148.78,775.55,1149.11,775.47,1149.43,775.39z M1142.54,777.25c-0.44,0.12-0.89,0.25-1.33,0.38
			C1141.65,777.5,1142.1,777.37,1142.54,777.25z M1135.53,779.31c-0.11,0.04-0.23,0.07-0.34,0.1
			C1135.3,779.37,1135.42,779.34,1135.53,779.31z M1129.31,781.29c-0.45,0.15-0.9,0.3-1.34,0.45
			C1128.42,781.59,1128.86,781.44,1129.31,781.29z M1122.19,783.74c-0.21,0.07-0.41,0.15-0.62,0.23
			C1121.78,783.89,1121.98,783.81,1122.19,783.74z M1116.28,785.93c-0.41,0.16-0.82,0.31-1.23,0.47
			C1115.45,786.25,1115.87,786.09,1116.28,785.93z M1109.44,788.63c-0.35,0.14-0.7,0.29-1.05,0.44
			C1108.74,788.93,1109.09,788.78,1109.44,788.63z M1103.39,791.19c-0.32,0.14-0.65,0.28-0.97,0.42
			C1102.74,791.47,1103.07,791.33,1103.39,791.19z M1096.93,794.1c-0.4,0.19-0.81,0.38-1.21,0.57
			C1096.12,794.47,1096.52,794.28,1096.93,794.1z M1090.54,797.15c-0.15,0.07-0.3,0.14-0.44,0.22
			C1090.24,797.29,1090.39,797.22,1090.54,797.15z M1084.67,800.13c-0.42,0.22-0.83,0.44-1.25,0.65
			C1083.83,800.56,1084.25,800.34,1084.67,800.13z M1078.06,803.66c-0.16,0.09-0.31,0.18-0.47,0.26
			C1077.75,803.84,1077.9,803.75,1078.06,803.66z M1072.63,806.75c-0.38,0.22-0.77,0.45-1.15,0.67
			C1071.86,807.19,1072.24,806.97,1072.63,806.75z M1066.3,810.52c-0.31,0.19-0.61,0.38-0.92,0.57
			C1065.69,810.9,1066,810.71,1066.3,810.52z M1026.68,839.51c0.08-0.07,0.16-0.13,0.24-0.2c-0.13,0.11-0.25,0.22-0.38,0.33
			L1026.68,839.51z M1060.79,813.99c-0.31,0.2-0.63,0.4-0.94,0.6C1060.17,814.39,1060.48,814.19,1060.79,813.99z M1054.82,817.93
			c-0.37,0.25-0.73,0.5-1.09,0.75C1054.09,818.43,1054.46,818.18,1054.82,817.93z M1049.07,821.93c-0.17,0.12-0.34,0.24-0.51,0.36
			C1048.73,822.17,1048.9,822.05,1049.07,821.93z M1043.62,825.91c-0.38,0.28-0.76,0.57-1.13,0.85
			C1042.86,826.48,1043.24,826.2,1043.62,825.91z M1037.59,830.53c-0.11,0.08-0.21,0.17-0.32,0.25
			C1037.37,830.7,1037.48,830.61,1037.59,830.53z M1032.68,834.47c-0.36,0.29-0.71,0.58-1.07,0.88
			C1031.97,835.06,1032.32,834.77,1032.68,834.47z M1234.72,1436.05c-43.02,0-72.52-67.61-72.52-204.05
			c0-138.89,29.5-207.73,72.52-207.73c44.26,0,73.75,68.84,73.75,207.73C1308.47,1368.45,1278.97,1436.05,1234.72,1436.05z"/>
	</g>
</g>
<g id="stroke">
	<g>
		<g>
			<path class="st1" d="M1596.74,1135.25c-0.94,0-1.88,0.02-2.81,0.04c-0.5-165.26-16.05-301.41-46.25-404.73
				c-22.53-77.07-52.75-134.95-89.82-172.02c-29.04-29.04-57.81-50.32-87.97-65.06c-36.47-17.82-75.2-26.49-118.41-26.49
				c-67.41,0-135.13,26.97-185.79,74c-25.23,23.42-45.11,50.49-59.11,80.47c-14.72,31.53-22.18,64.81-22.18,98.91
				c0,41.6,10.25,82.61,29.68,119.08c-32.62,29.91-60.28,67.55-82.07,112.36c-2.02,4.15-0.29,9.15,3.86,11.17
				c1.18,0.57,2.42,0.84,3.65,0.84c3.1,0,6.07-1.73,7.52-4.7c21.77-44.78,49.68-82.03,82.72-111.15c0.19-0.15,0.38-0.29,0.56-0.46
				l0.67-0.61c28.84-25.14,61.56-44.12,97.51-56.51c0.03-0.01,0.05-0.02,0.08-0.03c1.67-0.57,3.34-1.13,5.02-1.68
				c0.16-0.05,0.32-0.1,0.48-0.15c4.62-1.49,9.3-2.87,14.02-4.14c0.61-0.17,1.22-0.34,1.84-0.5c1.08-0.29,2.17-0.56,3.26-0.83
				c1-0.25,2.01-0.5,3.02-0.75c0.94-0.23,1.89-0.45,2.84-0.67c1.24-0.29,2.49-0.56,3.73-0.84c0.77-0.17,1.53-0.34,2.3-0.5
				c1.89-0.4,3.79-0.78,5.7-1.15c0.14-0.03,0.29-0.06,0.43-0.09c2.17-0.41,4.36-0.8,6.55-1.17c0.34-0.06,0.69-0.11,1.04-0.17
				c1.82-0.3,3.65-0.59,5.48-0.86c0.5-0.07,1-0.14,1.5-0.22c1.74-0.25,3.49-0.48,5.25-0.71c0.47-0.06,0.93-0.12,1.4-0.18
				c2.04-0.25,4.09-0.48,6.15-0.7c0.14-0.01,0.27-0.03,0.41-0.04c2.3-0.24,4.61-0.45,6.92-0.64c0.13-0.01,0.26-0.02,0.39-0.03
				c2.05-0.16,4.1-0.31,6.16-0.44c0.6-0.04,1.21-0.07,1.81-0.1c1.61-0.09,3.23-0.17,4.85-0.24c0.71-0.03,1.43-0.06,2.14-0.09
				c1.59-0.06,3.19-0.11,4.79-0.14c0.66-0.02,1.32-0.04,1.98-0.05c2.23-0.04,4.47-0.07,6.71-0.07c39.21,0,76.48,6.23,110.78,18.52
				c34.08,12.21,65.35,30.46,92.94,54.23c29.76,62.26,73.11,155,135.42,291.98c-42.73,10.32-74.58,48.88-74.58,94.73
				c0,45.34,31.12,83.54,73.12,94.38c-8.68,72.44-27.49,136.11-55.97,189.33c-2.18,4.07-0.64,9.13,3.42,11.31
				c1.25,0.67,2.6,0.99,3.93,0.99c2.98,0,5.87-1.6,7.37-4.41c29.36-54.87,48.77-120.26,57.74-194.46c2.59,0.21,5.2,0.32,7.84,0.32
				c53.74,0,97.45-43.72,97.45-97.45S1650.47,1135.25,1596.74,1135.25z M1351.13,776.04c-36.11-12.94-75.28-19.5-116.41-19.5
				c-2.37,0-4.74,0.03-7.09,0.07c-0.62,0.01-1.24,0.03-1.86,0.05c-1.82,0.04-3.63,0.1-5.44,0.16c-0.57,0.02-1.13,0.05-1.7,0.07
				c-2.06,0.09-4.11,0.19-6.16,0.31c-0.24,0.01-0.48,0.03-0.72,0.04c-70.67,4.31-133.28,28.63-184.72,70.95
				c-16.99-33.19-25.93-70.25-25.93-107.82c0-62.32,26.97-121.67,75.95-167.14c34.39-31.92,77.1-54,122.01-63.8
				c0.71,5.32,5.26,9.43,10.77,9.43c6.01,0,10.88-4.87,10.88-10.88c0-0.78-0.08-1.53-0.24-2.26c10.29-1.33,20.65-2.02,31-2.02
				c40.61,0,76.94,8.11,111.07,24.79c28.48,13.92,55.79,34.15,83.5,61.86c28.65,28.65,53.12,70.94,72.97,126.01
				c-3.64,1.76-6.16,5.48-6.16,9.79c0,6.01,4.87,10.88,10.88,10.88c0.77,0,1.52-0.08,2.24-0.23c1.94,6.02,3.83,12.16,5.67,18.44
				c27.87,95.34,43.07,219.41,45.31,369.19c-46.61-102.2-81.89-178.07-108.45-234.21c2.31-2,3.78-4.94,3.78-8.24
				c0-6.01-4.87-10.88-10.88-10.88c-0.65,0-1.27,0.07-1.89,0.17c-52.29-109.92-66.35-133.76-67.22-135.21
				c-0.29-0.48-0.62-0.92-0.98-1.32c1.84,1.42,4.14,2.27,6.64,2.27c6.01,0,10.88-4.87,10.88-10.88s-4.87-10.88-10.88-10.88
				c-6.01,0-10.88,4.87-10.88,10.88c0,2.9,1.14,5.53,2.99,7.48c-2.63-1.92-6.26-2.2-9.23-0.42c-3.96,2.37-5.24,7.5-2.86,11.46
				c0.12,0.2,4.53,7.67,17.45,33.25c-4.78,1.15-8.34,5.44-8.34,10.57c0,6.01,4.87,10.88,10.88,10.88c2.64,0,5.05-0.94,6.94-2.5
				c4.95,10,10.73,21.78,17.44,35.63C1400.28,797.34,1376.44,785.11,1351.13,776.04z M1596.74,1313.45
				c-44.52,0-80.75-36.22-80.75-80.75s36.22-80.75,80.75-80.75s80.75,36.22,80.75,80.75S1641.26,1313.45,1596.74,1313.45z"/>
			<path class="st1" d="M1523.73,779.38c6.01,0,10.88-4.87,10.88-10.88s-4.87-10.88-10.88-10.88s-10.88,4.87-10.88,10.88
				S1517.72,779.38,1523.73,779.38z"/>
			<path class="st1" d="M1523.73,841.71c6.01,0,10.88-4.87,10.88-10.88c0-6.01-4.87-10.88-10.88-10.88s-10.88,4.87-10.88,10.88
				C1512.85,836.84,1517.72,841.71,1523.73,841.71z"/>
			<circle class="st1" cx="1523.73" cy="893.17" r="10.88"/>
			<path class="st1" d="M1523.73,966.38c6.01,0,10.88-4.87,10.88-10.88c0-6.01-4.87-10.88-10.88-10.88s-10.88,4.87-10.88,10.88
				C1512.85,961.51,1517.72,966.38,1523.73,966.38z"/>
			<path class="st1" d="M1461.4,623.54c6.01,0,10.88-4.87,10.88-10.88c0-6.01-4.87-10.88-10.88-10.88
				c-6.01,0-10.88,4.87-10.88,10.88C1450.52,618.67,1455.39,623.54,1461.4,623.54z"/>
			<path class="st1" d="M1461.4,685.88c6.01,0,10.88-4.87,10.88-10.88c0-6.01-4.87-10.88-10.88-10.88
				c-6.01,0-10.88,4.87-10.88,10.88C1450.52,681,1455.39,685.88,1461.4,685.88z"/>
			<path class="st1" d="M1461.4,748.21c6.01,0,10.88-4.87,10.88-10.88s-4.87-10.88-10.88-10.88c-6.01,0-10.88,4.87-10.88,10.88
				S1455.39,748.21,1461.4,748.21z"/>
			<path class="st1" d="M1461.4,810.55c6.01,0,10.88-4.87,10.88-10.88c0-6.01-4.87-10.88-10.88-10.88
				c-6.01,0-10.88,4.87-10.88,10.88C1450.52,805.67,1455.39,810.55,1461.4,810.55z"/>
			<path class="st1" d="M1397.95,592.37c6.01,0,10.88-4.87,10.88-10.88s-4.87-10.88-10.88-10.88c-6.01,0-10.88,4.87-10.88,10.88
				S1391.94,592.37,1397.95,592.37z"/>
			<path class="st1" d="M1397.95,654.71c6.01,0,10.88-4.87,10.88-10.88c0-6.01-4.87-10.88-10.88-10.88
				c-6.01,0-10.88,4.87-10.88,10.88C1387.07,649.84,1391.94,654.71,1397.95,654.71z"/>
			<path class="st1" d="M1335.61,539.44c-6.01,0-10.88,4.87-10.88,10.88c0,6.01,4.87,10.88,10.88,10.88s10.88-4.87,10.88-10.88
				C1346.5,544.31,1341.62,539.44,1335.61,539.44z"/>
			<path class="st1" d="M1335.61,601.78c-6.01,0-10.88,4.87-10.88,10.88c0,6.01,4.87,10.88,10.88,10.88s10.88-4.87,10.88-10.88
				C1346.5,606.65,1341.62,601.78,1335.61,601.78z"/>
			<path class="st1" d="M1335.61,664.11c-6.01,0-10.88,4.87-10.88,10.88c0,6.01,4.87,10.88,10.88,10.88s10.88-4.87,10.88-10.88
				C1346.5,668.98,1341.62,664.11,1335.61,664.11z"/>
			<path class="st1" d="M1335.61,726.45c-6.01,0-10.88,4.87-10.88,10.88s4.87,10.88,10.88,10.88s10.88-4.87,10.88-10.88
				S1341.62,726.45,1335.61,726.45z"/>
			<path class="st1" d="M1272.17,508.28c-6.01,0-10.88,4.87-10.88,10.88c0,6.01,4.87,10.88,10.88,10.88
				c6.01,0,10.88-4.87,10.88-10.88C1283.05,513.15,1278.18,508.28,1272.17,508.28z"/>
			<path class="st1" d="M1272.17,570.61c-6.01,0-10.88,4.87-10.88,10.88s4.87,10.88,10.88,10.88c6.01,0,10.88-4.87,10.88-10.88
				S1278.18,570.61,1272.17,570.61z"/>
			<path class="st1" d="M1272.17,632.95c-6.01,0-10.88,4.87-10.88,10.88c0,6.01,4.87,10.88,10.88,10.88
				c6.01,0,10.88-4.87,10.88-10.88C1283.05,637.82,1278.18,632.95,1272.17,632.95z"/>
			<path class="st1" d="M1272.17,695.28c-6.01,0-10.88,4.87-10.88,10.88s4.87,10.88,10.88,10.88c6.01,0,10.88-4.87,10.88-10.88
				S1278.18,695.28,1272.17,695.28z"/>
			<path class="st1" d="M1209.83,539.44c-6.01,0-10.88,4.87-10.88,10.88c0,6.01,4.87,10.88,10.88,10.88
				c6.01,0,10.88-4.87,10.88-10.88C1220.71,544.31,1215.84,539.44,1209.83,539.44z"/>
			<path class="st1" d="M1209.83,601.78c-6.01,0-10.88,4.87-10.88,10.88c0,6.01,4.87,10.88,10.88,10.88
				c6.01,0,10.88-4.87,10.88-10.88C1220.71,606.65,1215.84,601.78,1209.83,601.78z"/>
			<path class="st1" d="M1209.83,664.11c-6.01,0-10.88,4.87-10.88,10.88c0,6.01,4.87,10.88,10.88,10.88
				c6.01,0,10.88-4.87,10.88-10.88C1220.71,668.98,1215.84,664.11,1209.83,664.11z"/>
			<path class="st1" d="M1146.38,508.28c-6.01,0-10.88,4.87-10.88,10.88c0,6.01,4.87,10.88,10.88,10.88s10.88-4.87,10.88-10.88
				C1157.27,513.15,1152.39,508.28,1146.38,508.28z"/>
			<path class="st1" d="M1146.38,570.61c-6.01,0-10.88,4.87-10.88,10.88s4.87,10.88,10.88,10.88s10.88-4.87,10.88-10.88
				S1152.39,570.61,1146.38,570.61z"/>
			<path class="st1" d="M1146.38,695.28c-6.01,0-10.88,4.87-10.88,10.88s4.87,10.88,10.88,10.88s10.88-4.87,10.88-10.88
				S1152.39,695.28,1146.38,695.28z"/>
			<path class="st1" d="M1084.05,601.78c-6.01,0-10.88,4.87-10.88,10.88c0,6.01,4.87,10.88,10.88,10.88
				c6.01,0,10.88-4.87,10.88-10.88C1094.93,606.65,1090.06,601.78,1084.05,601.78z"/>
			<path class="st1" d="M847.79,1409.27H620.97l28.91-31.47c70.33-76.25,111.71-129.11,138.36-176.75
				c27.41-49,39.63-94.04,39.63-146.05c0-46.2-7.9-88.37-23.47-125.32c-15.53-36.84-38.71-68.57-68.89-94.31
				c-30.17-25.73-67.39-45.48-110.61-58.71c-43.59-13.35-93.49-20.11-148.34-20.11c-49.26,0-93.99,5.52-136.74,16.88
				c-35.44,9.42-70.52,23.08-110.38,43.01c-4.13,2.06-5.8,7.08-3.74,11.21c2.06,4.13,7.08,5.8,11.21,3.74
				c60.39-30.19,131.21-58.12,239.65-58.12c53.19,0,101.45,6.52,143.45,19.38c41.02,12.56,76.23,31.22,104.66,55.45
				c28.18,24.03,49.82,53.66,64.33,88.08c14.71,34.89,22.16,74.87,22.16,118.83c0,49-11.57,91.53-37.5,137.89
				c-25.97,46.43-66.66,98.34-136.07,173.59l-41.79,45.49c-2.24,2.44-2.83,5.98-1.5,9.01c1.33,3.03,4.33,4.99,7.65,4.99h237.49
				v243.88H694.6c-4.61,0-8.35,3.74-8.35,8.35s3.74,8.35,8.35,8.35h153.2c4.61,0,8.35-3.74,8.35-8.35v-260.59
				C856.15,1413,852.41,1409.27,847.79,1409.27z"/>
			<path class="st1" d="M1234.72,1015.92c-17.84,0-42.78,9.93-60.23,57.24c-13.7,37.13-20.64,90.57-20.64,158.84
				c0,4.61,3.74,8.35,8.35,8.35s8.35-3.74,8.35-8.35c0-65.35,6.78-118.28,19.61-153.06c7.79-21.13,21.85-46.32,44.56-46.32
				c23.43,0,37.75,25.2,45.65,46.35c13.11,35.11,19.75,86.59,19.75,153.03c0,65.23-6.64,115.77-19.74,150.23
				c-11.47,30.17-26.83,45.47-45.66,45.47c-4.61,0-8.35,3.74-8.35,8.35s3.74,8.35,8.35,8.35c32.98,0,51.53-30.59,61.28-56.25
				c13.82-36.36,20.83-88.9,20.83-156.16c0-68.44-7-121.89-20.81-158.87C1278.36,1025.84,1252.94,1015.92,1234.72,1015.92z"/>
		</g>
	</g>
</g>
</svg>
