<?xml version="1.0" encoding="utf-8"?>
<!-- Generator: Adobe Illustrator 24.0.3, SVG Export Plug-In . SVG Version: 6.00 Build 0)  -->
<svg version="1.1" xmlns="http://www.w3.org/2000/svg" xmlns:xlink="http://www.w3.org/1999/xlink" x="0px" y="0px"
	 viewBox="0 0 2000 2000" style="enable-background:new 0 0 2000 2000;" xml:space="preserve">

<g id="fill">
	<path class="st0" d="M1606.16,1417.33c-34.7-17-72.82-19.11-107.13-8.83l-6.93,2.29c-31.59,12.14-81.23-12.18-81.23-12.18
		L575.15,987.63c0,0-94.36-45.49-138.69-138.47c-1.71-3.58-3.34-7.24-4.89-10.96l-5.44-10.56c-20.84-36.84-55.79-64.54-103.56-75.55
		c-66.46-15.31-132.8,7.43-176.2,53.94l175.88,40.52c6.56,30.2,6.76,62.28-0.64,94.39c-7.4,32.11-21.61,60.87-40.72,85.15
		L105,985.57c18.68,60.82,68.39,110.29,134.84,125.6c32.97,7.6,63.93,5.37,91.41-4.64l4.75-1.84
		c90.38-19.75,170.25,23.58,170.25,23.58l835.72,410.98c0,0,49.64,24.31,59.41,56.72l0.7,2.11c12.31,35.42,38.05,66.19,74.39,83.99
		c73.11,35.81,161.4,5.57,197.21-67.53S1679.26,1453.13,1606.16,1417.33z M1619.64,1588.06l-37.51,38.71l-53.1,9.27l-48.41-23.71
		l-25.22-47.63l7.59-53.36l37.51-38.71l53.1-9.27l48.41,23.71l25.22,47.63L1619.64,1588.06z"/>
</g>
<g id="stroke">
	<g>
		<g>
			<path class="st1" d="M320.47,838.38c-4.51,0.98-7.37,5.43-6.39,9.94c6.53,30.08,6.32,60.61-0.62,90.74
				c-6.54,28.41-18.63,54.52-35.94,77.68l-170.65-39.31c-2.91-0.67-5.95,0.26-7.99,2.45c-2.03,2.19-2.75,5.29-1.87,8.14
				c9.75,31.75,27.64,60.61,51.74,83.47c24.83,23.56,55.68,40.09,89.21,47.81c0.63,0.15,1.26,0.21,1.88,0.21
				c3.8,0,7.24-2.62,8.13-6.48c1.04-4.5-1.77-8.98-6.27-10.02c-30.63-7.06-58.79-22.15-81.46-43.65
				c-18.41-17.47-32.86-38.78-42.31-62.25l161.06,37.1c3.15,0.73,6.44-0.43,8.44-2.98c20.57-26.14,34.8-55.9,42.3-88.44
				c7.5-32.55,7.72-65.53,0.66-98.04C329.43,840.27,324.97,837.41,320.47,838.38z"/>
			<path class="st1" d="M1609.39,1483.15c-0.83-1.56-2.12-2.82-3.71-3.59l-48.41-23.71c-1.58-0.78-3.37-1.03-5.11-0.73l-53.1,9.27
				c-1.74,0.3-3.33,1.15-4.56,2.42l-37.51,38.71c-1.23,1.27-2.02,2.89-2.27,4.64l-7.59,53.36c-0.25,1.75,0.06,3.53,0.89,5.09
				l25.22,47.63c0.83,1.56,2.12,2.82,3.71,3.59l48.41,23.71c1.15,0.56,2.41,0.85,3.67,0.85c0.48,0,0.96-0.04,1.44-0.12l53.1-9.27
				c1.74-0.3,3.33-1.15,4.56-2.42l37.51-38.71c1.23-1.27,2.02-2.89,2.27-4.64l7.59-53.36c0.25-1.75-0.06-3.53-0.89-5.09
				L1609.39,1483.15z M1611.75,1584.2l-33.73,34.81l-47.75,8.34l-43.53-21.32l-22.68-42.84l6.83-47.99l33.73-34.81l47.75-8.34
				l43.53,21.32l22.68,42.84L1611.75,1584.2z"/>
			<path class="st1" d="M1688.67,1499.24c-13.48-39.36-41.48-71.11-78.84-89.41c-37.36-18.3-79.61-20.96-118.97-7.48
				c-1.19,0.41-2.37,0.83-3.54,1.26c-27.94,9.12-72.33-12.29-72.77-12.5L578.78,980.1c-0.25-0.12-25.23-12.32-54.85-36.34
				c-25.42-20.62-59.27-54.2-80.59-99.6c-4.42-10.96-9.88-21.36-16.37-31.08c-23.48-35.18-58.93-59.09-102.53-69.13
				c-33.53-7.72-68.5-6.35-101.14,3.96c-31.67,10.01-60.39,28.14-83.05,52.42c-3.15,3.37-2.96,8.66,0.41,11.81
				c3.37,3.15,8.66,2.96,11.81-0.41c20.7-22.18,46.94-38.74,75.87-47.89c29.79-9.42,61.73-10.67,92.35-3.61
				c39.37,9.07,71.32,30.55,92.38,62.12c4,5.99,7.56,12.27,10.69,18.8c0.03,0.09,0.06,0.17,0.09,0.26c1.31,3.14,2.68,6.23,4.1,9.27
				c9.75,24.3,13.86,51.71,11.96,80.79c-0.37,5.72-0.99,11.54-1.83,17.3c-0.88,6.04-2.04,12.17-3.43,18.21
				c-1.04,4.5,1.77,8.98,6.26,10.02c0.63,0.15,1.26,0.22,1.88,0.22c3.8,0,7.24-2.61,8.13-6.48c1.49-6.48,2.73-13.06,3.68-19.55
				c0.91-6.2,1.57-12.47,1.97-18.63c0.78-11.95,0.61-23.66-0.46-35.04c18.97,25.46,40.19,45.4,57.66,59.53
				c8.76,7.09,17.08,13.16,24.54,18.25c-6.04,0.26-10.85,5.22-10.85,11.32c0,6.26,5.08,11.34,11.34,11.34
				c6.26,0,11.34-5.08,11.34-11.34c0-1.44-0.28-2.8-0.76-4.07c12.96,8.15,21.49,12.3,22.07,12.58l28.28,13.91
				c-3.64,1.89-6.14,5.68-6.14,10.07c0,6.26,5.08,11.34,11.34,11.34c6.26,0,11.34-5.08,11.34-11.34c0-0.69-0.07-1.37-0.19-2.03
				l49.16,24.18c-3.94,1.78-6.69,5.73-6.69,10.33c0,6.26,5.08,11.34,11.34,11.34c6.26,0,11.34-5.08,11.34-11.34
				c0-0.9-0.12-1.78-0.32-2.62l50.41,24.79c-3.92,1.79-6.65,5.73-6.65,10.32c0,6.26,5.08,11.34,11.34,11.34
				c6.26,0,11.34-5.08,11.34-11.34c0-0.89-0.11-1.75-0.31-2.58l49.83,24.5c-4.23,1.65-7.23,5.75-7.23,10.56
				c0,6.26,5.08,11.34,11.34,11.34c6.26,0,11.34-5.08,11.34-11.34c0-1.11-0.17-2.18-0.46-3.19l51.1,25.13
				c-4.21,1.66-7.19,5.75-7.19,10.55c0,6.26,5.08,11.34,11.34,11.34c6.26,0,11.34-5.08,11.34-11.34c0-1.1-0.16-2.15-0.45-3.15
				l50.56,24.86c-4.54,1.48-7.82,5.74-7.82,10.78c0,6.26,5.08,11.34,11.34,11.34c6.26,0,11.34-5.08,11.34-11.34
				c0-1.33-0.24-2.6-0.66-3.79l51.88,25.51c-4.51,1.5-7.77,5.74-7.77,10.76c0,6.26,5.08,11.34,11.34,11.34
				c6.26,0,11.34-5.08,11.34-11.34c0-1.32-0.24-2.57-0.65-3.75l51.39,25.27c-4.87,1.28-8.46,5.69-8.46,10.96
				c0,6.26,5.08,11.34,11.34,11.34c6.26,0,11.34-5.08,11.34-11.34c0-1.56-0.32-3.05-0.89-4.4l50.59,24.88
				c-3.71,1.87-6.25,5.69-6.25,10.13c0,6.26,5.08,11.34,11.34,11.34c6.26,0,11.34-5.08,11.34-11.34c0-0.74-0.08-1.45-0.21-2.15
				l49.3,24.24c-4,1.75-6.8,5.74-6.8,10.39c0,6.26,5.08,11.34,11.34,11.34s11.34-5.08,11.34-11.34c0-0.95-0.13-1.87-0.35-2.75
				l50.56,24.87c-3.98,1.76-6.77,5.74-6.77,10.37c0,6.26,5.08,11.34,11.34,11.34s11.34-5.08,11.34-11.34c0-0.94-0.13-1.84-0.34-2.71
				l52.08,25.61c-3.18,2.01-5.3,5.55-5.3,9.59c0,6.26,5.08,11.34,11.34,11.34s11.34-5.08,11.34-11.34c0-0.36-0.02-0.71-0.05-1.07
				l48.77,23.98c-3.16,2.01-5.27,5.54-5.27,9.57c0,6.26,5.08,11.34,11.34,11.34c6.26,0,11.34-5.08,11.34-11.34
				c0-0.35-0.02-0.69-0.05-1.03l0.2,0.1c1.37,0.67,22.4,10.83,46.43,14.8c-22.13,15.02-40.09,35.6-52.17,60.28
				c-4.33,8.83-7.83,18.08-10.4,27.48c-1.22,4.45,1.4,9.04,5.85,10.26c4.45,1.22,9.04-1.4,10.26-5.85c2.3-8.4,5.43-16.66,9.3-24.55
				c16-32.67,43.54-57.32,77.69-69.62c0.31-0.11,0.64-0.21,0.95-0.33c0.02-0.01,0.03-0.02,0.05-0.02c0.38-0.13,0.75-0.27,1.13-0.4
				c35.14-12.03,72.86-9.66,106.21,6.67c33.35,16.34,58.35,44.68,70.38,79.82c12.03,35.14,9.66,72.86-6.67,106.21
				c-2.03,4.14-0.32,9.15,3.83,11.18c1.18,0.58,2.43,0.85,3.67,0.85c3.09,0,6.06-1.72,7.51-4.68
				C1699.49,1580.84,1702.15,1538.59,1688.67,1499.24z"/>
			<circle class="st1" cx="932.12" cy="1246.49" r="11.34"/>
			<path class="st1" d="M867.15,1202.67c-6.26,0-11.34,5.08-11.34,11.34c0,6.26,5.08,11.34,11.34,11.34
				c6.26,0,11.34-5.08,11.34-11.34C878.49,1207.74,873.41,1202.67,867.15,1202.67z"/>
			<path class="st1" d="M801.01,1170.18c-6.26,0-11.34,5.08-11.34,11.34c0,6.26,5.08,11.34,11.34,11.34
				c6.26,0,11.34-5.08,11.34-11.34C812.36,1175.26,807.28,1170.18,801.01,1170.18z"/>
			<path class="st1" d="M736.04,1137.7c-6.26,0-11.34,5.08-11.34,11.34c0,6.26,5.08,11.34,11.34,11.34
				c6.26,0,11.34-5.08,11.34-11.34C747.39,1142.77,742.31,1137.7,736.04,1137.7z"/>
			<circle class="st1" cx="669.91" cy="1116.55" r="11.34"/>
			<circle class="st1" cx="604.94" cy="1084.07" r="11.34"/>
			<circle class="st1" cx="538.81" cy="1051.58" r="11.34"/>
			<path class="st1" d="M473.84,1007.75c-6.26,0-11.34,5.08-11.34,11.34s5.08,11.34,11.34,11.34c6.26,0,11.34-5.08,11.34-11.34
				S480.11,1007.75,473.84,1007.75z"/>
			
				<ellipse transform="matrix(0.9871 -0.1602 0.1602 0.9871 -209.1064 220.0696)" class="st1" cx="1260.45" cy="1407.04" rx="11.34" ry="11.34"/>
			<circle class="st1" cx="1194.32" cy="1374.55" r="11.34"/>
			
				<ellipse transform="matrix(0.9871 -0.1602 0.1602 0.9871 -200.3921 198.2306)" class="st1" cx="1129.35" cy="1342.07" rx="11.34" ry="11.34"/>
			<circle class="st1" cx="1063.22" cy="1309.58" r="11.34"/>
			<path class="st1" d="M998.25,1265.75c-6.26,0-11.34,5.08-11.34,11.34c0,6.26,5.08,11.34,11.34,11.34
				c6.26,0,11.34-5.08,11.34-11.34C1009.59,1270.83,1004.51,1265.75,998.25,1265.75z"/>
			
				<ellipse transform="matrix(0.9871 -0.1602 0.1602 0.9871 -213.4175 231.5605)" class="st1" cx="1329.57" cy="1439.52" rx="11.34" ry="11.34"/>
		</g>
	</g>
</g>
</svg>
