<?xml version="1.0" encoding="utf-8"?>
<!-- Generator: Adobe Illustrator 24.0.3, SVG Export Plug-In . SVG Version: 6.00 Build 0)  -->
<svg version="1.1" xmlns="http://www.w3.org/2000/svg" xmlns:xlink="http://www.w3.org/1999/xlink" x="0px" y="0px"
	 viewBox="0 0 2000 2000" style="enable-background:new 0 0 2000 2000;" xml:space="preserve">

<g id="fill">
	<g>
		
			<ellipse transform="matrix(0.9975 -0.0709 0.0709 0.9975 -45.1183 91.7997)" class="st0" cx="1270.78" cy="681.56" rx="90.18" ry="90.18"/>
		<path class="st0" d="M1684.29,1036.41l-78.28-19.22c38.02-19.03,64.13-58.33,64.13-103.74c0-64.03-51.91-115.94-115.94-115.94
			s-115.94,51.91-115.94,115.94c0,25.38,8.16,48.86,22,67.95l-412.94-101.4l-670.32,472.63l636.04,156.19l-0.33,0.23l-636.97-156.42
			v180.36l637.4,153.42c21.62,4.89,45.03,12.92,69.31-4.18c47.51-33.47,10.43-86.11,57.94-119.58
			c47.51-33.47,84.59,19.17,132.1-14.29c47.51-33.47,10.43-86.11,57.94-119.58c47.52-33.48,84.61,19.17,132.13-14.31
			c47.5-33.46,10.41-86.1,57.91-119.56c47.54-33.49,84.62,19.15,132.16-14.33c26.69-18.8,26.73-43.62,30.03-67.7l0.39-175.56
			L1684.29,1036.41z"/>
		<path class="st0" d="M472.07,1119.57c0-49.8-40.37-90.18-90.18-90.18s-90.18,40.37-90.18,90.18c0,24.9,10.09,47.45,26.41,63.77
			c16.32,16.32,38.86,26.41,63.77,26.41C431.69,1209.75,472.07,1169.37,472.07,1119.57z"/>
	</g>
</g>
<g id="stroke">
	<g>
		<g>
			<path class="st1" d="M1639.85,913.45c0-47.23-38.42-85.65-85.65-85.65c-4.61,0-8.35,3.74-8.35,8.35s3.74,8.35,8.35,8.35
				c38.02,0,68.94,30.93,68.94,68.94c0,4.61,3.74,8.35,8.35,8.35S1639.85,918.06,1639.85,913.45z"/>
			<path class="st1" d="M1270.78,780.09c54.33,0,98.53-44.2,98.53-98.53c0-54.33-44.2-98.53-98.53-98.53
				c-54.33,0-98.53,44.2-98.53,98.53C1172.25,735.89,1216.45,780.09,1270.78,780.09z M1270.78,599.74
				c45.12,0,81.83,36.71,81.83,81.82c0,45.12-36.71,81.83-81.83,81.83c-45.12,0-81.82-36.71-81.82-81.83
				C1188.96,636.44,1225.67,599.74,1270.78,599.74z"/>
			<path class="st1" d="M1270.78,638.38c23.81,0,43.18,19.37,43.18,43.18c0,4.61,3.74,8.35,8.35,8.35s8.35-3.74,8.35-8.35
				c0-33.02-26.86-59.88-59.88-59.88c-4.61,0-8.35,3.74-8.35,8.35S1266.17,638.38,1270.78,638.38z"/>
			<path class="st1" d="M1015.09,1678.28l-272.96-65.7c-4.48-1.08-9,1.68-10.08,6.17c-1.08,4.49,1.68,9,6.17,10.08l272.96,65.7
				c0.66,0.16,1.31,0.23,1.96,0.23c3.77,0,7.19-2.57,8.11-6.4C1022.33,1683.87,1019.57,1679.36,1015.09,1678.28z"/>
			<path class="st1" d="M381.89,1021.04c-54.33,0-98.53,44.2-98.53,98.53c0,26.32,10.25,51.06,28.86,69.67
				c18.61,18.61,43.35,28.86,69.67,28.86c54.33,0,98.53-44.2,98.53-98.53S436.22,1021.04,381.89,1021.04z M381.89,1201.39
				c-21.86,0-42.4-8.51-57.86-23.96c-15.46-15.46-23.97-36-23.97-57.86c0-45.12,36.71-81.82,81.82-81.82
				c45.12,0,81.83,36.71,81.83,81.82S427.01,1201.39,381.89,1201.39z"/>
			<path class="st1" d="M381.89,1059.68c-4.61,0-8.35,3.74-8.35,8.35s3.74,8.35,8.35,8.35c23.81,0,43.18,19.37,43.18,43.18
				c0,4.61,3.74,8.35,8.35,8.35s8.35-3.74,8.35-8.35C441.77,1086.55,414.91,1059.68,381.89,1059.68z"/>
			<path class="st1" d="M1686.28,1028.3l-58.89-14.46c30.95-22.63,51.1-59.2,51.1-100.39c0-68.54-55.76-124.3-124.3-124.3
				s-124.3,55.76-124.3,124.3c0,19.76,4.64,38.45,12.88,55.06l-393.48-96.63c-2.35-0.58-4.83-0.11-6.81,1.29l-211.27,148.96
				c-3.77,2.66-4.67,7.87-2.01,11.64c2.66,3.77,7.87,4.67,11.64,2.01l65.58-46.24c0.13,1.94,0.77,3.87,1.98,5.57
				c3.49,4.89,10.28,6.04,15.18,2.55c4.89-3.49,6.04-10.28,2.55-15.18c-1.19-1.67-2.77-2.89-4.52-3.65l87.32-61.57
				c0.23,1.7,0.86,3.37,1.92,4.86c3.49,4.89,10.28,6.04,15.18,2.55c4.89-3.49,6.04-10.28,2.55-15.18c-1.04-1.46-2.38-2.58-3.87-3.35
				l24.31-17.14l33.41,8.21c-2.1,3.58-2.05,8.21,0.52,11.82c3.49,4.9,10.28,6.04,15.18,2.55c3.13-2.23,4.72-5.82,4.55-9.39
				l259.98,63.84c-1.58,3.43-1.34,7.59,1.01,10.89c3.49,4.89,10.28,6.04,15.18,2.55c2.83-2.01,4.39-5.13,4.55-8.34l72.04,17.69
				c4.11,5.38,8.65,10.41,13.57,15.05c-2.91,3.7-3.18,9.01-0.31,13.04c3.49,4.89,10.28,6.04,15.18,2.55c0.85-0.61,1.58-1.32,2.2-2.1
				c19.58,12.88,43,20.39,68.14,20.39c18.82,0,36.68-4.21,52.69-11.74l35.51,8.72c-1.5,3.4-1.24,7.48,1.08,10.72
				c1.57,2.2,3.8,3.63,6.24,4.24l-88.95,62.72c0.06-2.28-0.58-4.6-2-6.6c-3.49-4.89-10.28-6.04-15.18-2.55
				c-4.89,3.49-6.04,10.28-2.55,15.18c1.4,1.97,3.34,3.32,5.48,4.02l-88.19,62.18c-0.09-2.03-0.74-4.06-2-5.84
				c-3.49-4.89-10.28-6.04-15.18-2.55c-4.89,3.49-6.04,10.28-2.55,15.18c1.25,1.75,2.92,3.01,4.77,3.76l-87.54,61.72
				c-0.2-1.79-0.83-3.55-1.95-5.12c-3.49-4.89-10.28-6.04-15.18-2.55c-4.89,3.49-6.04,10.28-2.55,15.18c1.09,1.54,2.52,2.7,4.1,3.47
				l-90.22,63.61c-0.27-1.54-0.87-3.05-1.84-4.42c-3.49-4.89-10.28-6.04-15.18-2.55c-4.89,3.49-6.04,10.28-2.55,15.18
				c0.95,1.33,2.15,2.37,3.48,3.13l-86.49,60.98c-0.32-1.31-0.88-2.59-1.71-3.75c-3.49-4.89-10.28-6.04-15.18-2.55
				c-4.89,3.49-6.04,10.28-2.55,15.18c0.81,1.14,1.8,2.06,2.9,2.78l-86.08,60.7c-0.33-1.09-0.84-2.14-1.53-3.12
				c-3.49-4.89-10.28-6.04-15.18-2.55c-4.89,3.49-6.04,10.28-2.55,15.18c0.67,0.95,1.47,1.75,2.36,2.41l-13.74,9.68
				c-0.35-0.04-0.71-0.08-1.07-0.08c-1.86,0-3.57,0.61-4.96,1.64l-31.81-7.81c0.33-2.62-0.27-5.37-1.92-7.69
				c-3.49-4.89-10.28-6.04-15.18-2.55c-1.85,1.32-3.16,3.1-3.89,5.08l-259.64-63.76c0.07-2.3-0.56-4.64-2-6.66
				c-3.49-4.89-10.28-6.04-15.18-2.55c-1.55,1.1-2.72,2.54-3.49,4.13l-30.69-7.54c-4.48-1.1-9,1.64-10.1,6.12
				c-1.1,4.48,1.64,9,6.12,10.1l364.38,89.48v93.41c0,4.61,3.74,8.35,8.35,8.35s8.35-3.74,8.35-8.35v-96.03l653.15-460.52
				l-0.35,159.74c-0.33,2.47-0.64,4.95-0.94,7.43c-2.57,21.14-4.8,39.39-25.55,54.01c-20.73,14.61-38.66,10.55-59.42,5.85
				c-21.53-4.87-45.93-10.4-72.73,8.48c-26.78,18.87-29.79,43.7-32.44,65.6c-2.55,21.12-4.76,39.36-25.47,53.95
				c-20.73,14.6-38.65,10.54-59.41,5.84c-21.53-4.88-45.92-10.4-72.72,8.47c-26.79,18.87-29.8,43.71-32.45,65.61
				c-2.56,21.12-4.77,39.37-25.49,53.96c-3.77,2.66-4.68,7.87-2.02,11.64c1.63,2.31,4.21,3.54,6.84,3.54c1.66,0,3.34-0.5,4.8-1.52
				c26.79-18.87,29.8-43.71,32.45-65.61c2.56-21.12,4.77-39.37,25.49-53.96c20.73-14.6,38.65-10.54,59.41-5.84
				c21.53,4.87,45.92,10.4,72.72-8.47c26.78-18.87,29.79-43.7,32.44-65.6c2.55-21.12,4.76-39.36,25.47-53.95
				c20.73-14.61,38.66-10.55,59.42-5.85c21.53,4.87,45.93,10.4,72.73-8.49c26.82-18.89,29.84-43.73,32.51-65.65
				c0.31-2.58,0.63-5.17,0.98-7.75c0.05-0.37,0.08-0.74,0.08-1.11l0.38-172.05c0.46-0.73,0.81-1.55,1.03-2.43
				C1693.5,1033.92,1690.76,1029.4,1686.28,1028.3z M1446.61,913.45c0-59.33,48.26-107.59,107.59-107.59
				c59.33,0,107.59,48.26,107.59,107.59s-48.26,107.59-107.59,107.59C1494.88,1021.04,1446.61,972.77,1446.61,913.45z
				 M1663.19,1039.83l0.36,0.09l-0.4,0.28C1663.16,1040.08,1663.18,1039.96,1663.19,1039.83z"/>
			<path class="st1" d="M1049.58,957.72c-4.89,3.49-6.04,10.28-2.55,15.18s10.28,6.04,15.18,2.55c4.89-3.49,6.04-10.28,2.55-15.18
				C1061.27,955.37,1054.47,954.23,1049.58,957.72z"/>
			<path class="st1" d="M1085.75,1008.49c-4.89,3.49-6.04,10.28-2.55,15.18s10.28,6.04,15.18,2.55s6.04-10.28,2.55-15.18
				C1097.44,1006.14,1090.64,1005,1085.75,1008.49z"/>
			<path class="st1" d="M1121.92,1059.25c-4.89,3.49-6.04,10.28-2.55,15.18s10.28,6.04,15.18,2.55c4.89-3.49,6.04-10.28,2.55-15.18
				C1133.61,1056.91,1126.81,1055.77,1121.92,1059.25z"/>
			<path class="st1" d="M1158.09,1110.02c-4.89,3.49-6.04,10.28-2.55,15.18s10.28,6.04,15.18,2.55s6.04-10.28,2.55-15.18
				C1169.78,1107.68,1162.98,1106.53,1158.09,1110.02z"/>
			
				<ellipse transform="matrix(0.4926 -0.8703 0.8703 0.4926 -408.7223 1638.2983)" class="st1" cx="1200.57" cy="1169.65" rx="10.88" ry="10.88"/>
			
				<ellipse transform="matrix(0.9814 -0.1919 0.1919 0.9814 -211.2109 260.0103)" class="st1" cx="1236.74" cy="1220.42" rx="10.88" ry="10.88"/>
			
				<ellipse transform="matrix(0.9998 -0.0202 0.0202 0.9998 -25.4667 26.0227)" class="st1" cx="1272.91" cy="1271.19" rx="10.88" ry="10.88"/>
			
				<ellipse transform="matrix(0.1641 -0.9864 0.9864 0.1641 -140.4672 1790.2585)" class="st1" cx="986.13" cy="978.01" rx="10.88" ry="10.88"/>
			<path class="st1" d="M1015.99,1019.92c-4.89,3.49-6.04,10.28-2.55,15.18c3.49,4.9,10.28,6.04,15.18,2.55
				c4.89-3.49,6.04-10.28,2.55-15.18S1020.88,1016.43,1015.99,1019.92z"/>
			<path class="st1" d="M1052.16,1070.69c-4.89,3.49-6.04,10.28-2.55,15.18c3.49,4.9,10.28,6.04,15.18,2.55
				c4.89-3.49,6.04-10.28,2.55-15.18S1057.05,1067.2,1052.16,1070.69z"/>
			<path class="st1" d="M1088.33,1121.45c-4.89,3.49-6.04,10.28-2.55,15.18c3.49,4.9,10.28,6.04,15.18,2.55
				c4.89-3.49,6.04-10.28,2.55-15.18S1093.23,1117.97,1088.33,1121.45z"/>
			<path class="st1" d="M1124.5,1172.22c-4.89,3.49-6.04,10.28-2.55,15.18c3.49,4.89,10.28,6.04,15.18,2.55
				c4.89-3.49,6.04-10.28,2.55-15.18S1129.4,1168.73,1124.5,1172.22z"/>
			<path class="st1" d="M1160.67,1222.99c-4.89,3.49-6.04,10.28-2.55,15.18c3.49,4.89,10.28,6.04,15.18,2.55s6.04-10.28,2.55-15.18
				C1172.36,1220.64,1165.57,1219.5,1160.67,1222.99z"/>
			<path class="st1" d="M1196.84,1273.76c-4.89,3.49-6.04,10.28-2.55,15.18c3.49,4.89,10.28,6.04,15.18,2.55
				c4.89-3.49,6.04-10.28,2.55-15.18C1208.53,1271.41,1201.74,1270.27,1196.84,1273.76z"/>
			<path class="st1" d="M947.14,1030.71c-4.89,3.49-6.04,10.28-2.55,15.18s10.28,6.04,15.18,2.55c4.89-3.49,6.04-10.28,2.55-15.18
				C958.83,1028.36,952.03,1027.22,947.14,1030.71z"/>
			<path class="st1" d="M983.31,1081.47c-4.89,3.49-6.04,10.28-2.55,15.18c3.49,4.89,10.28,6.04,15.18,2.55
				c4.89-3.49,6.04-10.28,2.55-15.18C995,1079.13,988.2,1077.99,983.31,1081.47z"/>
			
				<ellipse transform="matrix(0.2219 -0.9751 0.9751 0.2219 -314.4967 1888.0919)" class="st1" cx="1025.79" cy="1141.1" rx="10.88" ry="10.88"/>
			
				<ellipse transform="matrix(0.7767 -0.6299 0.6299 0.7767 -513.6001 935.1155)" class="st1" cx="1061.96" cy="1191.87" rx="10.88" ry="10.88"/>
			
				<ellipse transform="matrix(0.9998 -0.0202 0.0202 0.9998 -24.9247 22.4795)" class="st1" cx="1098.13" cy="1242.64" rx="10.88" ry="10.88"/>
			<path class="st1" d="M1127.99,1284.54c-4.89,3.49-6.04,10.28-2.55,15.18c3.49,4.9,10.28,6.04,15.18,2.55
				c4.89-3.49,6.04-10.28,2.55-15.18S1132.88,1281.06,1127.99,1284.54z"/>
			<path class="st1" d="M1164.16,1335.31c-4.89,3.49-6.04,10.28-2.55,15.18c3.49,4.9,10.28,6.04,15.18,2.55s6.04-10.28,2.55-15.18
				S1169.05,1331.82,1164.16,1335.31z"/>
			<path class="st1" d="M877.38,1042.14c-4.89,3.49-6.04,10.28-2.55,15.18c3.49,4.9,10.28,6.04,15.18,2.55
				c4.89-3.49,6.04-10.28,2.55-15.18S882.27,1038.65,877.38,1042.14z"/>
			<path class="st1" d="M913.55,1092.91c-4.89,3.49-6.04,10.28-2.55,15.18c3.49,4.9,10.28,6.04,15.18,2.55
				c4.89-3.49,6.04-10.28,2.55-15.18S918.44,1089.42,913.55,1092.91z"/>
			<path class="st1" d="M949.72,1143.67c-4.89,3.49-6.04,10.28-2.55,15.18c3.49,4.89,10.28,6.04,15.18,2.55
				c4.89-3.49,6.04-10.28,2.55-15.18S954.61,1140.19,949.72,1143.67z"/>
			<path class="st1" d="M985.89,1194.44c-4.89,3.49-6.04,10.28-2.55,15.18c3.49,4.89,10.28,6.04,15.18,2.55s6.04-10.28,2.55-15.18
				C997.58,1192.09,990.78,1190.95,985.89,1194.44z"/>
			<path class="st1" d="M1022.06,1245.21c-4.89,3.49-6.04,10.28-2.55,15.18c3.49,4.89,10.28,6.04,15.18,2.55
				c4.89-3.49,6.04-10.28,2.55-15.18C1033.75,1242.86,1026.95,1241.72,1022.06,1245.21z"/>
			<path class="st1" d="M1058.23,1295.98c-4.89,3.49-6.04,10.28-2.55,15.18c3.49,4.89,10.28,6.04,15.18,2.55
				c4.89-3.49,6.04-10.28,2.55-15.18C1069.92,1293.63,1063.12,1292.49,1058.23,1295.98z"/>
			
				<ellipse transform="matrix(0.999 -0.0456 0.0456 0.999 -60.6931 51.6227)" class="st1" cx="1100.71" cy="1355.61" rx="10.88" ry="10.88"/>
			<path class="st1" d="M821.15,1070.65c4.89-3.49,6.04-10.28,2.55-15.18c-3.49-4.9-10.28-6.04-15.18-2.55
				c-4.89,3.49-6.04,10.28-2.55,15.18S816.26,1074.14,821.15,1070.65z"/>
			
				<ellipse transform="matrix(0.041 -0.9992 0.9992 0.041 -295.4757 1917.2693)" class="st1" cx="851.01" cy="1112.55" rx="10.88" ry="10.88"/>
			
				<ellipse transform="matrix(0.041 -0.9992 0.9992 0.041 -311.5123 2002.0969)" class="st1" cx="887.18" cy="1163.32" rx="10.88" ry="10.88"/>
			<path class="st1" d="M917.04,1205.23c-4.89,3.49-6.04,10.28-2.55,15.18c3.49,4.9,10.28,6.04,15.18,2.55s6.04-10.28,2.55-15.18
				C928.73,1202.88,921.93,1201.74,917.04,1205.23z"/>
			<path class="st1" d="M953.21,1255.99c-4.89,3.49-6.04,10.28-2.55,15.18c3.49,4.9,10.28,6.04,15.18,2.55
				c4.89-3.49,6.04-10.28,2.55-15.18C964.9,1253.65,958.1,1252.51,953.21,1255.99z"/>
			<path class="st1" d="M989.38,1306.76c-4.89,3.49-6.04,10.28-2.55,15.18c3.49,4.9,10.28,6.04,15.18,2.55
				c4.89-3.49,6.04-10.28,2.55-15.18S994.27,1303.27,989.38,1306.76z"/>
			<path class="st1" d="M1025.55,1357.53c-4.89,3.49-6.04,10.28-2.55,15.18c3.49,4.9,10.28,6.04,15.18,2.55
				c4.89-3.49,6.04-10.28,2.55-15.18S1030.44,1354.04,1025.55,1357.53z"/>
			<path class="st1" d="M1061.72,1408.3c-4.89,3.49-6.04,10.28-2.55,15.18c3.49,4.89,10.28,6.04,15.18,2.55s6.04-10.28,2.55-15.18
				S1066.61,1404.81,1061.72,1408.3z"/>
			<path class="st1" d="M787.56,1132.85c4.89-3.49,6.04-10.28,2.55-15.18s-10.28-6.04-15.18-2.55c-4.89,3.49-6.04,10.28-2.55,15.18
				C775.88,1135.2,782.67,1136.34,787.56,1132.85z"/>
			<path class="st1" d="M811.11,1165.89c-4.89,3.49-6.04,10.28-2.55,15.18c3.49,4.89,10.28,6.04,15.18,2.55
				c4.89-3.49,6.04-10.28,2.55-15.18C822.8,1163.55,816,1162.4,811.11,1165.89z"/>
			<path class="st1" d="M847.28,1216.66c-4.89,3.49-6.04,10.28-2.55,15.18c3.49,4.89,10.28,6.04,15.18,2.55s6.04-10.28,2.55-15.18
				C858.97,1214.31,852.17,1213.17,847.28,1216.66z"/>
			<path class="st1" d="M883.45,1267.43c-4.89,3.49-6.04,10.28-2.55,15.18c3.49,4.89,10.28,6.04,15.18,2.55s6.04-10.28,2.55-15.18
				C895.14,1265.08,888.34,1263.94,883.45,1267.43z"/>
			<path class="st1" d="M919.62,1318.19c-4.89,3.49-6.04,10.28-2.55,15.18c3.49,4.89,10.28,6.04,15.18,2.55
				c4.89-3.49,6.04-10.28,2.55-15.18C931.31,1315.85,924.51,1314.71,919.62,1318.19z"/>
			<path class="st1" d="M955.79,1368.96c-4.89,3.49-6.04,10.28-2.55,15.18c3.49,4.89,10.28,6.04,15.18,2.55
				c4.89-3.49,6.04-10.28,2.55-15.18C967.48,1366.62,960.68,1365.47,955.79,1368.96z"/>
			<path class="st1" d="M991.96,1419.73c-4.89,3.49-6.04,10.28-2.55,15.18c3.49,4.89,10.28,6.04,15.18,2.55
				c4.89-3.49,6.04-10.28,2.55-15.18C1003.65,1417.38,996.85,1416.24,991.96,1419.73z"/>
			
				<ellipse transform="matrix(0.041 -0.9992 0.9992 0.041 -450.609 1800.0822)" class="st1" cx="712.4" cy="1134.77" rx="10.88" ry="10.88"/>
			
				<ellipse transform="matrix(0.1641 -0.9864 0.9864 0.1641 -543.7552 1729.3805)" class="st1" cx="748.57" cy="1185.54" rx="10.88" ry="10.88"/>
			<path class="st1" d="M778.42,1227.45c-4.89,3.49-6.04,10.28-2.55,15.18c3.49,4.9,10.28,6.04,15.18,2.55
				c4.89-3.49,6.04-10.28,2.55-15.18S783.32,1223.96,778.42,1227.45z"/>
			<path class="st1" d="M814.59,1278.21c-4.89,3.49-6.04,10.28-2.55,15.18c3.49,4.9,10.28,6.04,15.18,2.55s6.04-10.28,2.55-15.18
				S819.49,1274.73,814.59,1278.21z"/>
			<path class="st1" d="M850.76,1328.98c-4.89,3.49-6.04,10.28-2.55,15.18c3.49,4.9,10.28,6.04,15.18,2.55
				c4.89-3.49,6.04-10.28,2.55-15.18C862.45,1326.63,855.66,1325.49,850.76,1328.98z"/>
			<path class="st1" d="M886.93,1379.75c-4.89,3.49-6.04,10.28-2.55,15.18c3.49,4.89,10.28,6.04,15.18,2.55
				c4.89-3.49,6.04-10.28,2.55-15.18S891.83,1376.26,886.93,1379.75z"/>
			<path class="st1" d="M923.1,1430.52c-4.89,3.49-6.04,10.28-2.55,15.18c3.49,4.89,10.28,6.04,15.18,2.55
				c4.89-3.49,6.04-10.28,2.55-15.18S928,1427.03,923.1,1430.52z"/>
			<path class="st1" d="M685.12,1205.84c4.89-3.49,6.04-10.28,2.55-15.18c-3.49-4.89-10.28-6.04-15.18-2.55
				c-4.89,3.49-6.04,10.28-2.55,15.18C673.43,1208.18,680.23,1209.32,685.12,1205.84z"/>
			<path class="st1" d="M708.66,1238.88c-4.89,3.49-6.04,10.28-2.55,15.18c3.49,4.89,10.28,6.04,15.18,2.55
				c4.89-3.49,6.04-10.28,2.55-15.18C720.35,1236.53,713.56,1235.39,708.66,1238.88z"/>
			<path class="st1" d="M744.83,1289.65c-4.89,3.49-6.04,10.28-2.55,15.18c3.49,4.89,10.28,6.04,15.18,2.55s6.04-10.28,2.55-15.18
				C756.52,1287.3,749.73,1286.16,744.83,1289.65z"/>
			<path class="st1" d="M781.01,1340.41c-4.89,3.49-6.04,10.28-2.55,15.18c3.49,4.89,10.28,6.04,15.18,2.55s6.04-10.28,2.55-15.18
				C792.69,1338.07,785.9,1336.93,781.01,1340.41z"/>
			<path class="st1" d="M817.18,1391.18c-4.89,3.49-6.04,10.28-2.55,15.18c3.49,4.89,10.28,6.04,15.18,2.55
				c4.89-3.49,6.04-10.28,2.55-15.18C828.86,1388.83,822.07,1387.69,817.18,1391.18z"/>
			<path class="st1" d="M853.35,1441.95c-4.89,3.49-6.04,10.28-2.55,15.18s10.28,6.04,15.18,2.55c4.89-3.49,6.04-10.28,2.55-15.18
				C865.04,1439.6,858.24,1438.46,853.35,1441.95z"/>
			<path class="st1" d="M616.27,1216.62c4.89-3.49,6.04-10.28,2.55-15.18s-10.28-6.04-15.18-2.55c-4.89,3.49-6.04,10.28-2.55,15.18
				C604.58,1218.97,611.38,1220.11,616.27,1216.62z"/>
			<path class="st1" d="M652.44,1267.39c4.89-3.49,6.04-10.28,2.55-15.18s-10.28-6.04-15.18-2.55c-4.89,3.49-6.04,10.28-2.55,15.18
				C640.75,1269.74,647.55,1270.88,652.44,1267.39z"/>
			<path class="st1" d="M675.98,1300.43c-4.89,3.49-6.04,10.28-2.55,15.18c3.49,4.9,10.28,6.04,15.18,2.55s6.04-10.28,2.55-15.18
				S680.88,1296.94,675.98,1300.43z"/>
			<path class="st1" d="M712.15,1351.2c-4.89,3.49-6.04,10.28-2.55,15.18c3.49,4.89,10.28,6.04,15.18,2.55s6.04-10.28,2.55-15.18
				S717.05,1347.71,712.15,1351.2z"/>
			<path class="st1" d="M748.32,1401.97c-4.89,3.49-6.04,10.28-2.55,15.18c3.49,4.89,10.28,6.04,15.18,2.55
				c4.89-3.49,6.04-10.28,2.55-15.18S753.22,1398.48,748.32,1401.97z"/>
			<path class="st1" d="M582.68,1278.82c4.89-3.49,6.04-10.28,2.55-15.18c-3.49-4.89-10.28-6.04-15.18-2.55
				c-4.89,3.49-6.04,10.28-2.55,15.18C570.99,1281.17,577.79,1282.31,582.68,1278.82z"/>
			<path class="st1" d="M606.22,1311.86c-4.89,3.49-6.04,10.28-2.55,15.18c3.49,4.89,10.28,6.04,15.18,2.55
				c4.89-3.49,6.04-10.28,2.55-15.18C617.91,1309.52,611.12,1308.38,606.22,1311.86z"/>
			<path class="st1" d="M642.39,1362.63c-4.89,3.49-6.04,10.28-2.55,15.18c3.49,4.89,10.28,6.04,15.18,2.55s6.04-10.28,2.55-15.18
				C654.08,1360.29,647.29,1359.14,642.39,1362.63z"/>
			<path class="st1" d="M501.2,1271.88c-4.89,3.49-6.04,10.28-2.55,15.18c3.49,4.9,10.28,6.04,15.18,2.55
				c4.89-3.49,6.04-10.28,2.55-15.18S506.09,1268.4,501.2,1271.88z"/>
			<path class="st1" d="M537.37,1322.65c-4.89,3.49-6.04,10.28-2.55,15.18c3.49,4.89,10.28,6.04,15.18,2.55
				c4.89-3.49,6.04-10.28,2.55-15.18S542.26,1319.16,537.37,1322.65z"/>
			<path class="st1" d="M573.54,1373.42c-4.89,3.49-6.04,10.28-2.55,15.18c3.49,4.89,10.28,6.04,15.18,2.55s6.04-10.28,2.55-15.18
				S578.43,1369.93,573.54,1373.42z"/>
			
				<ellipse transform="matrix(0.0277 -0.9996 0.9996 0.0277 -881.6487 1779.4412)" class="st1" cx="473.93" cy="1342.95" rx="10.88" ry="10.88"/>
			<path class="st1" d="M1589.8,1058.78c4.89-3.49,6.04-10.28,2.55-15.18c-3.49-4.9-10.28-6.04-15.18-2.55
				c-4.89,3.49-6.04,10.28-2.55,15.18S1584.9,1062.27,1589.8,1058.78z"/>
			<path class="st1" d="M1520.04,1070.21c4.89-3.49,6.04-10.28,2.55-15.18s-10.28-6.04-15.18-2.55c-4.89,3.49-6.04,10.28-2.55,15.18
				C1508.35,1072.56,1515.14,1073.7,1520.04,1070.21z"/>
			<path class="st1" d="M1402.38,1012.51c-4.89,3.49-6.04,10.28-2.55,15.18s10.28,6.04,15.18,2.55c4.89-3.49,6.04-10.28,2.55-15.18
				C1414.07,1010.16,1407.28,1009.02,1402.38,1012.51z"/>
			<path class="st1" d="M1451.18,1081c4.89-3.49,6.04-10.28,2.55-15.18c-3.49-4.9-10.28-6.04-15.18-2.55
				c-4.89,3.49-6.04,10.28-2.55,15.18S1446.29,1084.49,1451.18,1081z"/>
			<path class="st1" d="M1487.35,1131.77c4.89-3.49,6.04-10.28,2.55-15.18c-3.49-4.9-10.28-6.04-15.18-2.55s-6.04,10.28-2.55,15.18
				C1475.66,1134.11,1482.46,1135.26,1487.35,1131.77z"/>
			<path class="st1" d="M1296.45,973.17c-4.89,3.49-6.04,10.28-2.55,15.18c3.49,4.89,10.28,6.04,15.18,2.55s6.04-10.28,2.55-15.18
				S1301.35,969.69,1296.45,973.17z"/>
			<path class="st1" d="M1332.62,1023.94c-4.89,3.49-6.04,10.28-2.55,15.18c3.49,4.89,10.28,6.04,15.18,2.55
				c4.89-3.49,6.04-10.28,2.55-15.18C1344.31,1021.59,1337.52,1020.45,1332.62,1023.94z"/>
			<path class="st1" d="M1368.8,1074.71c-4.89,3.49-6.04,10.28-2.55,15.18c3.49,4.89,10.28,6.04,15.18,2.55
				c4.89-3.49,6.04-10.28,2.55-15.18S1373.69,1071.22,1368.8,1074.71z"/>
			<path class="st1" d="M1404.97,1125.48c-4.89,3.49-6.04,10.28-2.55,15.18c3.49,4.89,10.28,6.04,15.18,2.55
				c4.89-3.49,6.04-10.28,2.55-15.18S1409.86,1121.99,1404.97,1125.48z"/>
			<path class="st1" d="M1191.43,933.19c-4.89,3.49-6.04,10.28-2.55,15.18c3.49,4.89,10.28,6.04,15.18,2.55s6.04-10.28,2.55-15.18
				C1203.12,930.84,1196.33,929.7,1191.43,933.19z"/>
			<path class="st1" d="M1227.6,983.96c-4.89,3.49-6.04,10.28-2.55,15.18s10.28,6.04,15.18,2.55c4.89-3.49,6.04-10.28,2.55-15.18
				C1239.29,981.61,1232.5,980.47,1227.6,983.96z"/>
			<path class="st1" d="M1263.77,1034.73c-4.89,3.49-6.04,10.28-2.55,15.18s10.28,6.04,15.18,2.55c4.89-3.49,6.04-10.28,2.55-15.18
				C1275.46,1032.38,1268.67,1031.24,1263.77,1034.73z"/>
			<path class="st1" d="M1299.94,1085.49c-4.89,3.49-6.04,10.28-2.55,15.18s10.28,6.04,15.18,2.55c4.89-3.49,6.04-10.28,2.55-15.18
				C1311.63,1083.15,1304.84,1082.01,1299.94,1085.49z"/>
			
				<ellipse transform="matrix(0.9814 -0.1919 0.1919 0.9814 -194.7978 278.8912)" class="st1" cx="1342.43" cy="1145.12" rx="10.88" ry="10.88"/>
			<path class="st1" d="M1372.28,1187.03c-4.89,3.49-6.04,10.28-2.55,15.18c3.49,4.9,10.28,6.04,15.18,2.55s6.04-10.28,2.55-15.18
				C1383.97,1184.68,1377.18,1183.54,1372.28,1187.03z"/>
			<path class="st1" d="M1121.67,944.62c-4.89,3.49-6.04,10.28-2.55,15.18c3.49,4.89,10.28,6.04,15.18,2.55s6.04-10.28,2.55-15.18
				S1126.57,941.14,1121.67,944.62z"/>
			<path class="st1" d="M1157.84,995.39c-4.89,3.49-6.04,10.28-2.55,15.18c3.49,4.89,10.28,6.04,15.18,2.55
				c4.89-3.49,6.04-10.28,2.55-15.18S1162.74,991.9,1157.84,995.39z"/>
			<path class="st1" d="M1194.01,1046.16c-4.89,3.49-6.04,10.28-2.55,15.18c3.49,4.89,10.28,6.04,15.18,2.55s6.04-10.28,2.55-15.18
				S1198.91,1042.67,1194.01,1046.16z"/>
			<path class="st1" d="M1230.18,1096.93c-4.89,3.49-6.04,10.28-2.55,15.18c3.49,4.89,10.28,6.04,15.18,2.55
				c4.89-3.49,6.04-10.28,2.55-15.18S1235.08,1093.44,1230.18,1096.93z"/>
			<path class="st1" d="M1266.35,1147.69c-4.89,3.49-6.04,10.28-2.55,15.18c3.49,4.89,10.28,6.04,15.18,2.55s6.04-10.28,2.55-15.18
				S1271.25,1144.21,1266.35,1147.69z"/>
			<path class="st1" d="M1302.52,1198.46c-4.89,3.49-6.04,10.28-2.55,15.18c3.49,4.89,10.28,6.04,15.18,2.55
				c4.89-3.49,6.04-10.28,2.55-15.18C1314.21,1196.12,1307.42,1194.97,1302.52,1198.46z"/>
		</g>
	</g>
</g>
</svg>
