<?xml version="1.0" encoding="utf-8"?>
<!-- Generator: Adobe Illustrator 24.0.3, SVG Export Plug-In . SVG Version: 6.00 Build 0)  -->
<svg class="logo-in-card" version="1.1" id="Layer_1" xmlns="http://www.w3.org/2000/svg" xmlns:xlink="http://www.w3.org/1999/xlink" x="0px" y="0px"
	 viewBox="0 0 499.2 779.2" style="enable-background:new 0 0 499.2 779.2;" xml:space="preserve">
<g>
	<path class="logo-letters-in-card" d="M439.9,692.5c-9.6,2.8-14.2,9.3-12.5,15.1c2.5,8.8,14.8,9.3,27.3,8.1c24.6-2.3,38.5,2.1,43.5,19.6
		c4.9,17.1-6.5,34.4-30.9,41.4c-16.6,4.8-38.7,4.5-54.1-17.1l14-15.5c8.4,14.4,21.3,19.2,35.6,15.1c11.9-3.4,18.3-10.5,16.3-17.5
		c-2-7.1-8.2-9.9-26.7-7.7c-21.3,2.7-38.5-1.7-44-20.9c-4.3-14.9,6-31.5,28-37.8c17.3-5,33.8-0.7,44.1,13.7l-13.8,14.4
		C460,692.9,451.3,689.2,439.9,692.5z"/>
	<path class="logo-letters-in-card" d="M258.4,755.6l-19.1,5.5l-28.4-99.2l46.7-13.4c22-6.3,36.7,5.1,41.3,21c4.4,15.3-1.8,33.6-23.8,39.9l-27.6,7.9
		L258.4,755.6z M268.6,692.1c8.5-2.4,13.2-8.9,10.9-16.9c-2.4-8.2-9.7-11-18.2-8.6l-26.2,7.5l7.3,25.5L268.6,692.1z"/>
	<path class="logo-letters-in-card" d="M129.8,506.8l5.1,17.7l-55.4,15.9l6.2,21.5l51.1-14.7l5.1,17.7l-51.1,14.7l7,24.5l56.8-16.3l5.1,17.7
		l-75.9,21.8l-28.4-99.2L129.8,506.8z"/>
	<path class="logo-letters-in-card" d="M74.5,301.1l5.1,17.7l-55.4,15.9l6.2,21.5l51.1-14.7l5.1,17.7l-51.1,14.7l7,24.5l56.8-16.3l5.1,17.7
		l-75.9,21.8L0,322.4L74.5,301.1z"/>
	<path class="logo-letters-in-card" d="M94.3,114.7l23.4,81.5l57.7-16.5l5.1,17.7l-76.8,22l-28.4-99.2L94.3,114.7z"/>
	<path class="logo-letters-in-card" d="M254,19.3c-9.6,2.8-14.2,9.3-12.5,15.1c2.5,8.8,14.8,9.3,27.3,8.1c24.6-2.3,38.5,2.1,43.5,19.6
		c4.9,17.1-6.5,34.4-30.9,41.4c-16.6,4.8-38.7,4.5-54.1-17.1l14-15.5c8.4,14.4,21.3,19.2,35.6,15.1c11.9-3.4,18.3-10.5,16.3-17.5
		c-2-7.1-8.2-9.9-26.7-7.7c-21.3,2.7-38.5-1.7-44-20.9c-4.3-14.9,6-31.5,28-37.8c17.3-5,33.8-0.7,44.1,13.7l-13.8,14.4
		C274.2,19.6,265.5,16,254,19.3z"/>
</g>
</svg>