<?xml version="1.0" encoding="utf-8"?>
<!-- Generator: Adobe Illustrator 24.0.3, SVG Export Plug-In . SVG Version: 6.00 Build 0)  -->
<svg version="1.1" xmlns="http://www.w3.org/2000/svg" xmlns:xlink="http://www.w3.org/1999/xlink" x="0px" y="0px"
	 viewBox="0 0 2000 2000" style="enable-background:new 0 0 2000 2000;" xml:space="preserve">

<style type="text/css">
	<!--fill colour--> .st0{fill:#bf8776;}
	<!--stroke colour--> .st1{fill:#f1ede3;}
</style>

<g id="fill">
	<path class="st0" d="M1417.94,782.42c-31.25,0-61.23,6.19-89.1,17.45V642.41c0-63.27-188.06-114.56-420.04-114.56
		c-231.98,0-420.04,51.29-420.04,114.56v929.19c0,63.27,188.06,114.56,420.04,114.56c231.98,0,420.04-51.29,420.04-114.56v-195.65
		c27.88,11.26,57.85,17.45,89.1,17.45c147.63,0,267.3-136.77,267.3-305.49S1565.57,782.42,1417.94,782.42z M1427.39,1321.95
		c-37.38,0-71.69-19.72-98.56-52.6V906.46c26.87-32.88,61.18-52.6,98.56-52.6c86.17,0,156.03,104.78,156.03,234.04
		C1583.41,1217.16,1513.56,1321.95,1427.39,1321.95z"/>
</g>
<g id="stroke">
	<g>
		<g>
			<path class="st1" d="M1613.24,866.4c-52.1-59.54-121.45-92.33-195.3-92.33c-27.5,0-54.6,4.62-80.75,13.74v-145.4
				c0-18.49-12.39-35.85-36.84-51.61c-21.88-14.11-52.95-26.71-92.35-37.45c-80.03-21.83-186.29-33.85-299.21-33.85
				c-4.61,0-8.35,3.74-8.35,8.35s3.74,8.35,8.35,8.35c81.15,0,158.71,6.27,225.24,17.95c-0.36,1.08-0.56,2.23-0.56,3.43
				c0,6.01,4.87,10.88,10.88,10.88c5.83,0,10.57-4.58,10.85-10.34c17.01,3.41,33.2,7.19,48.41,11.34
				c73.18,19.96,116.87,47.23,116.87,72.95s-43.69,52.99-116.87,72.95c-78.64,21.45-183.34,33.26-294.82,33.26
				c-73.1,0-145-5.22-207.93-15.1c-4.55-0.71-8.83,2.4-9.55,6.96c-0.72,4.56,2.4,8.83,6.96,9.55
				c63.77,10.01,136.57,15.3,210.52,15.3c112.92,0,219.18-12.02,299.21-33.85c39.4-10.75,70.47-23.35,92.35-37.45
				c8.01-5.17,14.72-10.5,20.13-16v121.85c0,2.78,1.38,5.37,3.68,6.93s5.23,1.86,7.8,0.82c27.66-11.18,56.58-16.84,85.97-16.84
				c68.96,0,133.85,30.76,182.72,86.62c49.15,56.18,76.22,130.94,76.22,210.51s-27.07,154.34-76.22,210.51
				c-48.88,55.86-113.77,86.62-182.72,86.62c-29.39,0-58.31-5.67-85.97-16.84c-2.57-1.04-5.5-0.73-7.8,0.82
				c-2.3,1.55-3.68,4.15-3.68,6.93v195.65c0,25.72-43.69,52.99-116.87,72.95c-78.64,21.45-183.34,33.26-294.82,33.26
				c-4.61,0-8.35,3.74-8.35,8.35s3.74,8.35,8.35,8.35c112.92,0,219.18-12.02,299.21-33.85c39.4-10.75,70.47-23.35,92.35-37.45
				c24.44-15.76,36.84-33.12,36.84-51.61v-183.59c26.14,9.12,53.25,13.74,80.75,13.74c73.84,0,143.2-32.79,195.3-92.33
				c51.82-59.22,80.36-137.89,80.36-221.51S1665.06,925.62,1613.24,866.4z"/>
			<path class="st1" d="M1281.02,619.92c0-6.01-4.87-10.88-10.88-10.88c-6.01,0-10.88,4.87-10.88,10.88
				c0,6.01,4.87,10.88,10.88,10.88C1276.15,630.8,1281.02,625.93,1281.02,619.92z"/>
			<circle class="st1" cx="1206.69" cy="588.75" r="10.88"/>
			<circle class="st1" cx="1206.69" cy="651.08" r="10.88"/>
			<circle class="st1" cx="1144.36" cy="619.92" r="10.88"/>
			<circle class="st1" cx="1144.36" cy="682.25" r="10.88"/>
			<circle class="st1" cx="1080.91" cy="588.75" r="10.88"/>
			<circle class="st1" cx="1080.91" cy="651.08" r="10.88"/>
			<circle class="st1" cx="1080.91" cy="713.42" r="10.88"/>
			<circle class="st1" cx="1018.57" cy="619.92" r="10.88"/>
			<circle class="st1" cx="1018.57" cy="682.25" r="10.88"/>
			<path class="st1" d="M955.13,599.63c6.01,0,10.88-4.87,10.88-10.88s-4.87-10.88-10.88-10.88c-6.01,0-10.88,4.87-10.88,10.88
				S949.12,599.63,955.13,599.63z"/>
			<path class="st1" d="M955.13,661.97c6.01,0,10.88-4.87,10.88-10.88c0-6.01-4.87-10.88-10.88-10.88
				c-6.01,0-10.88,4.87-10.88,10.88C944.24,657.09,949.12,661.97,955.13,661.97z"/>
			<path class="st1" d="M955.13,724.3c6.01,0,10.88-4.87,10.88-10.88s-4.87-10.88-10.88-10.88c-6.01,0-10.88,4.87-10.88,10.88
				S949.12,724.3,955.13,724.3z"/>
			<circle class="st1" cx="892.79" cy="682.25" r="10.88"/>
			<circle class="st1" cx="829.34" cy="651.08" r="10.88"/>
			<circle class="st1" cx="829.34" cy="713.42" r="10.88"/>
			<path class="st1" d="M1412.17,861.92c4.45-1.22,7.06-5.82,5.84-10.27c-1.22-4.45-5.82-7.06-10.27-5.84
				c-62.04,17.05-85.43,54.77-86.4,56.37c-0.79,1.3-1.2,2.8-1.2,4.32v354c0,0.15,0,0.3,0.01,0.45c0.06,1.21,0.98,12.21,12.9,26.13
				c14.85,17.34,39.87,31.75,74.35,42.83c0.85,0.27,1.71,0.4,2.56,0.4c3.53,0,6.81-2.26,7.95-5.8c1.41-4.39-1.01-9.1-5.4-10.51
				c-68.82-22.1-75.23-51.42-75.66-53.97V909.05C1341.97,901.94,1363.91,875.18,1412.17,861.92z"/>
			<polygon class="st1" points="714.49,1125.32 729.14,1064.32 743.53,1125.32 780.57,1125.32 809.08,1012.31 774.18,1012.31 
				769.38,1038.69 761.65,1080.14 748.32,1012.31 710.62,1012.31 696.77,1079.84 690.23,1042.73 684.5,1012.31 649.06,1012.31 
				677.58,1125.32 			"/>
			<path class="st1" d="M832.06,1127.66c24.11,0,37.03-18.48,37.03-40.21c0-20.02-12.25-39.74-35.7-39.74
				c-24.12,0-37.04,18.63-37.04,40.36C796.35,1106.85,808.08,1127.66,832.06,1127.66z M832.72,1078.43c4.8,0,7.86,3.89,7.86,9.33
				c0,5.89-3.2,9-7.86,9c-4.52,0-7.72-3.42-7.72-9C825,1081.86,828.46,1078.43,832.72,1078.43z"/>
			<path class="st1" d="M878.6,1050.34v74.99h29.7l-0.53-23.6v-11.8c4-3.73,11.59-6.68,18.79-6.68c2.93,0,5.59,0.47,7.46,0.62v-35.7
				c-1.74-0.32-3.07-0.47-4.67-0.47c-10.26,0-17.86,7.92-22.92,27.01l0.94-25.14L878.6,1050.34z"/>
			<polygon class="st1" points="970.69,1007.81 941.25,1008.58 941.25,1125.32 970.42,1125.32 970.42,1050.03 			"/>
			<path class="st1" d="M1052.11,1007.81l-29.44,0.77v39.12h-2.4c-26.11,0-40.5,17.7-40.5,43.32c0,22.51,10.93,36.64,25.18,36.64
				c10.27,0,16.66-7.45,20.52-19.1l1.07,16.77h27.44l-2.26-30.58v-44.71L1052.11,1007.81z M1022.67,1095.99
				c-1.34,0.93-2.81,1.39-4.94,1.39c-4.93,0-8.12-3.1-8.12-8.54c0-5.89,3.33-9.94,8.8-9.94c1.46,0,2.93,0.32,4.26,0.62V1095.99z"/>
			<path class="st1" d="M1086.93,1079.68c7.85-8.22,15.86-20.64,15.86-36.47c0-19.87-9.07-33.23-23.32-33.23
				c-11.06,0-18.39,8.39-18.39,19.72c0,7.6,2.13,11.65,8.27,17.86c4.52,4.5,5.99,7.76,5.99,12.57c0,6.06-3.2,12.27-8.4,19.55
				H1086.93z"/>
			<path class="st1" d="M1139.17,1077.04c6.4,0,13.99,1.71,21.98,4.19v-31.2c-6.93-1.71-12.79-2.33-20.12-2.33
				c-22.25,0-32.64,10.71-32.64,25.31c0,9.15,4.54,16.6,19.06,18.16l10.13,1.09c2.93,0.3,4.13,1.39,4.13,3.1
				c0,1.86-1.07,3.26-5.47,3.26c-10,0-17.98-2.48-25.58-5.74v31.2c6.13,2.18,13.45,3.57,22.79,3.57c23.45,0,32.11-9.48,32.11-23.29
				c0-10.24-5.33-18.31-21.71-19.87l-6.8-0.62c-3.2-0.3-4.54-1.71-4.54-3.41C1132.5,1078.43,1133.84,1077.04,1139.17,1077.04z"/>
			<path class="st1" d="M661.43,1229.83c10.13-4.35,16.12-11.03,16.12-23.75c0-16.77-11.45-30.43-32.24-30.43h-47.04v113.02h50.37
				c22.25,0,32.77-12.89,32.77-30.73C681.41,1242.25,673.16,1232.63,661.43,1229.83z M629.05,1207.32h12.26
				c3.6,0,5.86,2.79,5.86,6.51c0,3.89-2.26,6.84-5.99,6.84h-12.13V1207.32z M644.1,1257h-15.05v-13.66h15.05
				c3.6,0,6.13,2.95,6.13,6.68C650.24,1253.89,647.98,1257,644.1,1257z"/>
			<path class="st1" d="M725.02,1211.05c-21.85,0-36.77,16.92-36.77,40.36c0,23.28,12.79,39.59,39.97,39.59
				c11.46,0,20.65-2.18,27.31-4.5v-26.08c-8.93,2.94-16.12,4.65-25.18,4.65c-10.26,0-13.99-3.26-14.79-8.07h42.77v-7.76
				C758.33,1226.57,745.15,1211.05,725.02,1211.05z M715.56,1247.53c0-5.74,3.47-10.71,8.93-10.71c4.93,0,8.12,3.88,8.12,10.71
				H715.56z"/>
			<path class="st1" d="M801.14,1247.84l-6.8-0.62c-3.2-0.3-4.54-1.7-4.54-3.41c0-2.02,1.34-3.42,6.67-3.42
				c6.4,0,13.99,1.71,21.98,4.19v-31.2c-6.93-1.71-12.79-2.33-20.12-2.33c-22.25,0-32.64,10.71-32.64,25.31
				c0,9.16,4.54,16.61,19.06,18.16l10.13,1.09c2.93,0.3,4.13,1.39,4.13,3.1c0,1.86-1.07,3.26-5.47,3.26c-10,0-17.98-2.48-25.58-5.74
				v31.2c6.13,2.17,13.45,3.57,22.79,3.57c23.45,0,32.11-9.47,32.11-23.29C822.85,1257.47,817.52,1249.39,801.14,1247.84z"/>
			<path class="st1" d="M864.32,1194.43l-37.44,24.69v22.51h8.25v15.84c0,21.73,11.33,33.53,31.59,33.53
				c7.06,0,11.05-1.09,14.92-2.48V1257c-2.94,1.09-5.86,1.86-8.66,1.86c-6.4,0-8.67-3.57-8.67-8.85v-8.39h17.72v-28.25h-17.72
				V1194.43z"/>
			<path class="st1" d="M934.31,1288.67h50.37c22.25,0,32.77-12.89,32.77-30.73c0-15.69-8.26-25.31-19.98-28.11
				c10.13-4.35,16.12-11.03,16.12-23.75c0-16.77-11.45-30.43-32.24-30.43h-47.04V1288.67z M965.09,1207.32h12.26
				c3.6,0,5.86,2.79,5.86,6.51c0,3.89-2.26,6.84-5.99,6.84h-12.13V1207.32z M965.09,1243.34h15.05c3.6,0,6.13,2.95,6.13,6.68
				c0,3.88-2.26,6.98-6.13,6.98h-15.05V1243.34z"/>
			<path class="st1" d="M1024.29,1251.41c0,18.78,11.72,39.59,35.71,39.59c24.11,0,37.04-18.48,37.04-40.21
				c0-20.02-12.27-39.74-35.72-39.74C1037.21,1211.05,1024.29,1229.67,1024.29,1251.41z M1060.66,1241.79c4.8,0,7.86,3.88,7.86,9.3
				c0,5.91-3.2,9.01-7.86,9.01c-4.52,0-7.72-3.41-7.72-9.01C1052.94,1245.2,1056.4,1241.79,1060.66,1241.79z"/>
			<path class="st1" d="M1122.65,1254.51l10.13,1.09c2.93,0.3,4.12,1.39,4.12,3.1c0,1.86-1.07,3.26-5.46,3.26
				c-9.98,0-17.99-2.48-25.58-5.74v31.2c6.13,2.17,13.47,3.57,22.79,3.57c23.45,0,32.11-9.47,32.11-23.29
				c0-10.24-5.33-18.31-21.72-19.87l-6.79-0.62c-3.2-0.3-4.54-1.7-4.54-3.41c0-2.02,1.34-3.42,6.67-3.42
				c6.4,0,13.99,1.71,21.98,4.19v-31.2c-6.93-1.71-12.79-2.33-20.12-2.33c-22.24,0-32.64,10.71-32.64,25.31
				C1103.59,1245.52,1108.12,1252.97,1122.65,1254.51z"/>
			<path class="st1" d="M1197.69,1240.38c6.4,0,13.99,1.71,21.98,4.19v-31.2c-6.93-1.71-12.79-2.33-20.12-2.33
				c-22.24,0-32.64,10.71-32.64,25.31c0,9.16,4.52,16.61,19.06,18.16l10.13,1.09c2.93,0.3,4.12,1.39,4.12,3.1
				c0,1.86-1.07,3.26-5.46,3.26c-9.98,0-17.99-2.48-25.58-5.74v31.2c6.13,2.17,13.47,3.57,22.79,3.57
				c23.45,0,32.11-9.47,32.11-23.29c0-10.24-5.33-18.31-21.72-19.87l-6.79-0.62c-3.2-0.3-4.54-1.7-4.54-3.41
				C1191.03,1241.79,1192.37,1240.38,1197.69,1240.38z"/>
		</g>
	</g>
</g>
</svg>
