<?xml version="1.0" encoding="utf-8"?>
<!-- Generator: Adobe Illustrator 24.0.3, SVG Export Plug-In . SVG Version: 6.00 Build 0)  -->
<svg version="1.1" xmlns="http://www.w3.org/2000/svg" xmlns:xlink="http://www.w3.org/1999/xlink" x="0px" y="0px"
	 viewBox="0 0 2000 2000" style="enable-background:new 0 0 2000 2000;" xml:space="preserve">

<g id="fill">
	<path class="st0" d="M1158.24,483.01c-253.87,0-459.67,68.6-459.67,153.22v848.61v58.93c0,84.62,205.8,153.22,459.67,153.22
		c253.87,0,459.67-68.6,459.67-153.22V636.23C1617.9,551.61,1412.1,483.01,1158.24,483.01z"/>
</g>
<g id="stroke">
	<g>
		<g>
			<path class="st1" d="M806.86,688.47c27.41,14.64,66.56,27.85,113.22,38.21c70.71,15.69,153.07,23.98,238.16,23.98
				c102.09,0,200.58-12.01,277.31-33.83c44.81-12.74,119.99-40.15,119.99-80.6s-75.18-67.86-119.99-80.6
				c-76.73-21.81-175.22-33.83-277.31-33.83c-77.29,0-153.3,6.96-219.8,20.13c-29.65,5.87-56.65,12.85-80.12,20.65
				c-1.96,0.13-3.78,0.77-5.32,1.8c-15.25,5.27-28.91,10.9-40.7,16.8c-34.08,17.05-51.35,35.57-51.35,55.04
				C760.94,654.61,776.39,672.19,806.86,688.47z M791.07,614.48c1.38,0.63,2.91,0.99,4.52,0.99c6.01,0,10.88-4.87,10.88-10.88
				c0-0.38-0.02-0.75-0.06-1.12c4.06-2.47,8.51-4.93,13.34-7.35c9.67-4.84,20.69-9.49,32.89-13.91c1.8,1.31,4,2.09,6.4,2.09
				c4.94,0,9.1-3.29,10.43-7.8c21.37-6.8,45.66-12.93,72.2-18.19c29.89-5.92,61.77-10.55,94.83-13.85c1.02,4.95,5.4,8.67,10.66,8.67
				c5.92,0,10.73-4.74,10.87-10.63c32.66-2.65,66.3-4.01,100.21-4.01c1.5,0,3,0.01,4.5,0.02c-0.43,1.17-0.67,2.42-0.67,3.74
				c0,6.01,4.87,10.88,10.88,10.88c6.01,0,10.88-4.87,10.88-10.88c0-1.23-0.21-2.4-0.59-3.5c35.97,0.7,71.26,2.91,105.04,6.52
				c1.31,4.54,5.49,7.87,10.45,7.87c4.07,0,7.61-2.24,9.48-5.55c44.64,5.61,86.25,13.72,122.77,24.1
				c79.52,22.61,107.85,48.16,107.85,64.53s-28.33,41.93-107.85,64.53c-36.4,10.35-77.86,18.44-122.33,24.05
				c-1.7-3.79-5.5-6.43-9.92-6.43c-5.31,0-9.72,3.8-10.68,8.83c-33.83,3.61-69.16,5.81-105.17,6.5c0.61-1.36,0.96-2.86,0.96-4.44
				c0-6.01-4.87-10.88-10.88-10.88c-6.01,0-10.88,4.87-10.88,10.88c0,1.67,0.39,3.25,1.06,4.67c-1.63,0.01-3.26,0.02-4.89,0.02
				c-34.06,0-67.67-1.34-100.23-3.98c0.02-0.24,0.04-0.47,0.04-0.71c0-6.01-4.87-10.88-10.88-10.88c-5.59,0-10.19,4.22-10.81,9.64
				c-39.73-3.97-77.66-9.89-112.66-17.65c-20.2-4.48-38.16-9.31-53.97-14.33c-0.96-5.03-5.38-8.82-10.68-8.82
				c-2.77,0-5.29,1.04-7.21,2.74c-18.91-6.9-34.02-14.03-45.55-21.05c0.12-0.64,0.19-1.3,0.19-1.98c0-6.01-4.87-10.88-10.88-10.88
				c-1.9,0-3.68,0.49-5.23,1.34c-8.58-7.64-12.73-14.87-12.73-21.16C777.64,629.54,782.35,622.08,791.07,614.48z"/>
			<path class="st1" d="M1685.15,913.25c-11.12-43.05-32.28-81.59-61.21-111.46c-3.21-3.32-8.5-3.4-11.81-0.19
				c-3.31,3.21-3.4,8.5-0.19,11.81c26.92,27.8,46.64,63.77,57.04,104.02c10.06,38.95,10.81,79.12,2.16,116.17
				c-13.95,59.79-50.12,102.9-101.85,121.37c-98.59,35.21-200.26,42.1-302.18,20.46c-81.77-17.35-163.96-53-244.28-105.93
				c-85.41-56.29-150.66-120.54-187.98-161.32c8.41-9.73,13.51-22.39,13.51-36.23c0-30.6-24.9-55.5-55.5-55.5s-55.5,24.9-55.5,55.5
				s24.9,55.5,55.5,55.5c10.75,0,20.8-3.08,29.31-8.4c37.94,41.5,104.27,106.86,191.05,164.12
				c82.11,54.18,166.27,90.7,250.14,108.54c39.97,8.5,79.9,12.75,119.64,12.75c64.73,0,128.93-11.27,191.91-33.76
				c29.52-10.54,54.45-28.22,74.12-52.54c18.22-22.53,31.13-49.71,38.38-80.77C1696.67,997.73,1695.89,954.81,1685.15,913.25z
				 M823.56,895.63c-15.45-17.51-23.79-28.38-24.05-28.73c-2.79-3.67-8.03-4.39-11.7-1.6c-3.67,2.79-4.39,8.03-1.6,11.7
				c0.27,0.35,8.78,11.46,24.55,29.34c-5.36,2.8-11.45,4.39-17.9,4.39c-21.39,0-38.79-17.4-38.79-38.79s17.4-38.79,38.79-38.79
				c21.39,0,38.79,17.4,38.79,38.79C831.65,880.86,828.63,889.07,823.56,895.63z"/>
			<circle class="st1" cx="1487.96" cy="635.76" r="10.88"/>
			<circle class="st1" cx="1424.51" cy="604.59" r="10.88"/>
			<circle class="st1" cx="1424.51" cy="666.93" r="10.88"/>
			<circle class="st1" cx="1362.18" cy="573.43" r="10.88"/>
			<circle class="st1" cx="1362.18" cy="635.76" r="10.88"/>
			<circle class="st1" cx="1362.18" cy="698.1" r="10.88"/>
			<path class="st1" d="M1298.73,615.48c6.01,0,10.88-4.87,10.88-10.88s-4.87-10.88-10.88-10.88c-6.01,0-10.88,4.87-10.88,10.88
				S1292.72,615.48,1298.73,615.48z"/>
			<path class="st1" d="M1298.73,677.81c6.01,0,10.88-4.87,10.88-10.88c0-6.01-4.87-10.88-10.88-10.88
				c-6.01,0-10.88,4.87-10.88,10.88C1287.85,672.94,1292.72,677.81,1298.73,677.81z"/>
			<path class="st1" d="M1236.39,584.31c6.01,0,10.88-4.87,10.88-10.88s-4.87-10.88-10.88-10.88c-6.01,0-10.88,4.87-10.88,10.88
				S1230.38,584.31,1236.39,584.31z"/>
			<path class="st1" d="M1236.39,646.64c6.01,0,10.88-4.87,10.88-10.88s-4.87-10.88-10.88-10.88c-6.01,0-10.88,4.87-10.88,10.88
				S1230.38,646.64,1236.39,646.64z"/>
			<path class="st1" d="M1236.39,708.98c6.01,0,10.88-4.87,10.88-10.88s-4.87-10.88-10.88-10.88c-6.01,0-10.88,4.87-10.88,10.88
				S1230.38,708.98,1236.39,708.98z"/>
			<circle class="st1" cx="1172.94" cy="604.59" r="10.88"/>
			<circle class="st1" cx="1172.94" cy="666.93" r="10.88"/>
			<path class="st1" d="M1110.61,584.31c6.01,0,10.88-4.87,10.88-10.88s-4.87-10.88-10.88-10.88c-6.01,0-10.88,4.87-10.88,10.88
				S1104.6,584.31,1110.61,584.31z"/>
			<path class="st1" d="M1110.61,646.64c6.01,0,10.88-4.87,10.88-10.88s-4.87-10.88-10.88-10.88c-6.01,0-10.88,4.87-10.88,10.88
				S1104.6,646.64,1110.61,646.64z"/>
			<path class="st1" d="M1110.61,708.98c6.01,0,10.88-4.87,10.88-10.88s-4.87-10.88-10.88-10.88c-6.01,0-10.88,4.87-10.88,10.88
				S1104.6,708.98,1110.61,708.98z"/>
			<circle class="st1" cx="1047.16" cy="604.59" r="10.88"/>
			<circle class="st1" cx="1047.16" cy="666.93" r="10.88"/>
			<circle class="st1" cx="984.83" cy="573.43" r="10.88"/>
			<circle class="st1" cx="984.83" cy="635.76" r="10.88"/>
			<circle class="st1" cx="984.83" cy="698.1" r="10.88"/>
			<path class="st1" d="M921.38,615.48c6.01,0,10.88-4.87,10.88-10.88s-4.87-10.88-10.88-10.88c-6.01,0-10.88,4.87-10.88,10.88
				S915.37,615.48,921.38,615.48z"/>
			<path class="st1" d="M921.38,677.81c6.01,0,10.88-4.87,10.88-10.88c0-6.01-4.87-10.88-10.88-10.88
				c-6.01,0-10.88,4.87-10.88,10.88C910.5,672.94,915.37,677.81,921.38,677.81z"/>
			<path class="st1" d="M859.04,646.64c6.01,0,10.88-4.87,10.88-10.88s-4.87-10.88-10.88-10.88c-6.01,0-10.88,4.87-10.88,10.88
				S853.03,646.64,859.04,646.64z"/>
		</g>
	</g>
</g>
</svg>
