<?xml version="1.0" encoding="utf-8"?>
<!-- Generator: Adobe Illustrator 24.0.3, SVG Export Plug-In . SVG Version: 6.00 Build 0)  -->
<svg version="1.1" id="Layer_1" xmlns="http://www.w3.org/2000/svg" xmlns:xlink="http://www.w3.org/1999/xlink" x="0px" y="0px"
	 viewBox="0 0 1050 1050" style="enable-background:new 0 0 1050 1050;" xml:space="preserve">
<style type="text/css">
	.st0{fill:#FFFFFF;}
</style>
<title>sleeps_logo</title>
<path class="st0" d="M571,840.3c-9.6,2.8-14.2,9.3-12.5,15.1c2.5,8.8,14.8,9.3,27.3,8.1c24.6-2.3,38.5,2.2,43.5,19.6
	c4.9,17.1-6.5,34.4-30.9,41.4c-16.6,4.8-38.7,4.5-54.1-17.1l14-15.5c8.4,14.4,21.3,19.2,35.6,15.1c11.9-3.4,18.3-10.5,16.3-17.5
	s-8.2-9.9-26.7-7.7c-21.3,2.7-38.5-1.7-44-20.9c-4.3-14.9,6-31.5,28-37.8c17.3-5,33.8-0.7,44.1,13.7l-13.8,14.4
	C591.2,840.7,582.5,837,571,840.3z"/>
<path class="st0" d="M389.6,903.4l-19.1,5.5L342,809.7l46.7-13.4c22-6.3,36.7,5.1,41.3,21c4.4,15.3-1.9,33.6-23.8,39.9l-27.6,7.9
	L389.6,903.4z M399.7,839.9c8.5-2.4,13.2-8.9,10.9-16.9s-9.7-11-18.2-8.6l-26.2,7.5l7.3,25.5L399.7,839.9z"/>
<path class="st0" d="M261,654.5l5.1,17.7l-55.4,15.9l6.2,21.5L268,695l5.1,17.7l-51.1,14.7l7,24.5l56.8-16.3l5.1,17.7l-75.9,21.8
	l-28.4-99.2L261,654.5z"/>
<path class="st0" d="M205.7,448.9l5.1,17.7l-55.4,15.9l6.2,21.6l51.1-14.7l5.1,17.7l-51.1,14.7l7,24.5l56.8-16.3l5.1,17.7
	l-75.9,21.8l-28.4-99.2L205.7,448.9z"/>
<path class="st0" d="M225.5,262.5l23.4,81.5l57.7-16.5l5.1,17.7l-76.8,22L206.4,268L225.5,262.5z"/>
<path class="st0" d="M385.2,167.1c-9.6,2.8-14.2,9.3-12.5,15.1c2.5,8.8,14.8,9.2,27.3,8.1c24.6-2.3,38.5,2.1,43.5,19.6
	c4.9,17.1-6.5,34.4-30.9,41.4c-16.6,4.8-38.7,4.5-54.1-17.1l14-15.5c8.4,14.4,21.3,19.2,35.6,15.1c11.9-3.4,18.3-10.5,16.3-17.6
	s-8.2-9.9-26.7-7.7c-21.3,2.7-38.5-1.7-44-20.9c-4.3-14.9,6-31.5,28-37.8c17.3-5,33.8-0.7,44.1,13.7l-13.8,14.4
	C405.4,167.4,396.7,163.8,385.2,167.1z"/>
</svg>
