<?xml version="1.0" encoding="utf-8"?>
<!-- Generator: Adobe Illustrator 24.0.3, SVG Export Plug-In . SVG Version: 6.00 Build 0)  -->
<svg version="1.1" xmlns="http://www.w3.org/2000/svg" xmlns:xlink="http://www.w3.org/1999/xlink" x="0px" y="0px"
	 viewBox="0 0 2000 2000" style="enable-background:new 0 0 2000 2000;" xml:space="preserve">

<style type="text/css">
	<!--fill colour--> .st0{fill:#bf8776;}
	<!--stroke colour--> .st1{fill:#f1ede3;}
</style>

<g id="fill">
	<polygon class="st0" points="1547.55,565.95 608.08,752.58 794.71,1692.05 1461.07,1559.67 1679.92,1232.32 	"/>
</g>
<g id="stroke">
	<g>
		<g>
			<path class="st1" d="M1687.28,1236.26c0.04-0.07,0.07-0.15,0.11-0.23c0.08-0.17,0.17-0.34,0.24-0.51
				c0.03-0.06,0.05-0.13,0.07-0.2c0.07-0.19,0.15-0.38,0.21-0.58c0.01-0.05,0.02-0.09,0.04-0.14c0.06-0.22,0.12-0.43,0.16-0.65
				c0.01-0.03,0.01-0.07,0.02-0.1c0.04-0.23,0.08-0.47,0.1-0.7c0-0.04,0-0.08,0.01-0.12c0.02-0.23,0.03-0.46,0.03-0.69
				c0-0.08-0.01-0.16-0.01-0.23c-0.01-0.19-0.01-0.39-0.03-0.58c-0.03-0.28-0.07-0.55-0.12-0.83l-132.38-666.37
				c-0.9-4.52-5.29-7.46-9.82-6.57L606.45,744.39c-4.52,0.9-7.46,5.3-6.57,9.82c0.9,4.52,5.29,7.46,9.82,6.57l931.27-185
				l129.12,649.98l-264.91,52.63c-2.17,0.43-4.08,1.71-5.32,3.55s-1.68,4.1-1.25,6.27l52.63,264.91l-141.77,28.16
				c-4.52,0.9-7.46,5.3-6.57,9.82c0.79,3.98,4.28,6.73,8.18,6.73c0.54,0,1.09-0.05,1.64-0.16l149.97-29.79
				c0.27-0.05,0.54-0.12,0.81-0.2c0.19-0.06,0.36-0.13,0.54-0.19c0.08-0.03,0.15-0.05,0.23-0.08c0.22-0.09,0.43-0.19,0.64-0.3
				c0.03-0.02,0.07-0.03,0.1-0.05c0.21-0.11,0.41-0.24,0.61-0.37c0.03-0.02,0.06-0.04,0.09-0.05c0.19-0.13,0.37-0.26,0.54-0.4
				c0.04-0.03,0.08-0.05,0.11-0.08c0.16-0.13,0.31-0.27,0.46-0.41c0.05-0.05,0.1-0.09,0.15-0.14c0.14-0.14,0.27-0.29,0.39-0.43
				c0.05-0.06,0.11-0.11,0.16-0.17c0.15-0.19,0.29-0.38,0.43-0.58c0.02-0.03,0.04-0.05,0.06-0.07l218.85-327.35
				c0.02-0.03,0.03-0.06,0.05-0.08C1687.05,1236.68,1687.17,1236.47,1687.28,1236.26z M1576.06,1261.47
				c1.63,3.95,5.52,6.74,10.06,6.74c6.01,0,10.88-4.87,10.88-10.88c0-0.01,0-0.01,0-0.02l64.77-12.87l-196.43,293.82l-4.12-20.76
				c5.6-0.45,10.01-5.12,10.01-10.84c0-6.01-4.87-10.88-10.88-10.88c-1.16,0-2.28,0.19-3.34,0.53l-40.36-203.17L1576.06,1261.47z"/>
			<path class="st1" d="M1084.4,1132.99c1.64-28.86-20.5-53.69-49.37-55.33c-13.98-0.79-27.44,3.9-37.89,13.22
				c-10.45,9.32-16.64,22.16-17.44,36.14c-0.8,13.98,3.9,27.44,13.22,37.89c9.32,10.45,22.16,16.64,36.14,17.44
				c1.01,0.06,2.01,0.09,3.01,0.09C1059.64,1182.45,1082.81,1160.84,1084.4,1132.99C1084.4,1132.99,1084.4,1132.99,1084.4,1132.99z
				 M1067.72,1132.04c-1.12,19.67-18.05,34.77-37.7,33.64c-9.53-0.54-18.27-4.76-24.63-11.88c-6.35-7.12-9.55-16.29-9.01-25.82
				c0.54-9.53,4.76-18.27,11.88-24.63c6.6-5.89,14.96-9.07,23.74-9.07c0.69,0,1.38,0.02,2.08,0.06
				C1053.75,1095.46,1068.84,1112.37,1067.72,1132.04z"/>
			<path class="st1" d="M1227.07,1088.6c-13.99-0.79-27.44,3.9-37.89,13.22c-10.45,9.32-16.64,22.16-17.44,36.14
				c-1.64,28.87,20.5,53.69,49.37,55.33c1.01,0.06,2.01,0.09,3.01,0.09c27.56,0,50.73-21.6,52.32-49.45
				c0.8-13.98-3.9-27.44-13.22-37.89S1241.05,1089.4,1227.07,1088.6z M1259.76,1142.98c-1.12,19.67-18.05,34.75-37.7,33.64
				c-19.67-1.12-34.76-18.03-33.64-37.7c0.54-9.53,4.76-18.27,11.88-24.63c6.6-5.89,14.96-9.07,23.74-9.07
				c0.69,0,1.38,0.02,2.08,0.06c9.53,0.54,18.27,4.76,24.63,11.88C1257.1,1124.29,1260.3,1133.45,1259.76,1142.98z"/>
			<path class="st1" d="M1133.14,1173.57c-1.34-2.67-4.01-4.41-6.99-4.58c-2.99-0.17-5.82,1.26-7.46,3.76l-43.9,66.93
				c-1.64,2.5-1.82,5.67-0.48,8.34c1.34,2.67,4.01,4.41,6.99,4.58l79.92,4.55c0.16,0.01,0.32,0.01,0.48,0.01
				c2.8,0,5.43-1.41,6.98-3.77c1.64-2.5,1.82-5.67,0.48-8.34L1133.14,1173.57z M1096.7,1236.74l28.03-42.74l23,45.65L1096.7,1236.74
				z"/>
			<path class="st1" d="M1380.31,1106.25c3.8-66.72-18.61-130.92-63.1-180.78c-44.49-49.86-105.73-79.42-172.45-83.22
				c-66.71-3.8-130.92,18.61-180.78,63.09c-49.86,44.49-79.42,105.73-83.22,172.45c-2.57,45.04,7.05,89.87,27.81,129.66
				c19.39,37.17,47.92,69.01,82.71,92.37l-4.25,74.68c-0.13,2.21,0.63,4.38,2.11,6.04c1.47,1.65,3.55,2.65,5.76,2.78l46.35,2.64
				c0,0,0,0,0,0s0,0,0,0l185.42,10.56c0.16,0.01,0.32,0.01,0.47,0.01c2.05,0,4.03-0.75,5.56-2.12c1.65-1.47,2.65-3.55,2.78-5.76
				l4.07-71.46C1321.36,1277.54,1375.13,1197.17,1380.31,1106.25z M1228,1304.18c-2.81,1.29-4.67,4.03-4.85,7.11l-3.88,68.07
				l-29.68-1.69l3.93-68.92c0.26-4.61-3.26-8.55-7.87-8.81c-4.59-0.25-8.55,3.26-8.81,7.87l-3.93,68.92l-29.67-1.69l3.93-68.92
				c0.26-4.61-3.26-8.55-7.87-8.81c-4.57-0.24-8.55,3.26-8.81,7.87l-3.93,68.92l-29.67-1.69l3.93-68.92
				c0.26-4.61-3.26-8.55-7.87-8.81c-4.58-0.24-8.55,3.26-8.81,7.87l-3.93,68.92l-29.67-1.69l3.93-68.92
				c0.26-4.61-3.26-8.55-7.86-8.82c-4.62-0.24-8.55,3.26-8.82,7.86l-3.93,68.92l-29.68-1.69l4.05-71.15c0.17-3-1.29-5.87-3.82-7.5
				c-34.2-22-62.22-52.69-81.03-88.74c-19.37-37.12-28.34-78.95-25.94-120.99c3.55-62.26,31.13-119.41,77.66-160.93
				c46.53-41.52,106.44-62.43,168.71-58.88c62.26,3.55,119.41,31.13,160.93,77.66s62.43,106.45,58.88,168.71
				C1358.71,1191.72,1306.74,1267.92,1228,1304.18z"/>
			<path class="st1" d="M1586.12,1330.54c6.01,0,10.88-4.87,10.88-10.88c0-6.01-4.87-10.88-10.88-10.88s-10.88,4.87-10.88,10.88
				C1575.24,1325.67,1580.11,1330.54,1586.12,1330.54z"/>
			<path class="st1" d="M1522.67,1299.37c6.01,0,10.88-4.87,10.88-10.88c0-6.01-4.87-10.88-10.88-10.88
				c-6.01,0-10.88,4.87-10.88,10.88C1511.79,1294.5,1516.66,1299.37,1522.67,1299.37z"/>
			<path class="st1" d="M1522.67,1361.71c6.01,0,10.88-4.87,10.88-10.88c0-6.01-4.87-10.88-10.88-10.88
				c-6.01,0-10.88,4.87-10.88,10.88C1511.79,1356.83,1516.66,1361.71,1522.67,1361.71z"/>
			<circle class="st1" cx="1522.67" cy="1413.16" r="10.88"/>
			<path class="st1" d="M1460.34,1330.54c6.01,0,10.88-4.87,10.88-10.88c0-6.01-4.87-10.88-10.88-10.88
				c-6.01,0-10.88,4.87-10.88,10.88C1449.46,1325.67,1454.33,1330.54,1460.34,1330.54z"/>
			<path class="st1" d="M1460.34,1392.87c6.01,0,10.88-4.87,10.88-10.88c0-6.01-4.87-10.88-10.88-10.88
				c-6.01,0-10.88,4.87-10.88,10.88C1449.46,1388,1454.33,1392.87,1460.34,1392.87z"/>
			<path class="st1" d="M1460.34,1455.21c6.01,0,10.88-4.87,10.88-10.88c0-6.01-4.87-10.88-10.88-10.88
				c-6.01,0-10.88,4.87-10.88,10.88C1449.46,1450.34,1454.33,1455.21,1460.34,1455.21z"/>
		</g>
	</g>
</g>
</svg>
