<?xml version="1.0" encoding="utf-8"?>
<!-- Generator: Adobe Illustrator 24.0.3, SVG Export Plug-In . SVG Version: 6.00 Build 0)  -->
<svg version="1.1" xmlns="http://www.w3.org/2000/svg" xmlns:xlink="http://www.w3.org/1999/xlink" x="0px" y="0px"
	 viewBox="0 0 2000 2000" style="enable-background:new 0 0 2000 2000;" xml:space="preserve">

<g id="fill">
	<path class="st0" d="M1596.91,794.83h-153.64c0,0-208.55,0-213.62,0c-93.75,0-148.63,54.99-148.63,148.64
		c0-93.64-54.94-148.64-148.69-148.64c-11.19,0-116.08,0-222.58,0v-63.57h-1H560.03h-1.01v63.57c-49.75,0-83.97,0-83.97,0v743.27
		c0,0,368.42,0,438.73,0c93.67,0,167.24,54.91,167.24,148.64c0-93.73,73.5-148.64,167.23-148.64c70.29,0,438.73,0,438.73,0V794.83
		H1596.91z"/>
</g>
<g id="stroke">
	<g>
		<g>
			<path class="st1" d="M1687.36,1600.1c4.61,0,8.35-3.74,8.35-8.35s-3.74-8.35-8.35-8.35h-396.25c-54.24,0-89.37,6.6-113.92,21.4
				c-24.26,14.63-39.19,38.12-46.65,73.59h-40.96c1.95-38.61,17.5-71.24,45.29-94.74c28.37-23.99,68.63-37.2,113.37-37.2h438.73
				c4.61,0,8.35-3.74,8.35-8.35V794.83c0-4.61-3.74-8.35-8.35-8.35h-179.17c-4.61,0-8.35,3.74-8.35,8.35s3.74,8.35,8.35,8.35h170.82
				v726.56h-430.38c-48.68,0-92.78,14.61-124.16,41.15c-20.24,17.11-34.74,38.42-43.08,62.99c-8.35-24.57-22.85-45.88-43.1-62.99
				c-31.39-26.53-75.47-41.14-124.14-41.14c-4.61,0-8.35,3.74-8.35,8.35s3.74,8.35,8.35,8.35c44.72,0,84.98,13.21,113.35,37.2
				c27.8,23.5,43.36,56.13,45.31,94.73h-40.99c-7.45-35.46-22.37-58.96-46.65-73.59c-24.54-14.8-59.67-21.4-113.89-21.4H474.64
				c-4.61,0-8.35,3.74-8.35,8.35s3.74,8.35,8.35,8.35h396.28c98.36,0,133.7,21.4,145.42,88.09c0.01,0.03,0.01,0.06,0.02,0.09
				c0.03,0.15,0.06,0.29,0.1,0.44c0.03,0.11,0.05,0.23,0.09,0.34c0.04,0.13,0.08,0.27,0.13,0.4c0.04,0.12,0.09,0.24,0.13,0.36
				c0.05,0.12,0.09,0.23,0.14,0.34c0.06,0.13,0.12,0.26,0.19,0.39c0.05,0.1,0.1,0.19,0.15,0.28c0.08,0.14,0.17,0.28,0.25,0.42
				c0.05,0.08,0.1,0.15,0.15,0.23c0.1,0.15,0.21,0.29,0.33,0.44c0.05,0.06,0.09,0.12,0.14,0.18c0.14,0.17,0.28,0.32,0.43,0.48
				c0.03,0.03,0.06,0.06,0.09,0.09c0.18,0.18,0.37,0.35,0.57,0.52c0.05,0.04,0.11,0.08,0.16,0.13c0.14,0.11,0.29,0.22,0.44,0.33
				c0.09,0.06,0.19,0.12,0.28,0.18c0.12,0.08,0.24,0.15,0.37,0.22c0.1,0.06,0.21,0.11,0.32,0.17c0.12,0.06,0.24,0.12,0.37,0.18
				c0.11,0.05,0.22,0.09,0.33,0.14c0.13,0.05,0.27,0.1,0.4,0.15c0.1,0.04,0.21,0.07,0.32,0.1c0.16,0.05,0.31,0.08,0.47,0.12
				c0.09,0.02,0.18,0.04,0.27,0.06c0.2,0.04,0.41,0.07,0.62,0.09c0.05,0.01,0.1,0.02,0.16,0.02c0.27,0.03,0.54,0.04,0.82,0.04
				c0.01,0,0.02,0,0.03,0h112.82c0.01,0,0.02,0,0.03,0c0.27,0,0.55-0.02,0.81-0.04c0.06-0.01,0.11-0.02,0.17-0.02
				c0.2-0.02,0.41-0.05,0.61-0.09c0.1-0.02,0.19-0.04,0.28-0.06c0.15-0.04,0.31-0.07,0.46-0.12c0.11-0.03,0.22-0.07,0.33-0.1
				c0.13-0.04,0.26-0.09,0.39-0.14c0.12-0.05,0.23-0.09,0.34-0.14c0.12-0.05,0.23-0.11,0.35-0.17c0.11-0.06,0.23-0.11,0.34-0.17
				c0.12-0.07,0.23-0.14,0.34-0.21c0.1-0.06,0.2-0.12,0.3-0.19c0.14-0.09,0.27-0.2,0.4-0.3c0.07-0.05,0.14-0.1,0.2-0.15
				c0.19-0.16,0.38-0.33,0.56-0.51c0.04-0.04,0.07-0.08,0.11-0.12c0.14-0.15,0.28-0.29,0.41-0.45c0.05-0.06,0.1-0.12,0.15-0.19
				c0.11-0.14,0.22-0.28,0.32-0.42c0.05-0.08,0.1-0.16,0.15-0.23c0.09-0.14,0.17-0.27,0.25-0.41c0.05-0.09,0.1-0.19,0.15-0.28
				c0.07-0.13,0.13-0.26,0.19-0.4c0.05-0.11,0.1-0.22,0.14-0.34c0.05-0.12,0.09-0.25,0.14-0.37c0.04-0.13,0.09-0.26,0.12-0.39
				c0.03-0.12,0.06-0.24,0.09-0.36c0.03-0.14,0.07-0.27,0.09-0.41c0.01-0.03,0.02-0.07,0.02-0.1
				c11.74-66.68,47.09-88.09,145.45-88.09H1687.36z"/>
			<path class="st1" d="M1687.36,1637.04h-397.71c-4.61,0-8.35,3.74-8.35,8.35s3.74,8.35,8.35,8.35h397.71
				c4.61,0,8.35-3.74,8.35-8.35S1691.98,1637.04,1687.36,1637.04z"/>
			<path class="st1" d="M872.35,1637.04H474.64c-4.61,0-8.35,3.74-8.35,8.35s3.74,8.35,8.35,8.35h397.71c4.61,0,8.35-3.74,8.35-8.35
				S876.96,1637.04,872.35,1637.04z"/>
			<path class="st1" d="M475.05,803.19h75.62v482.63c0,2.92,1.52,5.62,4.01,7.14c2.49,1.52,5.6,1.62,8.18,0.28l70.99-36.8
				l71.04,36.8c1.21,0.63,2.53,0.94,3.84,0.94c1.51,0,3.01-0.41,4.34-1.22c2.49-1.52,4.01-4.22,4.01-7.14V803.19h215.23
				c89.19,0,140.34,51.13,140.34,140.28v513.03c0,4.61,3.74,8.35,8.35,8.35s8.35-3.74,8.35-8.35V924.9c0-1.51-0.41-2.93-1.11-4.15
				c-8.5-84.56-65.43-134.27-155.94-134.27H717.09v-55.22c0-4.61-3.74-8.35-8.35-8.35H559.02c-4.61,0-8.35,3.74-8.35,8.35v55.22
				h-75.62c-4.61,0-8.35,3.74-8.35,8.35S470.44,803.19,475.05,803.19z M700.38,739.61v43.46c-1.13-0.4-2.34-0.63-3.61-0.63
				c-6.01,0-10.88,4.87-10.88,10.88c0,6.01,4.87,10.88,10.88,10.88c1.27,0,2.48-0.23,3.61-0.63v41.82c-1.13-0.4-2.34-0.63-3.61-0.63
				c-6.01,0-10.88,4.87-10.88,10.88c0,6.01,4.87,10.88,10.88,10.88c1.27,0,2.48-0.23,3.61-0.63v41.82c-1.13-0.4-2.34-0.63-3.61-0.63
				c-6.01,0-10.88,4.87-10.88,10.88c0,6.01,4.87,10.88,10.88,10.88c1.27,0,2.48-0.23,3.61-0.63v41.82c-1.13-0.4-2.34-0.63-3.61-0.63
				c-6.01,0-10.88,4.87-10.88,10.88s4.87,10.88,10.88,10.88c1.27,0,2.48-0.23,3.61-0.63v40.02c-1.13-0.4-2.34-0.63-3.61-0.63
				c-6.01,0-10.88,4.87-10.88,10.88c0,6.01,4.87,10.88,10.88,10.88c1.27,0,2.48-0.23,3.61-0.63v41.82c-1.13-0.4-2.34-0.63-3.61-0.63
				c-6.01,0-10.88,4.87-10.88,10.88s4.87,10.88,10.88,10.88c1.27,0,2.48-0.23,3.61-0.63v41.82c-1.13-0.4-2.34-0.63-3.61-0.63
				c-6.01,0-10.88,4.87-10.88,10.88s4.87,10.88,10.88,10.88c1.27,0,2.48-0.23,3.61-0.63v41.82c-1.13-0.4-2.34-0.63-3.61-0.63
				c-6.01,0-10.88,4.87-10.88,10.88c0,6.01,4.87,10.88,10.88,10.88c1.27,0,2.48-0.23,3.61-0.63v33.96l-62.69-32.47
				c-1.2-0.62-2.52-0.94-3.84-0.94c-1.32,0-2.64,0.31-3.84,0.94l-62.63,32.47v-33.96c1.13,0.4,2.34,0.63,3.61,0.63
				c6.01,0,10.88-4.87,10.88-10.88c0-6.01-4.87-10.88-10.88-10.88c-1.27,0-2.48,0.23-3.61,0.63v-41.82c1.13,0.4,2.34,0.63,3.61,0.63
				c6.01,0,10.88-4.87,10.88-10.88s-4.87-10.88-10.88-10.88c-1.27,0-2.48,0.23-3.61,0.63v-41.82c1.13,0.4,2.34,0.63,3.61,0.63
				c6.01,0,10.88-4.87,10.88-10.88s-4.87-10.88-10.88-10.88c-1.27,0-2.48,0.23-3.61,0.63v-41.82c1.13,0.4,2.34,0.63,3.61,0.63
				c6.01,0,10.88-4.87,10.88-10.88c0-6.01-4.87-10.88-10.88-10.88c-1.27,0-2.48,0.23-3.61,0.63v-40.02c1.13,0.4,2.34,0.63,3.61,0.63
				c6.01,0,10.88-4.87,10.88-10.88s-4.87-10.88-10.88-10.88c-1.27,0-2.48,0.23-3.61,0.63v-41.82c1.13,0.4,2.34,0.63,3.61,0.63
				c6.01,0,10.88-4.87,10.88-10.88c0-6.01-4.87-10.88-10.88-10.88c-1.27,0-2.48,0.23-3.61,0.63v-41.82c1.13,0.4,2.34,0.63,3.61,0.63
				c6.01,0,10.88-4.87,10.88-10.88c0-6.01-4.87-10.88-10.88-10.88c-1.27,0-2.48,0.23-3.61,0.63v-41.82c1.13,0.4,2.34,0.63,3.61,0.63
				c6.01,0,10.88-4.87,10.88-10.88c0-6.01-4.87-10.88-10.88-10.88c-1.27,0-2.48,0.23-3.61,0.63v-43.46H700.38z"/>
			<path class="st1" d="M633.32,773.04c6.01,0,10.88-4.87,10.88-10.88c0-6.01-4.87-10.88-10.88-10.88
				c-6.01,0-10.88,4.87-10.88,10.88C622.44,768.17,627.31,773.04,633.32,773.04z"/>
			<path class="st1" d="M633.32,835.37c6.01,0,10.88-4.87,10.88-10.88s-4.87-10.88-10.88-10.88c-6.01,0-10.88,4.87-10.88,10.88
				S627.31,835.37,633.32,835.37z"/>
			<path class="st1" d="M633.32,897.71c6.01,0,10.88-4.87,10.88-10.88c0-6.01-4.87-10.88-10.88-10.88
				c-6.01,0-10.88,4.87-10.88,10.88C622.44,892.84,627.31,897.71,633.32,897.71z"/>
			<path class="st1" d="M633.32,960.04c6.01,0,10.88-4.87,10.88-10.88s-4.87-10.88-10.88-10.88c-6.01,0-10.88,4.87-10.88,10.88
				S627.31,960.04,633.32,960.04z"/>
			<path class="st1" d="M633.32,1022.38c6.01,0,10.88-4.87,10.88-10.88s-4.87-10.88-10.88-10.88c-6.01,0-10.88,4.87-10.88,10.88
				S627.31,1022.38,633.32,1022.38z"/>
			<path class="st1" d="M633.32,1082.91c6.01,0,10.88-4.87,10.88-10.88c0-6.01-4.87-10.88-10.88-10.88
				c-6.01,0-10.88,4.87-10.88,10.88C622.44,1078.04,627.31,1082.91,633.32,1082.91z"/>
			<path class="st1" d="M633.32,1145.24c6.01,0,10.88-4.87,10.88-10.88s-4.87-10.88-10.88-10.88c-6.01,0-10.88,4.87-10.88,10.88
				S627.31,1145.24,633.32,1145.24z"/>
			<path class="st1" d="M633.32,1207.58c6.01,0,10.88-4.87,10.88-10.88c0-6.01-4.87-10.88-10.88-10.88
				c-6.01,0-10.88,4.87-10.88,10.88C622.44,1202.71,627.31,1207.58,633.32,1207.58z"/>
		</g>
	</g>
</g>
</svg>
