<?xml version="1.0" encoding="utf-8"?>
<!-- Generator: Adobe Illustrator 24.0.3, SVG Export Plug-In . SVG Version: 6.00 Build 0)  -->
<svg version="1.1" xmlns="http://www.w3.org/2000/svg" xmlns:xlink="http://www.w3.org/1999/xlink" x="0px" y="0px"
	 viewBox="0 0 2000 2000" style="enable-background:new 0 0 2000 2000;" xml:space="preserve">

<style type="text/css">
	<!--fill colour--> .st0{fill:#bf8776;}
	<!--stroke colour--> .st1{fill:#f1ede3;}
</style>

<g id="fill">
	<path class="st0" d="M1697.96,732.21c-2.56-23.13-22.16-41.12-45.97-41.12H855.23l-61.68-61.68H423.43l-61.68,61.68v102.81v904.71
		h1336.5V737.35v-5.14H1697.96z"/>
</g>
<g id="stroke">
	<g>
		<g>
			<path class="st1" d="M1698.25,744.42h-105.62c0.18-0.78,0.28-1.58,0.28-2.41c0-6.01-4.87-10.88-10.88-10.88
				c-6.01,0-10.88,4.87-10.88,10.88c0,0.83,0.1,1.63,0.28,2.41h-104.57c0.18-0.78,0.28-1.58,0.28-2.41
				c0-6.01-4.87-10.88-10.88-10.88s-10.88,4.87-10.88,10.88c0,0.83,0.1,1.63,0.28,2.41h-104.57c0.18-0.78,0.28-1.58,0.28-2.41
				c0-6.01-4.87-10.88-10.88-10.88c-6.01,0-10.88,4.87-10.88,10.88c0,0.83,0.1,1.63,0.28,2.41H1211.3c0.18-0.78,0.28-1.58,0.28-2.41
				c0-6.01-4.87-10.88-10.88-10.88c-6.01,0-10.88,4.87-10.88,10.88c0,0.83,0.1,1.63,0.28,2.41h-104.57
				c0.18-0.78,0.28-1.58,0.28-2.41c0-6.01-4.87-10.88-10.88-10.88c-6.01,0-10.88,4.87-10.88,10.88c0,0.83,0.1,1.63,0.28,2.41H959.73
				c0.18-0.78,0.28-1.58,0.28-2.41c0-6.01-4.87-10.88-10.88-10.88s-10.88,4.87-10.88,10.88c0,0.83,0.1,1.63,0.28,2.41h-83.3
				c-2.22,0-4.34,0.88-5.91,2.45l-59.24,59.24h-81.79c0.09-0.57,0.16-1.16,0.16-1.76c0-6.01-4.87-10.88-10.88-10.88
				c-6.01,0-10.88,4.87-10.88,10.88c0,0.6,0.06,1.19,0.15,1.76H582.51c0.09-0.57,0.15-1.16,0.15-1.76c0-6.01-4.87-10.88-10.88-10.88
				c-6.01,0-10.88,4.87-10.88,10.88c0,0.6,0.06,1.19,0.15,1.76h-45.09c-4.61,0-8.35,3.74-8.35,8.35s3.74,8.35,8.35,8.35h277.58
				c2.22,0,4.34-0.88,5.91-2.45l59.24-59.24h831.21v176.7c0,4.61,3.74,8.35,8.35,8.35s8.35-3.74,8.35-8.35V752.77
				C1706.6,748.16,1702.86,744.42,1698.25,744.42z"/>
			<path class="st1" d="M1029.76,1327.1c-30.56,0-55.43,24.87-55.43,55.43c0,30.56,24.87,55.43,55.43,55.43
				c30.56,0,55.43-24.87,55.43-55.43C1085.19,1351.97,1060.33,1327.1,1029.76,1327.1z M1029.76,1421.25
				c-21.35,0-38.73-17.37-38.73-38.73c0-21.35,17.37-38.72,38.73-38.72c21.35,0,38.72,17.37,38.72,38.72
				C1068.49,1403.88,1051.12,1421.25,1029.76,1421.25z"/>
			<path class="st1" d="M992.27,1235.85c2.31-3.99,0.95-9.1-3.04-11.42c-3.99-2.31-9.1-0.95-11.42,3.04
				c-12.12,20.93-34.61,33.93-58.68,33.93c-24.07,0-46.56-13-58.68-33.93c-2.31-3.99-7.42-5.35-11.42-3.04
				c-3.99,2.31-5.35,7.42-3.04,11.42c15.1,26.07,43.12,42.26,73.14,42.26S977.17,1261.92,992.27,1235.85z"/>
			<path class="st1" d="M1081.71,1227.48c-2.31-3.99-7.42-5.35-11.42-3.04c-3.99,2.31-5.35,7.42-3.04,11.42
				c15.1,26.07,43.12,42.26,73.14,42.26s58.04-16.19,73.14-42.26c2.31-3.99,0.95-9.1-3.04-11.42c-3.99-2.31-9.1-0.95-11.42,3.04
				c-12.12,20.93-34.61,33.93-58.68,33.93C1116.32,1261.41,1093.84,1248.41,1081.71,1227.48z"/>
			<path class="st1" d="M1050.87,1046.35h73.99l-79.9,79.9c-2.39,2.39-3.1,5.98-1.81,9.1c1.29,3.12,4.34,5.16,7.72,5.16h94.16
				c4.61,0,8.35-3.74,8.35-8.35s-3.74-8.35-8.35-8.35h-73.99l79.9-79.9c2.39-2.39,3.1-5.98,1.81-9.1c-1.29-3.12-4.34-5.16-7.72-5.16
				h-94.16c-4.61,0-8.35,3.74-8.35,8.35S1046.25,1046.35,1050.87,1046.35z"/>
			<path class="st1" d="M1267.42,1079.3c4.61,0,8.35-3.74,8.35-8.35s-3.74-8.35-8.35-8.35h-32.62c-4.07-4.66-8.31-9.21-12.72-13.63
				c-2.51-2.51-5.08-4.95-7.67-7.36l58.91-58.91c2.39-2.39,3.1-5.98,1.81-9.1c-1.29-3.12-4.34-5.16-7.72-5.16h-94.16
				c-4.61,0-8.35,3.74-8.35,8.35s3.74,8.35,8.35,8.35h73.99l-45.45,45.45c-48.44-39.7-108.58-61.29-172.04-61.29
				c-72.65,0-140.95,28.29-192.33,79.66c-51.37,51.37-79.66,119.67-79.66,192.32s28.29,140.95,79.66,192.33
				s119.67,79.66,192.33,79.66s140.95-28.29,192.32-79.66c51.37-51.37,79.66-119.67,79.66-192.33c0-59.14-18.75-115.4-53.44-161.99
				H1267.42z M1210.27,1060.78c0.6,0.6,1.18,1.21,1.77,1.81h-18.61l9.16-9.16C1205.19,1055.83,1207.76,1058.27,1210.27,1060.78z
				 M1285.04,1241.3c0,68.19-26.55,132.3-74.77,180.51c-48.22,48.22-112.32,74.77-180.51,74.77s-132.3-26.55-180.51-74.77
				c-48.22-48.22-74.77-112.32-74.77-180.51s26.55-132.3,74.77-180.51c48.22-48.22,112.32-74.77,180.51-74.77
				c58.99,0,114.92,19.89,160.16,56.47l-22.56,22.56c-2.39,2.39-3.1,5.98-1.81,9.1c1.29,3.12,4.34,5.16,7.72,5.16h53.82
				C1264.63,1124.86,1285.04,1181.51,1285.04,1241.3z"/>
			<path class="st1" d="M1389.83,1001.4h-73.99l79.9-79.9c2.39-2.39,3.1-5.98,1.81-9.1c-1.29-3.12-4.34-5.16-7.72-5.16h-94.16
				c-4.61,0-8.35,3.74-8.35,8.35s3.74,8.35,8.35,8.35h73.99l-79.9,79.9c-2.39,2.39-3.1,5.98-1.81,9.1c1.29,3.12,4.34,5.16,7.72,5.16
				h94.16c4.61,0,8.35-3.74,8.35-8.35S1394.44,1001.4,1389.83,1001.4z"/>
			<path class="st1" d="M1264.14,721.72c6.01,0,10.88-4.87,10.88-10.88c0-6.01-4.87-10.88-10.88-10.88
				c-6.01,0-10.88,4.87-10.88,10.88C1253.26,716.85,1258.13,721.72,1264.14,721.72z"/>
			<path class="st1" d="M1138.36,721.72c6.01,0,10.88-4.87,10.88-10.88c0-6.01-4.87-10.88-10.88-10.88s-10.88,4.87-10.88,10.88
				C1127.48,716.85,1132.35,721.72,1138.36,721.72z"/>
			<path class="st1" d="M1012.58,721.72c6.01,0,10.88-4.87,10.88-10.88c0-6.01-4.87-10.88-10.88-10.88
				c-6.01,0-10.88,4.87-10.88,10.88C1001.7,716.85,1006.57,721.72,1012.58,721.72z"/>
			<path class="st1" d="M886.79,721.72c6.01,0,10.88-4.87,10.88-10.88c0-6.01-4.87-10.88-10.88-10.88
				c-6.01,0-10.88,4.87-10.88,10.88C875.91,716.85,880.78,721.72,886.79,721.72z"/>
			<path class="st1" d="M823.35,690.55c6.01,0,10.88-4.87,10.88-10.88s-4.87-10.88-10.88-10.88s-10.88,4.87-10.88,10.88
				S817.34,690.55,823.35,690.55z"/>
			<path class="st1" d="M823.35,752.89c6.01,0,10.88-4.87,10.88-10.88c0-6.01-4.87-10.88-10.88-10.88s-10.88,4.87-10.88,10.88
				C812.46,748.02,817.34,752.89,823.35,752.89z"/>
			<circle class="st1" cx="761.01" cy="648.5" r="10.88"/>
			<circle class="st1" cx="761.01" cy="710.84" r="10.88"/>
			<circle class="st1" cx="761.01" cy="773.17" r="10.88"/>
			<path class="st1" d="M697.56,690.55c6.01,0,10.88-4.87,10.88-10.88s-4.87-10.88-10.88-10.88c-6.01,0-10.88,4.87-10.88,10.88
				S691.55,690.55,697.56,690.55z"/>
			<path class="st1" d="M697.56,752.89c6.01,0,10.88-4.87,10.88-10.88c0-6.01-4.87-10.88-10.88-10.88
				c-6.01,0-10.88,4.87-10.88,10.88C686.68,748.02,691.55,752.89,697.56,752.89z"/>
			<path class="st1" d="M635.23,659.39c6.01,0,10.88-4.87,10.88-10.88s-4.87-10.88-10.88-10.88c-6.01,0-10.88,4.87-10.88,10.88
				S629.22,659.39,635.23,659.39z"/>
			<path class="st1" d="M635.23,721.72c6.01,0,10.88-4.87,10.88-10.88c0-6.01-4.87-10.88-10.88-10.88
				c-6.01,0-10.88,4.87-10.88,10.88C624.35,716.85,629.22,721.72,635.23,721.72z"/>
			<path class="st1" d="M635.23,784.06c6.01,0,10.88-4.87,10.88-10.88s-4.87-10.88-10.88-10.88c-6.01,0-10.88,4.87-10.88,10.88
				S629.22,784.06,635.23,784.06z"/>
			<path class="st1" d="M571.78,690.55c6.01,0,10.88-4.87,10.88-10.88s-4.87-10.88-10.88-10.88c-6.01,0-10.88,4.87-10.88,10.88
				S565.77,690.55,571.78,690.55z"/>
			<path class="st1" d="M571.78,752.89c6.01,0,10.88-4.87,10.88-10.88c0-6.01-4.87-10.88-10.88-10.88
				c-6.01,0-10.88,4.87-10.88,10.88C560.9,748.02,565.77,752.89,571.78,752.89z"/>
			<circle class="st1" cx="509.45" cy="648.5" r="10.88"/>
			<circle class="st1" cx="509.45" cy="710.84" r="10.88"/>
			<circle class="st1" cx="509.45" cy="773.17" r="10.88"/>
			<circle class="st1" cx="446" cy="679.67" r="10.88"/>
			<circle class="st1" cx="446" cy="742.01" r="10.88"/>
			<circle class="st1" cx="446" cy="804.34" r="10.88"/>
			<path class="st1" d="M383.66,699.96c-6.01,0-10.88,4.87-10.88,10.88c0,6.01,4.87,10.88,10.88,10.88
				c6.01,0,10.88-4.87,10.88-10.88C394.54,704.83,389.67,699.96,383.66,699.96z"/>
			<path class="st1" d="M383.66,762.29c-6.01,0-10.88,4.87-10.88,10.88s4.87,10.88,10.88,10.88c6.01,0,10.88-4.87,10.88-10.88
				S389.67,762.29,383.66,762.29z"/>
			<path class="st1" d="M1645.47,721.72c6.01,0,10.88-4.87,10.88-10.88c0-6.01-4.87-10.88-10.88-10.88
				c-6.01,0-10.88,4.87-10.88,10.88C1634.59,716.85,1639.46,721.72,1645.47,721.72z"/>
			<path class="st1" d="M1519.69,721.72c6.01,0,10.88-4.87,10.88-10.88c0-6.01-4.87-10.88-10.88-10.88
				c-6.01,0-10.88,4.87-10.88,10.88C1508.81,716.85,1513.68,721.72,1519.69,721.72z"/>
			<path class="st1" d="M1393.91,721.72c6.01,0,10.88-4.87,10.88-10.88c0-6.01-4.87-10.88-10.88-10.88s-10.88,4.87-10.88,10.88
				C1383.02,716.85,1387.9,721.72,1393.91,721.72z"/>
		</g>
	</g>
</g>
</svg>
