<?xml version="1.0" encoding="utf-8"?>
<!-- Generator: Adobe Illustrator 24.0.3, SVG Export Plug-In . SVG Version: 6.00 Build 0)  -->
<svg version="1.1" xmlns="http://www.w3.org/2000/svg" xmlns:xlink="http://www.w3.org/1999/xlink" x="0px" y="0px"
	 viewBox="0 0 2000 2000" style="enable-background:new 0 0 2000 2000;" xml:space="preserve">

<style type="text/css">
	<!--fill colour--> .st0{fill:#bf8776;}
	<!--stroke colour--> .st1{fill:#f1ede3;}
</style>

<g id="fill">
	<path class="st0" d="M1509.03,1271.04c67.34-81.56,107.8-186.13,107.8-300.16c0-260.53-211.2-471.73-471.73-471.73
		c-241.53,0-440.66,181.53-468.42,415.6c-26.67-9.37-55.35-14.49-85.23-14.49c-141.96,0-257.05,115.09-257.05,257.05
		c0,39.43,8.89,76.77,24.75,110.16h-19.1c-118.56,0-214.68,96.12-214.68,214.68c0,118.56,96.12,214.68,214.68,214.68h1129.89
		c118.56,0,214.68-96.12,214.68-214.68C1684.62,1376.95,1608.93,1289.42,1509.03,1271.04z"/>
</g>
<g id="stroke">
	<g>
		<g>
			<path class="st1" d="M1683.25,1490.39c0.45,0.07,0.91,0.12,1.38,0.12c4.61,0,8.35-3.74,8.35-8.35c0-22.63-3.39-44.57-9.73-65.31
				 M334.75,1697.25 M1682.75,1415.27c-22.88-72.92-82.28-130.56-158.75-149.54c64.77-83.2,101.18-186.51,101.18-294.85
				c0-64.81-12.69-127.68-37.73-186.87c-24.18-57.17-58.79-108.51-102.88-152.6c-44.09-44.09-95.43-78.7-152.6-102.88
				c-59.19-25.04-122.07-37.73-186.87-37.73c-118.26,0-231.89,43.38-319.95,122.15C740.34,688.82,685.4,791.72,669.7,903.65
				c-25.07-7.71-51.39-11.73-78.24-11.73c-60.27,0-117.09,19.69-164.3,56.95c-3.62,2.86-4.24,8.11-1.38,11.73
				c2.86,3.62,8.11,4.24,11.73,1.38c44.23-34.91,97.47-53.36,153.95-53.36c28.2,0,55.77,4.72,81.77,13.75
				c0.37,0.17,0.77,0.3,1.17,0.42c32.54,11.49,62.58,29.77,88.22,54.1c24.24,23,43.31,50.11,56.68,80.57
				c13.84,31.53,20.85,65.12,20.85,99.85c0,4.61,3.74,8.35,8.35,8.35s8.35-3.74,8.35-8.35c0-37.05-7.49-72.91-22.26-106.57
				c-14.27-32.51-34.62-61.44-60.48-85.98c-25.82-24.51-55.83-43.25-88.32-55.6c14.55-109.26,67.81-209.82,150.48-283.77
				c0.89-0.8,1.79-1.59,2.69-2.38c-1.33,1.81-2.13,4.03-2.13,6.44c0,6.01,4.87,10.88,10.88,10.88c6.01,0,10.88-4.87,10.88-10.88
				s-4.87-10.88-10.88-10.88c-1.86,0-3.61,0.47-5.15,1.29c84.08-72.53,191.17-112.38,302.52-112.38c46.68,0,92.32,6.83,136.21,20.33
				c-2.25,1.99-3.67,4.89-3.67,8.13c0,6.01,4.87,10.88,10.88,10.88c6.01,0,10.88-4.87,10.88-10.88c0-0.77-0.08-1.51-0.23-2.24
				c8.84,3.12,17.61,6.51,26.29,10.19c9.17,3.88,18.18,8.04,27.03,12.47c-0.54-0.08-1.08-0.14-1.64-0.14
				c-6.01,0-10.88,4.87-10.88,10.88c0,6.01,4.87,10.88,10.88,10.88c6.01,0,10.88-4.87,10.88-10.88c0-2.97-1.19-5.66-3.12-7.62
				c17.15,8.91,33.69,18.85,49.55,29.81c-2.86,1.96-4.74,5.25-4.74,8.98c0,6.01,4.87,10.88,10.88,10.88c4.96,0,9.13-3.32,10.44-7.85
				c16.84,12.78,32.87,26.75,48,41.89c42.56,42.56,75.97,92.11,99.31,147.29c24.16,57.12,36.41,117.81,36.41,180.36
				c0,108.81-38.05,212.38-105.42,294.29c-0.31,0.31-0.58,0.65-0.84,1.01c-27.9,33.73-60.78,63.77-98.05,88.95
				c-3.82,2.58-4.83,7.77-2.25,11.6c1.61,2.39,4.25,3.68,6.93,3.68c1.61,0,3.23-0.46,4.67-1.43c37.37-25.24,70.48-55.2,98.78-88.78
				c95.3,19.85,163.96,104.01,163.96,201.97c0,3.97,2.77,7.28,6.48,8.13"/>
			<path class="st1" d="M1540.09,796.19c6.01,0,10.88-4.87,10.88-10.88s-4.87-10.88-10.88-10.88s-10.88,4.87-10.88,10.88
				S1534.08,796.19,1540.09,796.19z"/>
			<path class="st1" d="M1540.09,858.53c6.01,0,10.88-4.87,10.88-10.88s-4.87-10.88-10.88-10.88s-10.88,4.87-10.88,10.88
				S1534.08,858.53,1540.09,858.53z"/>
			<path class="st1" d="M1540.09,920.86c6.01,0,10.88-4.87,10.88-10.88c0-6.01-4.87-10.88-10.88-10.88s-10.88,4.87-10.88,10.88
				C1529.21,915.99,1534.08,920.86,1540.09,920.86z"/>
			<path class="st1" d="M1476.65,702.69c6.01,0,10.88-4.87,10.88-10.88c0-6.01-4.87-10.88-10.88-10.88
				c-6.01,0-10.88,4.87-10.88,10.88C1465.76,697.82,1470.63,702.69,1476.65,702.69z"/>
			<path class="st1" d="M1476.65,765.03c6.01,0,10.88-4.87,10.88-10.88s-4.87-10.88-10.88-10.88c-6.01,0-10.88,4.87-10.88,10.88
				S1470.63,765.03,1476.65,765.03z"/>
			<path class="st1" d="M1476.65,827.36c6.01,0,10.88-4.87,10.88-10.88s-4.87-10.88-10.88-10.88c-6.01,0-10.88,4.87-10.88,10.88
				S1470.63,827.36,1476.65,827.36z"/>
			<path class="st1" d="M1476.65,889.7c6.01,0,10.88-4.87,10.88-10.88c0-6.01-4.87-10.88-10.88-10.88
				c-6.01,0-10.88,4.87-10.88,10.88C1465.76,884.82,1470.63,889.7,1476.65,889.7z"/>
			<path class="st1" d="M1476.65,952.03c6.01,0,10.88-4.87,10.88-10.88c0-6.01-4.87-10.88-10.88-10.88
				c-6.01,0-10.88,4.87-10.88,10.88C1465.76,947.16,1470.63,952.03,1476.65,952.03z"/>
			<path class="st1" d="M1476.65,1014.37c6.01,0,10.88-4.87,10.88-10.88c0-6.01-4.87-10.88-10.88-10.88
				c-6.01,0-10.88,4.87-10.88,10.88C1465.76,1009.49,1470.63,1014.37,1476.65,1014.37z"/>
			<circle class="st1" cx="1414.31" cy="660.64" r="10.88"/>
			<path class="st1" d="M1414.31,733.86c6.01,0,10.88-4.87,10.88-10.88c0-6.01-4.87-10.88-10.88-10.88
				c-6.01,0-10.88,4.87-10.88,10.88C1403.43,728.99,1408.3,733.86,1414.31,733.86z"/>
			<path class="st1" d="M1414.31,796.19c6.01,0,10.88-4.87,10.88-10.88s-4.87-10.88-10.88-10.88c-6.01,0-10.88,4.87-10.88,10.88
				S1408.3,796.19,1414.31,796.19z"/>
			<path class="st1" d="M1414.31,858.53c6.01,0,10.88-4.87,10.88-10.88s-4.87-10.88-10.88-10.88c-6.01,0-10.88,4.87-10.88,10.88
				S1408.3,858.53,1414.31,858.53z"/>
			<path class="st1" d="M1414.31,920.86c6.01,0,10.88-4.87,10.88-10.88c0-6.01-4.87-10.88-10.88-10.88
				c-6.01,0-10.88,4.87-10.88,10.88C1403.43,915.99,1408.3,920.86,1414.31,920.86z"/>
			<circle class="st1" cx="1414.31" cy="972.32" r="10.88"/>
			<path class="st1" d="M1414.31,1045.53c6.01,0,10.88-4.87,10.88-10.88c0-6.01-4.87-10.88-10.88-10.88
				c-6.01,0-10.88,4.87-10.88,10.88C1403.43,1040.66,1408.3,1045.53,1414.31,1045.53z"/>
			<path class="st1" d="M1350.86,618.59c-6.01,0-10.88,4.87-10.88,10.88s4.87,10.88,10.88,10.88c6.01,0,10.88-4.87,10.88-10.88
				S1356.87,618.59,1350.86,618.59z"/>
			<path class="st1" d="M1350.86,680.93c-6.01,0-10.88,4.87-10.88,10.88c0,6.01,4.87,10.88,10.88,10.88
				c6.01,0,10.88-4.87,10.88-10.88C1361.74,685.8,1356.87,680.93,1350.86,680.93z"/>
			<path class="st1" d="M1350.86,743.26c-6.01,0-10.88,4.87-10.88,10.88s4.87,10.88,10.88,10.88c6.01,0,10.88-4.87,10.88-10.88
				S1356.87,743.26,1350.86,743.26z"/>
			<path class="st1" d="M1350.86,805.6c-6.01,0-10.88,4.87-10.88,10.88s4.87,10.88,10.88,10.88c6.01,0,10.88-4.87,10.88-10.88
				S1356.87,805.6,1350.86,805.6z"/>
			<path class="st1" d="M1350.86,867.93c-6.01,0-10.88,4.87-10.88,10.88c0,6.01,4.87,10.88,10.88,10.88
				c6.01,0,10.88-4.87,10.88-10.88C1361.74,872.8,1356.87,867.93,1350.86,867.93z"/>
			<path class="st1" d="M1350.86,930.27c-6.01,0-10.88,4.87-10.88,10.88c0,6.01,4.87,10.88,10.88,10.88
				c6.01,0,10.88-4.87,10.88-10.88C1361.74,935.14,1356.87,930.27,1350.86,930.27z"/>
			<path class="st1" d="M1350.86,992.6c-6.01,0-10.88,4.87-10.88,10.88c0,6.01,4.87,10.88,10.88,10.88
				c6.01,0,10.88-4.87,10.88-10.88C1361.74,997.47,1356.87,992.6,1350.86,992.6z"/>
			<path class="st1" d="M1288.53,587.43c-6.01,0-10.88,4.87-10.88,10.88c0,6.01,4.87,10.88,10.88,10.88
				c6.01,0,10.88-4.87,10.88-10.88C1299.41,592.3,1294.54,587.43,1288.53,587.43z"/>
			<path class="st1" d="M1288.53,649.76c-6.01,0-10.88,4.87-10.88,10.88c0,6.01,4.87,10.88,10.88,10.88
				c6.01,0,10.88-4.87,10.88-10.88C1299.41,654.63,1294.54,649.76,1288.53,649.76z"/>
			<path class="st1" d="M1288.53,712.1c-6.01,0-10.88,4.87-10.88,10.88c0,6.01,4.87,10.88,10.88,10.88
				c6.01,0,10.88-4.87,10.88-10.88C1299.41,716.97,1294.54,712.1,1288.53,712.1z"/>
			<path class="st1" d="M1288.53,774.43c-6.01,0-10.88,4.87-10.88,10.88s4.87,10.88,10.88,10.88c6.01,0,10.88-4.87,10.88-10.88
				S1294.54,774.43,1288.53,774.43z"/>
			<path class="st1" d="M1288.53,836.77c-6.01,0-10.88,4.87-10.88,10.88s4.87,10.88,10.88,10.88c6.01,0,10.88-4.87,10.88-10.88
				S1294.54,836.77,1288.53,836.77z"/>
			<path class="st1" d="M1288.53,899.1c-6.01,0-10.88,4.87-10.88,10.88c0,6.01,4.87,10.88,10.88,10.88
				c6.01,0,10.88-4.87,10.88-10.88C1299.41,903.97,1294.54,899.1,1288.53,899.1z"/>
			<path class="st1" d="M1288.53,961.44c-6.01,0-10.88,4.87-10.88,10.88s4.87,10.88,10.88,10.88c6.01,0,10.88-4.87,10.88-10.88
				S1294.54,961.44,1288.53,961.44z"/>
			<path class="st1" d="M1225.08,556.26c-6.01,0-10.88,4.87-10.88,10.88c0,6.01,4.87,10.88,10.88,10.88s10.88-4.87,10.88-10.88
				C1235.96,561.13,1231.09,556.26,1225.08,556.26z"/>
			<circle class="st1" cx="1225.08" cy="629.48" r="10.88"/>
			<path class="st1" d="M1225.08,680.93c-6.01,0-10.88,4.87-10.88,10.88c0,6.01,4.87,10.88,10.88,10.88s10.88-4.87,10.88-10.88
				C1235.96,685.8,1231.09,680.93,1225.08,680.93z"/>
			<path class="st1" d="M1225.08,743.26c-6.01,0-10.88,4.87-10.88,10.88s4.87,10.88,10.88,10.88s10.88-4.87,10.88-10.88
				S1231.09,743.26,1225.08,743.26z"/>
			<circle class="st1" cx="1225.08" cy="816.48" r="10.88"/>
			<path class="st1" d="M1225.08,867.93c-6.01,0-10.88,4.87-10.88,10.88c0,6.01,4.87,10.88,10.88,10.88s10.88-4.87,10.88-10.88
				C1235.96,872.8,1231.09,867.93,1225.08,867.93z"/>
			<path class="st1" d="M1225.08,992.6c-6.01,0-10.88,4.87-10.88,10.88c0,6.01,4.87,10.88,10.88,10.88s10.88-4.87,10.88-10.88
				C1235.96,997.47,1231.09,992.6,1225.08,992.6z"/>
			<path class="st1" d="M1162.74,525.09c-6.01,0-10.88,4.87-10.88,10.88c0,6.01,4.87,10.88,10.88,10.88
				c6.01,0,10.88-4.87,10.88-10.88C1173.63,529.96,1168.75,525.09,1162.74,525.09z"/>
			<path class="st1" d="M1162.74,587.43c-6.01,0-10.88,4.87-10.88,10.88c0,6.01,4.87,10.88,10.88,10.88
				c6.01,0,10.88-4.87,10.88-10.88C1173.63,592.3,1168.75,587.43,1162.74,587.43z"/>
			<circle class="st1" cx="1162.74" cy="660.64" r="10.88"/>
			<path class="st1" d="M1162.74,712.1c-6.01,0-10.88,4.87-10.88,10.88c0,6.01,4.87,10.88,10.88,10.88
				c6.01,0,10.88-4.87,10.88-10.88C1173.63,716.97,1168.75,712.1,1162.74,712.1z"/>
			<path class="st1" d="M1162.74,774.43c-6.01,0-10.88,4.87-10.88,10.88s4.87,10.88,10.88,10.88c6.01,0,10.88-4.87,10.88-10.88
				S1168.75,774.43,1162.74,774.43z"/>
			<path class="st1" d="M1162.74,836.77c-6.01,0-10.88,4.87-10.88,10.88s4.87,10.88,10.88,10.88c6.01,0,10.88-4.87,10.88-10.88
				S1168.75,836.77,1162.74,836.77z"/>
			<path class="st1" d="M1162.74,899.1c-6.01,0-10.88,4.87-10.88,10.88c0,6.01,4.87,10.88,10.88,10.88
				c6.01,0,10.88-4.87,10.88-10.88C1173.63,903.97,1168.75,899.1,1162.74,899.1z"/>
			<path class="st1" d="M1099.3,556.26c-6.01,0-10.88,4.87-10.88,10.88c0,6.01,4.87,10.88,10.88,10.88
				c6.01,0,10.88-4.87,10.88-10.88C1110.18,561.13,1105.31,556.26,1099.3,556.26z"/>
			<circle class="st1" cx="1099.3" cy="629.48" r="10.88"/>
			<path class="st1" d="M1099.3,680.93c-6.01,0-10.88,4.87-10.88,10.88c0,6.01,4.87,10.88,10.88,10.88
				c6.01,0,10.88-4.87,10.88-10.88C1110.18,685.8,1105.31,680.93,1099.3,680.93z"/>
			<path class="st1" d="M1099.3,743.26c-6.01,0-10.88,4.87-10.88,10.88s4.87,10.88,10.88,10.88c6.01,0,10.88-4.87,10.88-10.88
				S1105.31,743.26,1099.3,743.26z"/>
			<circle class="st1" cx="1099.3" cy="816.48" r="10.88"/>
			<path class="st1" d="M1036.96,525.09c-6.01,0-10.88,4.87-10.88,10.88c0,6.01,4.87,10.88,10.88,10.88s10.88-4.87,10.88-10.88
				C1047.84,529.96,1042.97,525.09,1036.96,525.09z"/>
			<path class="st1" d="M1036.96,587.43c-6.01,0-10.88,4.87-10.88,10.88c0,6.01,4.87,10.88,10.88,10.88s10.88-4.87,10.88-10.88
				C1047.84,592.3,1042.97,587.43,1036.96,587.43z"/>
			<circle class="st1" cx="1036.96" cy="660.64" r="10.88"/>
			<path class="st1" d="M1036.96,712.1c-6.01,0-10.88,4.87-10.88,10.88c0,6.01,4.87,10.88,10.88,10.88s10.88-4.87,10.88-10.88
				C1047.84,716.97,1042.97,712.1,1036.96,712.1z"/>
			<path class="st1" d="M973.51,556.26c-6.01,0-10.88,4.87-10.88,10.88c0,6.01,4.87,10.88,10.88,10.88
				c6.01,0,10.88-4.87,10.88-10.88C984.4,561.13,979.52,556.26,973.51,556.26z"/>
			<path class="st1" d="M973.51,618.59c-6.01,0-10.88,4.87-10.88,10.88s4.87,10.88,10.88,10.88c6.01,0,10.88-4.87,10.88-10.88
				S979.52,618.59,973.51,618.59z"/>
			<path class="st1" d="M973.51,680.93c-6.01,0-10.88,4.87-10.88,10.88c0,6.01,4.87,10.88,10.88,10.88
				c6.01,0,10.88-4.87,10.88-10.88C984.4,685.8,979.52,680.93,973.51,680.93z"/>
			<path class="st1" d="M973.51,743.26c-6.01,0-10.88,4.87-10.88,10.88s4.87,10.88,10.88,10.88c6.01,0,10.88-4.87,10.88-10.88
				S979.52,743.26,973.51,743.26z"/>
			<path class="st1" d="M911.18,587.43c-6.01,0-10.88,4.87-10.88,10.88c0,6.01,4.87,10.88,10.88,10.88
				c6.01,0,10.88-4.87,10.88-10.88C922.06,592.3,917.19,587.43,911.18,587.43z"/>
			<circle class="st1" cx="911.18" cy="660.64" r="10.88"/>
			<path class="st1" d="M911.18,712.1c-6.01,0-10.88,4.87-10.88,10.88c0,6.01,4.87,10.88,10.88,10.88c6.01,0,10.88-4.87,10.88-10.88
				C922.06,716.97,917.19,712.1,911.18,712.1z"/>
			<path class="st1" d="M847.73,680.93c-6.01,0-10.88,4.87-10.88,10.88c0,6.01,4.87,10.88,10.88,10.88
				c6.01,0,10.88-4.87,10.88-10.88C858.61,685.8,853.74,680.93,847.73,680.93z"/>
			<path class="st1" d="M847.73,743.26c-6.01,0-10.88,4.87-10.88,10.88s4.87,10.88,10.88,10.88c6.01,0,10.88-4.87,10.88-10.88
				S853.74,743.26,847.73,743.26z"/>
			<path class="st1" d="M847.73,1179.61c-6.01,0-10.88,4.87-10.88,10.88c0,6.01,4.87,10.88,10.88,10.88
				c6.01,0,10.88-4.87,10.88-10.88C858.61,1184.48,853.74,1179.61,847.73,1179.61z"/>
			<path class="st1" d="M785.4,712.1c-6.01,0-10.88,4.87-10.88,10.88c0,6.01,4.87,10.88,10.88,10.88c6.01,0,10.88-4.87,10.88-10.88
				C796.28,716.97,791.41,712.1,785.4,712.1z"/>
			<path class="st1" d="M785.4,1023.77c-6.01,0-10.88,4.87-10.88,10.88c0,6.01,4.87,10.88,10.88,10.88
				c6.01,0,10.88-4.87,10.88-10.88C796.28,1028.64,791.41,1023.77,785.4,1023.77z"/>
			<path class="st1" d="M785.4,1086.1c-6.01,0-10.88,4.87-10.88,10.88s4.87,10.88,10.88,10.88c6.01,0,10.88-4.87,10.88-10.88
				S791.41,1086.1,785.4,1086.1z"/>
			<path class="st1" d="M785.4,1148.44c-6.01,0-10.88,4.87-10.88,10.88s4.87,10.88,10.88,10.88c6.01,0,10.88-4.87,10.88-10.88
				S791.41,1148.44,785.4,1148.44z"/>
			<path class="st1" d="M785.4,1210.77c-6.01,0-10.88,4.87-10.88,10.88c0,6.01,4.87,10.88,10.88,10.88
				c6.01,0,10.88-4.87,10.88-10.88C796.28,1215.65,791.41,1210.77,785.4,1210.77z"/>
			<path class="st1" d="M721.95,992.6c-6.01,0-10.88,4.87-10.88,10.88c0,6.01,4.87,10.88,10.88,10.88s10.88-4.87,10.88-10.88
				C732.83,997.47,727.96,992.6,721.95,992.6z"/>
			<path class="st1" d="M721.95,1054.94c-6.01,0-10.88,4.87-10.88,10.88c0,6.01,4.87,10.88,10.88,10.88s10.88-4.87,10.88-10.88
				C732.83,1059.81,727.96,1054.94,721.95,1054.94z"/>
			<circle class="st1" cx="721.95" cy="1128.15" r="10.88"/>
			<path class="st1" d="M721.95,1179.61c-6.01,0-10.88,4.87-10.88,10.88c0,6.01,4.87,10.88,10.88,10.88s10.88-4.87,10.88-10.88
				C732.83,1184.48,727.96,1179.61,721.95,1179.61z"/>
			<path class="st1" d="M721.95,1241.94c-6.01,0-10.88,4.87-10.88,10.88c0,6.01,4.87,10.88,10.88,10.88s10.88-4.87,10.88-10.88
				C732.83,1246.81,727.96,1241.94,721.95,1241.94z"/>
			<circle class="st1" cx="659.61" cy="972.32" r="10.88"/>
			<path class="st1" d="M659.61,1023.77c-6.01,0-10.88,4.87-10.88,10.88c0,6.01,4.87,10.88,10.88,10.88
				c6.01,0,10.88-4.87,10.88-10.88C670.49,1028.64,665.62,1023.77,659.61,1023.77z"/>
			<path class="st1" d="M659.61,1086.1c-6.01,0-10.88,4.87-10.88,10.88s4.87,10.88,10.88,10.88c6.01,0,10.88-4.87,10.88-10.88
				S665.62,1086.1,659.61,1086.1z"/>
			<path class="st1" d="M659.61,1148.44c-6.01,0-10.88,4.87-10.88,10.88s4.87,10.88,10.88,10.88c6.01,0,10.88-4.87,10.88-10.88
				S665.62,1148.44,659.61,1148.44z"/>
			<path class="st1" d="M659.61,1210.77c-6.01,0-10.88,4.87-10.88,10.88c0,6.01,4.87,10.88,10.88,10.88
				c6.01,0,10.88-4.87,10.88-10.88C670.49,1215.65,665.62,1210.77,659.61,1210.77z"/>
			<path class="st1" d="M596.17,930.27c-6.01,0-10.88,4.87-10.88,10.88c0,6.01,4.87,10.88,10.88,10.88
				c6.01,0,10.88-4.87,10.88-10.88C607.05,935.14,602.17,930.27,596.17,930.27z"/>
			<path class="st1" d="M596.17,992.6c-6.01,0-10.88,4.87-10.88,10.88c0,6.01,4.87,10.88,10.88,10.88c6.01,0,10.88-4.87,10.88-10.88
				C607.05,997.47,602.17,992.6,596.17,992.6z"/>
			<path class="st1" d="M596.17,1054.94c-6.01,0-10.88,4.87-10.88,10.88c0,6.01,4.87,10.88,10.88,10.88
				c6.01,0,10.88-4.87,10.88-10.88C607.05,1059.81,602.17,1054.94,596.17,1054.94z"/>
			<circle class="st1" cx="533.83" cy="972.32" r="10.88"/>
			<path class="st1" d="M533.83,1023.77c-6.01,0-10.88,4.87-10.88,10.88c0,6.01,4.87,10.88,10.88,10.88s10.88-4.87,10.88-10.88
				C544.71,1028.64,539.84,1023.77,533.83,1023.77z"/>
			<path class="st1" d="M533.83,1148.44c-6.01,0-10.88,4.87-10.88,10.88s4.87,10.88,10.88,10.88s10.88-4.87,10.88-10.88
				S539.84,1148.44,533.83,1148.44z"/>
			<path class="st1" d="M470.38,992.6c-6.01,0-10.88,4.87-10.88,10.88c0,6.01,4.87,10.88,10.88,10.88c6.01,0,10.88-4.87,10.88-10.88
				C481.26,997.47,476.39,992.6,470.38,992.6z"/>
			<path class="st1" d="M1540.09,1333.64c-6.01,0-10.88,4.87-10.88,10.88c0,6.01,4.87,10.88,10.88,10.88s10.88-4.87,10.88-10.88
				C1550.97,1338.51,1546.1,1333.64,1540.09,1333.64z"/>
			<path class="st1" d="M1540.09,1395.97c-6.01,0-10.88,4.87-10.88,10.88c0,6.01,4.87,10.88,10.88,10.88s10.88-4.87,10.88-10.88
				C1550.97,1400.85,1546.1,1395.97,1540.09,1395.97z"/>
			<path class="st1" d="M1476.65,1364.81c-6.01,0-10.88,4.87-10.88,10.88c0,6.01,4.87,10.88,10.88,10.88
				c6.01,0,10.88-4.87,10.88-10.88C1487.53,1369.68,1482.65,1364.81,1476.65,1364.81z"/>
			<path class="st1" d="M1476.65,1427.14c-6.01,0-10.88,4.87-10.88,10.88c0,6.01,4.87,10.88,10.88,10.88
				c6.01,0,10.88-4.87,10.88-10.88C1487.53,1432.01,1482.65,1427.14,1476.65,1427.14z"/>
			<path class="st1" d="M1414.31,1395.97c-6.01,0-10.88,4.87-10.88,10.88c0,6.01,4.87,10.88,10.88,10.88
				c6.01,0,10.88-4.87,10.88-10.88C1425.19,1400.85,1420.32,1395.97,1414.31,1395.97z"/>
			<path class="st1" d="M785.4,1271.3c-6.01,0-10.88,4.87-10.88,10.88s4.87,10.88,10.88,10.88c6.01,0,10.88-4.87,10.88-10.88
				S791.41,1271.3,785.4,1271.3z"/>
			<path class="st1" d="M659.61,1333.64c-6.01,0-10.88,4.87-10.88,10.88c0,6.01,4.87,10.88,10.88,10.88
				c6.01,0,10.88-4.87,10.88-10.88C670.49,1338.51,665.62,1333.64,659.61,1333.64z"/>
			<path class="st1" d="M1606.41,1364.81c-6.01,0-10.88,4.87-10.88,10.88c0,6.01,4.87,10.88,10.88,10.88
				c6.01,0,10.88-4.87,10.88-10.88C1617.29,1369.68,1612.42,1364.81,1606.41,1364.81z"/>
			<path class="st1" d="M1606.41,1427.14c-6.01,0-10.88,4.87-10.88,10.88c0,6.01,4.87,10.88,10.88,10.88
				c6.01,0,10.88-4.87,10.88-10.88C1617.29,1432.01,1612.42,1427.14,1606.41,1427.14z"/>
		</g>
	</g>
</g>
</svg>
