<?xml version="1.0" encoding="utf-8"?>
<!-- Generator: Adobe Illustrator 24.0.3, SVG Export Plug-In . SVG Version: 6.00 Build 0)  -->
<svg version="1.1" xmlns="http://www.w3.org/2000/svg" xmlns:xlink="http://www.w3.org/1999/xlink" x="0px" y="0px"
	 viewBox="0 0 2000 2000" style="enable-background:new 0 0 2000 2000;" xml:space="preserve">

<g id="fill">
	<path class="st0" d="M1683.74,1082.28c0-337.86-273.88-611.74-611.74-611.74s-611.74,273.88-611.74,611.74
		c0,90.09,19.51,175.6,54.51,252.58c-7.38,26.2-10.35,53.63-8.3,80.79c2,26.44,8.48,52.7,6.6,79.15
		c-3.41,48.25-33.97,97.52-14.75,141.91c17.42,40.24,73.45,54.23,112.15,33.62c38.73-20.59,58.81-67.24,56.57-111.02
		c-0.47-9.24-1.79-18.41-3.61-27.52c114.17,102.79,259.54,153.92,403.47,155.65l-0.03-0.41c15.43,0.15,30.92-5.67,42.7-17.44
		c23.3-23.31,21.1-63.32,7.03-77.38c-14.06-14.06-28.13-14.06-67.3-21.67c-86.24-12.5-196.1-13.43-303.63-123.05
		c11.73,1.12,23.69,1.35,35.82,0.61c42.41-2.57,83.09,3.08,122.82,18.13c32.9,12.46,67.46,30.79,101.31,21.16
		c11.6-3.3,22.1-9.76,31.71-17.05c21.23-16.12,40.06-39.69,38.67-66.31c-1.09-20.94-14.33-38.96-26.21-56.24
		c-27.92-40.62-50.81-92.71-53.81-141.91c-0.05-0.88-0.13-1.75-0.19-2.62c22.92,27.57,41.29,60.56,68.46,84.2
		c33.08,28.78,82.17,41.74,122.28,23.99c40.1-17.74,63.66-70.47,42.75-109c-19.39-35.75-63.24-45.93-100.52-64.38
		c64.67-21.69,130.37-33.96,197.7-41c6.63,6.07,13.35,12.05,20.05,18.01c-18.29,3.01-37.44,6.38-52.02,17.85
		c-14.56,11.47-22.36,33.81-11.78,49.05c6.81,9.8,19.02,14.12,30.64,16.86c0,0,168.72,19.62,240.5-111.51
		c3.51-0.03,7.02-0.05,10.54-0.08c9.95,169.11-72.18,251.76-126.89,325.01c-22.32,33.09-32.26,43.02-32.26,62.92
		c0,19.9,26.73,49.74,59.69,49.74c16.66,0,31.71-6.84,42.55-17.85l0.25,0.32c105.94-108.51,174.25-256.92,176.04-420.14l-0.15,0.63
		C1683.62,1086.01,1683.74,1084.16,1683.74,1082.28z M701.39,1458.84c4.28-5.56,8.63-11.06,13.03-16.53
		c0.94,0.23,1.89,0.45,2.84,0.66L701.39,1458.84z"/>
</g>
<g id="stroke">
	<g>
		<g>
			<path class="st1" d="M1692.01,1085.68c0.04-1.13,0.07-2.26,0.07-3.4c0-83.71-16.4-164.92-48.73-241.37
				c-31.23-73.84-75.94-140.16-132.88-197.1s-123.26-101.66-197.1-132.89c-76.45-32.34-157.66-48.73-241.37-48.73
				c-4.61,0-8.35,3.74-8.35,8.35s3.74,8.35,8.35,8.35c81.46,0,160.48,15.95,234.86,47.41c71.85,30.39,136.38,73.9,191.79,129.31
				c55.42,55.42,98.92,119.95,129.31,191.79c31.46,74.38,47.41,153.4,47.41,234.86c0,0.96-0.03,1.9-0.06,2.85
				c-0.03,0.88-0.06,1.77-0.07,2.65c-0.01,0.49,0.03,0.97,0.11,1.44c-1.12,77.6-17.35,153.39-48.26,225.31
				c-29.5,68.65-71.06,130.93-123.52,185.12c-0.76,0.4-1.47,0.92-2.09,1.55c-9.73,9.91-22.72,15.36-36.58,15.36
				c-4.61,0-8.35,3.74-8.35,8.35s3.74,8.35,8.35,8.35c17.44,0,33.83-6.51,46.48-18.38c0.85-0.42,1.63-0.98,2.3-1.67
				c54.78-56.11,98.1-120.74,128.76-192.1c32.05-74.59,48.76-153.25,49.64-233.79c0-0.44-0.02-0.87-0.08-1.29
				C1692,1085.93,1692.01,1085.81,1692.01,1085.68z"/>
			<path class="st1" d="M1572.11,1068.39c1.76-4.27-0.28-9.15-4.54-10.9c-4.27-1.76-9.15,0.28-10.9,4.54
				c-13.97,33.93-35.25,61.77-63.25,82.74c-22.52,16.87-49.47,29.42-80.1,37.3c-49.93,12.85-93.71,9-98.57,8.52
				c-8.99-2.15-19.82-5.64-25.19-13.38c-7.88-11.34-1-28.98,10.09-37.72c13.25-10.42,31.83-13.48,48.21-16.18
				c3.18-0.52,5.77-2.83,6.67-5.92c0.9-3.09-0.07-6.43-2.47-8.57c-27.51-24.46-55.95-49.76-76.72-80.43
				c-22.61-33.43-32.38-69.35-27.51-101.13c5.21-34,28.65-66.46,61.17-84.72c30.46-17.12,68.33-22.78,106.64-15.91
				c4.54,0.81,8.88-2.21,9.7-6.75c0.81-4.54-2.21-8.88-6.75-9.69c-42.12-7.55-83.95-1.23-117.77,17.79
				c-37.45,21.03-63.43,57.2-69.5,96.75c-5.51,35.95,5.21,76.09,30.19,113.02c18.64,27.54,42.56,50.46,66.68,72.16
				c-13.33,2.86-27.33,7.37-38.88,16.45c-8.65,6.82-15.29,16.83-18.2,27.46c-3.31,12.06-1.63,23.75,4.73,32.91
				c8.71,12.54,23.59,17.4,35.58,20.23c0.31,0.07,0.63,0.13,0.95,0.17c0.85,0.1,10.06,1.13,24.71,1.13c19.35,0,48.2-1.79,79.85-9.87
				c32.86-8.39,61.87-21.87,86.23-40.05C1533.73,1135.52,1556.93,1105.25,1572.11,1068.39z"/>
			<path class="st1" d="M1159,1142.46c-15.83-6.73-32.2-13.68-45.82-22.9c-13.58-9.19-25.02-20.95-37.12-33.4
				c-6.45-6.63-13.11-13.48-20.12-19.9c-26.01-23.77-58.09-41.98-92.79-52.66c-31.69-9.76-65.1-13.08-97.22-9.76
				c-34.87-15.93-73.33-23.17-112.67-20.78c-4.6,0.28-8.11,4.24-7.83,8.84c0.28,4.6,4.26,8.13,8.84,7.83
				c121.34-7.37,226.02,85.35,233.38,206.67c2.79,45.85,22.93,99.11,55.26,146.14l2.06,2.99c8.42,12.21,17.06,24.74,20.81,37.99
				c-5.49-1.16-12.47-2.2-20-2.26c-0.24,0-0.47,0-0.71,0c-23.5,0-40.87,9.56-50.28,27.66c-12.78,24.59-2.48,47.23,8.59,60.45
				c-0.02,0-0.03,0.01-0.05,0.01c-25.75,7.32-53.42-3.85-80.19-14.66c-5.21-2.1-10.59-4.28-15.88-6.28
				c-40.34-15.28-81.66-21.38-126.29-18.66c-0.15,0.01-0.31,0.02-0.47,0.04c-0.26,0.03-13.14,1.47-29.73,0.96
				c-4.98-5.11-9.91-10.39-14.78-15.86c-3.06-3.45-8.34-3.76-11.79-0.69c-3.45,3.06-3.76,8.34-0.69,11.79
				c102,114.75,208.1,128.03,293.35,138.7c10.81,1.35,21.02,2.63,31.03,4.08c7.03,1.36,13.27,2.49,18.78,3.48
				c24.98,4.5,34.33,6.18,44.02,15.86c5.4,5.4,8.56,16.77,8.06,28.97c-0.34,8.37-2.76,24.25-15.1,36.58
				c-9.47,9.49-22.2,14.79-35.82,14.92c-4.61,0.04-8.32,3.82-8.27,8.43c0.04,4.59,3.77,8.27,8.35,8.27c0.03,0,0.05,0,0.08,0
				c18.03-0.17,34.9-7.21,47.48-19.82c12.11-12.1,19.21-29.04,19.98-47.7c0.71-17.16-4.13-32.67-12.94-41.47
				c-13.39-13.38-26.58-15.76-52.87-20.49c-5.51-0.99-11.75-2.12-18.75-3.47c-0.13-0.03-0.26-0.05-0.39-0.07
				c-10.23-1.48-20.58-2.78-31.55-4.15c-41.56-5.2-88.66-11.09-136.62-29.34c-41.8-15.91-79.52-39.41-114.37-71.35
				c7.64-0.3,12.93-0.85,14.26-1c42.15-2.54,81.12,3.22,119.14,17.62c5.11,1.94,10.41,4.08,15.54,6.15
				c22.35,9.02,45.28,18.28,68.73,18.28c7.37,0,14.8-0.92,22.28-3.04c11.11-3.15,22.06-9.01,34.48-18.43
				c16.45-12.49,43.78-38.64,41.96-73.4c-1.15-22.1-14.15-40.95-25.62-57.57l-2.04-2.97c-24.27-35.31-41.28-74.11-48.61-110.03
				c1.37,1.88,2.73,3.77,4.11,5.67c13.91,19.24,28.29,39.13,46.6,55.06c25.5,22.19,57.62,34.07,88.23,34.07
				c14.99,0,29.62-2.85,42.92-8.74c23.12-10.23,42.05-31.41,50.66-56.65c7.66-22.46,6.25-45.18-3.95-63.98
				C1220.39,1168.55,1189.18,1155.29,1159,1142.46z M1032.28,1463.7c-4.45,3.38-8.63,6.2-12.65,8.54
				c-2.34-2.33-6.21-6.64-9.31-12.34c-6.11-11.23-6.34-22.43-0.7-33.29c6.43-12.38,18.36-18.66,35.46-18.66c0.06,0,0.11,0,0.17,0
				c9.09,0.02,17.43,1.84,22.24,3.14C1065.09,1436.1,1042.52,1455.93,1032.28,1463.7z M1224.75,1257.05
				c-7.12,20.91-22.68,38.39-41.6,46.76c-34.64,15.33-80.22,6.23-113.41-22.65c-16.86-14.67-30.67-33.77-44.02-52.24
				c-7.01-9.7-14.13-19.52-21.78-28.89c-5.07-61.13-33.02-117-79.1-157.8c-9.6-8.5-19.77-16.13-30.38-22.88
				c21.38,0.39,42.97,3.81,63.77,10.22c32.36,9.96,62.25,26.92,86.43,49.03c6.64,6.08,13.13,12.76,19.41,19.21
				c12.16,12.51,24.73,25.44,39.74,35.59c14.97,10.12,32.09,17.4,48.65,24.44c28.81,12.25,56.03,23.82,69.48,48.6
				C1229.89,1221.07,1230.89,1239.05,1224.75,1257.05z"/>
			<path class="st1" d="M957.6,1200.1c3.43-3.08,3.72-8.36,0.64-11.8c-3.08-3.43-8.36-3.72-11.8-0.64
				c-22.45,20.14-33.32,52.28-27.68,81.9c0.76,4,4.27,6.79,8.2,6.79c0.52,0,1.04-0.05,1.57-0.15c4.53-0.86,7.51-5.24,6.64-9.77
				C930.61,1242.45,939.42,1216.42,957.6,1200.1z"/>
			<path class="st1" d="M773.6,1410.89c2.97,0,5.84-1.58,7.35-4.38c11.64-21.48,34.92-36.08,59.31-37.21
				c4.61-0.21,8.17-4.12,7.96-8.73c-0.21-4.48-3.9-7.97-8.34-7.97c-0.13,0-0.26,0-0.39,0.01c-30.12,1.39-58.86,19.42-73.23,45.94
				c-2.2,4.06-0.69,9.13,3.37,11.32C770.9,1410.56,772.26,1410.89,773.6,1410.89z"/>
			<path class="st1" d="M660.82,1488.25c-8.68-30.21-16.88-58.74-12.86-87.83c2.38-17.16,9.08-33.57,19.38-47.46
				c2.75-3.71,1.97-8.94-1.73-11.69c-3.71-2.75-8.94-1.97-11.69,1.73c-11.97,16.13-19.75,35.19-22.52,55.12
				c-4.5,32.6,4.58,64.18,13.36,94.73c6.29,21.91,12.8,44.56,13.94,66.89c2.25,43.95-18.71,85.44-52.15,103.23
				c-4.07,2.17-5.62,7.22-3.45,11.3c1.5,2.82,4.39,4.43,7.38,4.43c1.32,0,2.67-0.32,3.92-0.98c39.05-20.78,63.56-68.53,60.99-118.83
				C674.15,1534.65,667.38,1511.06,660.82,1488.25z"/>
			<path class="st1" d="M1235.33,584.42c6.01,0,10.88-4.87,10.88-10.88s-4.87-10.88-10.88-10.88c-6.01,0-10.88,4.87-10.88,10.88
				S1229.32,584.42,1235.33,584.42z"/>
			<path class="st1" d="M1235.33,646.76c6.01,0,10.88-4.87,10.88-10.88c0-6.01-4.87-10.88-10.88-10.88
				c-6.01,0-10.88,4.87-10.88,10.88C1224.45,641.89,1229.32,646.76,1235.33,646.76z"/>
			<path class="st1" d="M1173,553.26c6.01,0,10.88-4.87,10.88-10.88s-4.87-10.88-10.88-10.88c-6.01,0-10.88,4.87-10.88,10.88
				S1166.99,553.26,1173,553.26z"/>
			<path class="st1" d="M1173,615.59c6.01,0,10.88-4.87,10.88-10.88c0-6.01-4.87-10.88-10.88-10.88c-6.01,0-10.88,4.87-10.88,10.88
				C1162.11,610.72,1166.99,615.59,1173,615.59z"/>
			<path class="st1" d="M1173,677.93c6.01,0,10.88-4.87,10.88-10.88c0-6.01-4.87-10.88-10.88-10.88c-6.01,0-10.88,4.87-10.88,10.88
				C1162.11,673.06,1166.99,677.93,1173,677.93z"/>
			<path class="st1" d="M1173,740.26c6.01,0,10.88-4.87,10.88-10.88c0-6.01-4.87-10.88-10.88-10.88c-6.01,0-10.88,4.87-10.88,10.88
				C1162.11,735.39,1166.99,740.26,1173,740.26z"/>
			<path class="st1" d="M1109.55,584.42c6.01,0,10.88-4.87,10.88-10.88s-4.87-10.88-10.88-10.88c-6.01,0-10.88,4.87-10.88,10.88
				S1103.54,584.42,1109.55,584.42z"/>
			<path class="st1" d="M1109.55,646.76c6.01,0,10.88-4.87,10.88-10.88c0-6.01-4.87-10.88-10.88-10.88
				c-6.01,0-10.88,4.87-10.88,10.88C1098.67,641.89,1103.54,646.76,1109.55,646.76z"/>
			<path class="st1" d="M1109.55,709.09c6.01,0,10.88-4.87,10.88-10.88c0-6.01-4.87-10.88-10.88-10.88
				c-6.01,0-10.88,4.87-10.88,10.88C1098.67,704.22,1103.54,709.09,1109.55,709.09z"/>
			<path class="st1" d="M1109.55,771.43c6.01,0,10.88-4.87,10.88-10.88c0-6.01-4.87-10.88-10.88-10.88
				c-6.01,0-10.88,4.87-10.88,10.88C1098.67,766.56,1103.54,771.43,1109.55,771.43z"/>
			<path class="st1" d="M1047.21,553.26c6.01,0,10.88-4.87,10.88-10.88s-4.87-10.88-10.88-10.88c-6.01,0-10.88,4.87-10.88,10.88
				S1041.2,553.26,1047.21,553.26z"/>
			<path class="st1" d="M1047.21,615.59c6.01,0,10.88-4.87,10.88-10.88c0-6.01-4.87-10.88-10.88-10.88
				c-6.01,0-10.88,4.87-10.88,10.88C1036.33,610.72,1041.2,615.59,1047.21,615.59z"/>
			<path class="st1" d="M1047.21,677.93c6.01,0,10.88-4.87,10.88-10.88c0-6.01-4.87-10.88-10.88-10.88
				c-6.01,0-10.88,4.87-10.88,10.88C1036.33,673.06,1041.2,677.93,1047.21,677.93z"/>
			<path class="st1" d="M1047.21,740.26c6.01,0,10.88-4.87,10.88-10.88c0-6.01-4.87-10.88-10.88-10.88
				c-6.01,0-10.88,4.87-10.88,10.88C1036.33,735.39,1041.2,740.26,1047.21,740.26z"/>
			<path class="st1" d="M1047.21,802.6c6.01,0,10.88-4.87,10.88-10.88c0-6.01-4.87-10.88-10.88-10.88
				c-6.01,0-10.88,4.87-10.88,10.88C1036.33,797.73,1041.2,802.6,1047.21,802.6z"/>
			<circle class="st1" cx="983.76" cy="511.21" r="10.88"/>
			<circle class="st1" cx="983.76" cy="573.54" r="10.88"/>
			<circle class="st1" cx="983.76" cy="635.88" r="10.88"/>
			<path class="st1" d="M983.76,709.09c6.01,0,10.88-4.87,10.88-10.88c0-6.01-4.87-10.88-10.88-10.88s-10.88,4.87-10.88,10.88
				C972.88,704.22,977.75,709.09,983.76,709.09z"/>
			<path class="st1" d="M983.76,771.43c6.01,0,10.88-4.87,10.88-10.88c0-6.01-4.87-10.88-10.88-10.88s-10.88,4.87-10.88,10.88
				C972.88,766.56,977.75,771.43,983.76,771.43z"/>
			<circle class="st1" cx="983.76" cy="822.88" r="10.88"/>
			<circle class="st1" cx="983.76" cy="885.22" r="10.88"/>
			<circle class="st1" cx="921.43" cy="542.38" r="10.88"/>
			<circle class="st1" cx="921.43" cy="604.71" r="10.88"/>
			<path class="st1" d="M921.43,677.93c6.01,0,10.88-4.87,10.88-10.88c0-6.01-4.87-10.88-10.88-10.88s-10.88,4.87-10.88,10.88
				C910.55,673.06,915.42,677.93,921.43,677.93z"/>
			<path class="st1" d="M921.43,740.26c6.01,0,10.88-4.87,10.88-10.88c0-6.01-4.87-10.88-10.88-10.88s-10.88,4.87-10.88,10.88
				C910.55,735.39,915.42,740.26,921.43,740.26z"/>
			<circle class="st1" cx="921.43" cy="791.71" r="10.88"/>
			<circle class="st1" cx="921.43" cy="854.05" r="10.88"/>
			<path class="st1" d="M857.98,584.42c6.01,0,10.88-4.87,10.88-10.88s-4.87-10.88-10.88-10.88c-6.01,0-10.88,4.87-10.88,10.88
				S851.97,584.42,857.98,584.42z"/>
			<path class="st1" d="M857.98,646.76c6.01,0,10.88-4.87,10.88-10.88c0-6.01-4.87-10.88-10.88-10.88
				c-6.01,0-10.88,4.87-10.88,10.88C847.1,641.89,851.97,646.76,857.98,646.76z"/>
			<path class="st1" d="M857.98,709.09c6.01,0,10.88-4.87,10.88-10.88c0-6.01-4.87-10.88-10.88-10.88
				c-6.01,0-10.88,4.87-10.88,10.88C847.1,704.22,851.97,709.09,857.98,709.09z"/>
			<path class="st1" d="M857.98,771.43c6.01,0,10.88-4.87,10.88-10.88c0-6.01-4.87-10.88-10.88-10.88
				c-6.01,0-10.88,4.87-10.88,10.88C847.1,766.56,851.97,771.43,857.98,771.43z"/>
			<path class="st1" d="M857.98,833.76c6.01,0,10.88-4.87,10.88-10.88c0-6.01-4.87-10.88-10.88-10.88
				c-6.01,0-10.88,4.87-10.88,10.88C847.1,828.89,851.97,833.76,857.98,833.76z"/>
			<path class="st1" d="M857.98,896.1c6.01,0,10.88-4.87,10.88-10.88s-4.87-10.88-10.88-10.88c-6.01,0-10.88,4.87-10.88,10.88
				S851.97,896.1,857.98,896.1z"/>
			<circle class="st1" cx="795.65" cy="604.71" r="10.88"/>
			<path class="st1" d="M795.65,677.93c6.01,0,10.88-4.87,10.88-10.88c0-6.01-4.87-10.88-10.88-10.88
				c-6.01,0-10.88,4.87-10.88,10.88C784.77,673.06,789.64,677.93,795.65,677.93z"/>
			<path class="st1" d="M795.65,740.26c6.01,0,10.88-4.87,10.88-10.88c0-6.01-4.87-10.88-10.88-10.88
				c-6.01,0-10.88,4.87-10.88,10.88C784.77,735.39,789.64,740.26,795.65,740.26z"/>
			<circle class="st1" cx="795.65" cy="791.71" r="10.88"/>
			<path class="st1" d="M732.2,646.76c6.01,0,10.88-4.87,10.88-10.88c0-6.01-4.87-10.88-10.88-10.88c-6.01,0-10.88,4.87-10.88,10.88
				C721.32,641.89,726.19,646.76,732.2,646.76z"/>
			<path class="st1" d="M732.2,709.09c6.01,0,10.88-4.87,10.88-10.88c0-6.01-4.87-10.88-10.88-10.88c-6.01,0-10.88,4.87-10.88,10.88
				C721.32,704.22,726.19,709.09,732.2,709.09z"/>
			<path class="st1" d="M732.2,833.76c6.01,0,10.88-4.87,10.88-10.88c0-6.01-4.87-10.88-10.88-10.88c-6.01,0-10.88,4.87-10.88,10.88
				C721.32,828.89,726.19,833.76,732.2,833.76z"/>
		</g>
	</g>
</g>
</svg>
