<?xml version="1.0" encoding="utf-8"?>
<!-- Generator: Adobe Illustrator 24.0.3, SVG Export Plug-In . SVG Version: 6.00 Build 0)  -->
<svg version="1.1" xmlns="http://www.w3.org/2000/svg" xmlns:xlink="http://www.w3.org/1999/xlink" x="0px" y="0px"
	 viewBox="0 0 2000 2000" style="enable-background:new 0 0 2000 2000;" xml:space="preserve">

<style type="text/css">
	<!--fill colour--> .st0{fill:#bf8776;}
	<!--stroke colour--> .st1{fill:#f1ede3;}
</style>

<g id="fill">
	<path class="st0" d="M1684.63,749.24c0-233.1-203.12-422.06-453.69-422.06h4.12c-250.57,0-453.69,188.96-453.69,422.06"/>
	<g>
		<g>
			<g>
				<path class="st0" d="M781.37,749.24v278.06c0,55,45,100,100,100h703.25c55,0,100-45,100-100V749.24"/>
			</g>
		</g>
	</g>
	<g>
		<path class="st0" d="M1246.5,1127.29h338.13c55,0,100-45,100-100V749.24"/>
	</g>
	<path class="st0" d="M1230.94,964.08c-250.57,0-453.69,203.12-453.69,453.69v269.19h907.37v-269.19
		C1684.63,1167.2,1481.51,964.08,1230.94,964.08z"/>
</g>
<g id="stroke">
	<g>
		<g>
			<path class="st1" d="M1656.67,1237.92c-15.64-36.98-35.82-71.42-60.26-102.91c50.07-5.44,90-45.12,95.82-95.08
				c0.47-1.05,0.74-2.2,0.74-3.43v-9.21V749.24c0-58.18-12.25-114.62-36.4-167.74c-23.31-51.27-56.67-97.3-99.14-136.81
				c-42.43-39.48-91.84-70.47-146.84-92.11c-56.91-22.39-117.36-33.75-179.65-33.75c-4.61,0-8.35,3.74-8.35,8.35
				s3.74,8.35,8.35,8.35c60.2,0,118.58,10.96,173.54,32.59c53.05,20.87,100.68,50.75,141.58,88.79
				c40.85,38.01,72.92,82.25,95.31,131.5c23.16,50.94,34.9,105.05,34.9,160.83v278.06c0,50.53-41.11,91.65-91.65,91.65h-1.26
				c-8.16-9.6-16.73-18.9-25.72-27.89c-32.57-32.57-69.26-59.76-109.44-81.17c10.17-8.13,19.94-16.83,29.24-26.14
				c32.01-32.01,57.15-69.3,74.71-110.81c18.18-42.99,27.4-88.64,27.4-135.7c0-4.61-3.74-8.35-8.35-8.35H890.68
				c-4.61,0-8.35,3.74-8.35,8.35s3.74,8.35,8.35,8.35h672.07c-2.1,85.53-36.4,165.63-97.11,226.34
				c-62.69,62.69-146.04,97.21-234.7,97.21c-4.61,0-8.35,3.74-8.35,8.35s3.74,8.35,8.35,8.35c47.06,0,92.72-9.22,135.7-27.4
				c23.72-10.03,46.04-22.54,66.8-37.39c41.43,21.15,79.15,48.55,112.4,81.8c29.65,29.65,54.66,62.86,74.74,99.08
				c1.85,6.48,15.15,55.56,11.87,117.97c-2.04,38.93-10.05,75.39-23.79,108.35c-16.05,38.51-40.06,72.39-71.42,100.83
				c-3.32-17.28-12.45-33.54-27.08-45.56c-3.56-2.93-8.83-2.41-11.76,1.15c-2.93,3.56-2.41,8.83,1.15,11.76
				c26.17,21.51,29.97,60.3,8.47,86.48c-10.42,12.68-25.15,20.54-41.49,22.14c-16.34,1.6-32.31-3.26-44.99-13.68
				c-3.56-2.93-8.83-2.42-11.76,1.15c-2.93,3.56-2.41,8.83,1.15,11.76c14.11,11.6,31.44,17.78,49.47,17.78
				c2.57,0,5.16-0.12,7.75-0.38c20.78-2.03,39.52-12.04,52.77-28.17c10.76-13.1,16.52-28.68,17.54-44.43
				c1.18-0.31,2.31-0.89,3.3-1.74c36.57-31.35,64.31-69.36,82.44-113c14.47-34.82,22.86-73.23,24.95-114.17
				c1.11-21.8,0.33-41.9-1.28-59.28c18.85,50.03,28.4,102.7,28.4,156.83v269.19c0,4.61,3.74,8.35,8.35,8.35s8.35-3.74,8.35-8.35
				v-269.19C1692.98,1355.39,1680.76,1294.88,1656.67,1237.92z"/>
			<path class="st1" d="M1147.42,846.93c-3.26-3.26-8.55-3.26-11.81,0c-27.75,27.74-72.9,27.74-100.64,0
				c-3.26-3.26-8.55-3.26-11.81,0s-3.26,8.55,0,11.81c17.13,17.13,39.63,25.69,62.13,25.69c22.5,0,45.01-8.57,62.14-25.69
				C1150.68,855.48,1150.68,850.2,1147.42,846.93z"/>
			<path class="st1" d="M1435.34,858.75c3.26-3.26,3.26-8.55,0-11.81c-3.26-3.26-8.55-3.26-11.81,0
				c-13.44,13.44-31.31,20.84-50.32,20.84s-36.88-7.4-50.32-20.84c-3.26-3.26-8.55-3.26-11.81,0c-3.26,3.26-3.26,8.55,0,11.81
				c16.6,16.6,38.66,25.74,62.13,25.74S1418.74,875.34,1435.34,858.75z"/>
			<path class="st1" d="M1045.18,1591.4c-12.68,10.42-28.65,15.28-44.99,13.68c-16.34-1.6-31.07-9.46-41.49-22.14
				c-21.5-26.18-17.7-64.98,8.47-86.48c3.56-2.93,4.08-8.19,1.15-11.76c-2.93-3.57-8.19-4.08-11.76-1.15
				c-33.29,27.35-38.13,76.7-10.77,110c13.25,16.13,31.99,26.13,52.77,28.17c2.59,0.25,5.18,0.38,7.75,0.38
				c18.03,0,35.36-6.18,49.47-17.78c3.56-2.93,4.08-8.19,1.15-11.76S1048.74,1588.47,1045.18,1591.4z"/>
			<path class="st1" d="M1017.39,1547.63c-4.47,0-8.1,3.63-8.1,8.1s3.63,8.1,8.1,8.1H1444c4.47,0,8.1-3.63,8.1-8.1v-61.07
				c0-4.47-3.63-8.1-8.1-8.1h-426.61c-4.47,0-8.1,3.63-8.1,8.1s3.63,8.1,8.1,8.1h418.51v44.87H1017.39z"/>
			<circle class="st1" cx="1485.61" cy="1252.69" r="10.88"/>
			<circle class="st1" cx="1423.28" cy="1221.52" r="10.88"/>
			<circle class="st1" cx="1423.28" cy="1283.86" r="10.88"/>
			<path class="st1" d="M1423.28,1357.07c6.01,0,10.88-4.87,10.88-10.88c0-6.01-4.87-10.88-10.88-10.88s-10.88,4.87-10.88,10.88
				C1412.4,1352.2,1417.27,1357.07,1423.28,1357.07z"/>
			<circle class="st1" cx="1359.83" cy="1252.69" r="10.88"/>
			<path class="st1" d="M1359.83,1325.9c6.01,0,10.88-4.87,10.88-10.88c0-6.01-4.87-10.88-10.88-10.88s-10.88,4.87-10.88,10.88
				C1348.95,1321.03,1353.82,1325.9,1359.83,1325.9z"/>
			<path class="st1" d="M1359.83,1388.24c6.01,0,10.88-4.87,10.88-10.88c0-6.01-4.87-10.88-10.88-10.88s-10.88,4.87-10.88,10.88
				C1348.95,1383.37,1353.82,1388.24,1359.83,1388.24z"/>
			<path class="st1" d="M1359.83,1450.57c6.01,0,10.88-4.87,10.88-10.88c0-6.01-4.87-10.88-10.88-10.88s-10.88,4.87-10.88,10.88
				C1348.95,1445.7,1353.82,1450.57,1359.83,1450.57z"/>
			<path class="st1" d="M1297.49,1232.4c6.01,0,10.88-4.87,10.88-10.88s-4.87-10.88-10.88-10.88c-6.01,0-10.88,4.87-10.88,10.88
				S1291.48,1232.4,1297.49,1232.4z"/>
			<path class="st1" d="M1297.49,1294.74c6.01,0,10.88-4.87,10.88-10.88s-4.87-10.88-10.88-10.88c-6.01,0-10.88,4.87-10.88,10.88
				S1291.48,1294.74,1297.49,1294.74z"/>
			<path class="st1" d="M1297.49,1357.07c6.01,0,10.88-4.87,10.88-10.88c0-6.01-4.87-10.88-10.88-10.88
				c-6.01,0-10.88,4.87-10.88,10.88C1286.61,1352.2,1291.48,1357.07,1297.49,1357.07z"/>
			<path class="st1" d="M1297.49,1419.41c6.01,0,10.88-4.87,10.88-10.88c0-6.01-4.87-10.88-10.88-10.88
				c-6.01,0-10.88,4.87-10.88,10.88C1286.61,1414.54,1291.48,1419.41,1297.49,1419.41z"/>
			<circle class="st1" cx="1234.05" cy="1252.69" r="10.88"/>
			<path class="st1" d="M1234.05,1325.9c6.01,0,10.88-4.87,10.88-10.88c0-6.01-4.87-10.88-10.88-10.88
				c-6.01,0-10.88,4.87-10.88,10.88C1223.16,1321.03,1228.04,1325.9,1234.05,1325.9z"/>
			<path class="st1" d="M1234.05,1388.24c6.01,0,10.88-4.87,10.88-10.88c0-6.01-4.87-10.88-10.88-10.88
				c-6.01,0-10.88,4.87-10.88,10.88C1223.16,1383.37,1228.04,1388.24,1234.05,1388.24z"/>
			<path class="st1" d="M1234.05,1450.57c6.01,0,10.88-4.87,10.88-10.88c0-6.01-4.87-10.88-10.88-10.88
				c-6.01,0-10.88,4.87-10.88,10.88C1223.16,1445.7,1228.04,1450.57,1234.05,1450.57z"/>
			<path class="st1" d="M1171.71,1232.4c6.01,0,10.88-4.87,10.88-10.88s-4.87-10.88-10.88-10.88c-6.01,0-10.88,4.87-10.88,10.88
				S1165.7,1232.4,1171.71,1232.4z"/>
			<path class="st1" d="M1171.71,1294.74c6.01,0,10.88-4.87,10.88-10.88s-4.87-10.88-10.88-10.88c-6.01,0-10.88,4.87-10.88,10.88
				S1165.7,1294.74,1171.71,1294.74z"/>
			<path class="st1" d="M1171.71,1357.07c6.01,0,10.88-4.87,10.88-10.88c0-6.01-4.87-10.88-10.88-10.88
				c-6.01,0-10.88,4.87-10.88,10.88C1160.83,1352.2,1165.7,1357.07,1171.71,1357.07z"/>
			<path class="st1" d="M1171.71,1419.41c6.01,0,10.88-4.87,10.88-10.88c0-6.01-4.87-10.88-10.88-10.88
				c-6.01,0-10.88,4.87-10.88,10.88C1160.83,1414.54,1165.7,1419.41,1171.71,1419.41z"/>
			<path class="st1" d="M1108.26,1241.81c-6.01,0-10.88,4.87-10.88,10.88c0,6.01,4.87,10.88,10.88,10.88
				c6.01,0,10.88-4.87,10.88-10.88C1119.15,1246.68,1114.27,1241.81,1108.26,1241.81z"/>
			<path class="st1" d="M1108.26,1304.14c-6.01,0-10.88,4.87-10.88,10.88c0,6.01,4.87,10.88,10.88,10.88
				c6.01,0,10.88-4.87,10.88-10.88C1119.15,1309.01,1114.27,1304.14,1108.26,1304.14z"/>
			<path class="st1" d="M1108.26,1366.48c-6.01,0-10.88,4.87-10.88,10.88c0,6.01,4.87,10.88,10.88,10.88
				c6.01,0,10.88-4.87,10.88-10.88C1119.15,1371.35,1114.27,1366.48,1108.26,1366.48z"/>
			<path class="st1" d="M1108.26,1428.81c-6.01,0-10.88,4.87-10.88,10.88c0,6.01,4.87,10.88,10.88,10.88
				c6.01,0,10.88-4.87,10.88-10.88C1119.15,1433.68,1114.27,1428.81,1108.26,1428.81z"/>
			<path class="st1" d="M1045.93,1210.64c-6.01,0-10.88,4.87-10.88,10.88s4.87,10.88,10.88,10.88c6.01,0,10.88-4.87,10.88-10.88
				S1051.94,1210.64,1045.93,1210.64z"/>
			<path class="st1" d="M1045.93,1272.97c-6.01,0-10.88,4.87-10.88,10.88s4.87,10.88,10.88,10.88c6.01,0,10.88-4.87,10.88-10.88
				S1051.94,1272.97,1045.93,1272.97z"/>
			<path class="st1" d="M1045.93,1335.31c-6.01,0-10.88,4.87-10.88,10.88c0,6.01,4.87,10.88,10.88,10.88
				c6.01,0,10.88-4.87,10.88-10.88C1056.81,1340.18,1051.94,1335.31,1045.93,1335.31z"/>
			<circle class="st1" cx="982.48" cy="1252.69" r="10.88"/>
		</g>
	</g>
</g>
</svg>
